<?xml version="1.0" encoding="utf-8"?>
<!-- Generator: Adobe Illustrator 23.0.0, SVG Export Plug-In . SVG Version: 6.00 Build 0)  -->
<svg version="1.1" id="Capa_1" xmlns="http://www.w3.org/2000/svg" xmlns:xlink="http://www.w3.org/1999/xlink" x="0px" y="0px"
	 viewBox="0 0 792 326.26" style="enable-background:new 0 0 792 326.26;" xml:space="preserve">
<style type="text/css">
	.st0{fill:#383A42;}
	.st1{fill:#EF8110;}
	.st2{fill:#FFFFFF;}
	.st3{fill:#F8A817;}
	.st4{fill:#727070;}
</style>
<g>
	<g>
		<g>
			<path class="st0" d="M75.53,154.78v11.67H28.71v27.62h41.8v11.67h-41.8v28h48.58v11.8H16.53v-90.75h59V154.78z"/>
			<path class="st0" d="M154.04,244.09c-4.47,1.63-9.35,2.44-14.63,2.44c-9.29,0-17.47-2.05-24.54-6.15
				c-7.07-4.1-12.52-9.62-16.32-16.57s-5.71-14.61-5.71-22.97c0-8.96,1.92-17.01,5.77-24.17s9.19-12.77,16-16.82
				c6.82-4.06,14.54-6.09,23.16-6.09c5.11,0,9.87,0.67,14.32,2.01c4.43,1.34,8.42,3.1,11.92,5.27l-4.9,11.42
				c-6.95-4.68-13.93-7.03-20.96-7.03c-5.86,0-11.28,1.55-16.25,4.64c-4.98,3.1-8.96,7.3-11.92,12.61
				c-2.98,5.32-4.45,11.15-4.45,17.51c0,6.53,1.36,12.43,4.08,17.7c2.72,5.27,6.61,9.39,11.67,12.37
				c5.07,2.98,10.89,4.45,17.51,4.45c8.11,0,15.19-2.3,21.21-6.91l5.15,10.92C162.23,240.69,158.53,242.46,154.04,244.09z"/>
			<path class="st0" d="M186.24,177.12c4.18-7.11,9.81-12.78,16.89-17.01c7.07-4.22,14.79-6.34,23.16-6.34
				c8.29,0,15.98,2.11,23.1,6.34c7.12,4.22,12.79,9.89,17.01,17.01c4.22,7.12,6.34,14.82,6.34,23.1c0,8.38-2.09,16.12-6.27,23.22
				c-4.18,7.12-9.85,12.74-17.01,16.89s-14.88,6.21-23.16,6.21c-8.36,0-16.11-2.05-23.22-6.15c-7.12-4.1-12.74-9.69-16.89-16.76
				c-4.14-7.07-6.21-14.88-6.21-23.41C179.97,191.93,182.05,184.24,186.24,177.12z M197.04,217.55c3.01,5.27,7.13,9.46,12.36,12.56
				c5.23,3.1,10.93,4.64,17.14,4.64c6.19,0,11.86-1.53,17.01-4.58c5.15-3.06,9.21-7.24,12.17-12.56c2.97-5.32,4.45-11.11,4.45-17.38
				c0-6.27-1.51-12.09-4.52-17.45c-3.02-5.36-7.12-9.58-12.3-12.68c-5.19-3.1-10.88-4.64-17.07-4.64c-6.19,0-11.88,1.57-17.07,4.7
				c-5.19,3.14-9.27,7.39-12.23,12.74c-2.98,5.36-4.45,11.17-4.45,17.45C192.52,206.54,194.03,212.27,197.04,217.55z"/>
			<path class="st0" d="M345.91,207.06c3.02,3.72,4.52,8.05,4.52,12.99c0,5.77-1.4,10.57-4.2,14.38c-2.81,3.81-6.49,6.62-11.05,8.42
				c-4.56,1.8-9.56,2.69-15,2.69h-26.99v-90.75h23.47c9.29,0,16.48,1.9,21.59,5.71s7.66,9.52,7.66,17.14c0,4.78-1.06,8.94-3.2,12.5
				c-2.13,3.56-5.17,6.34-9.1,8.34C338.79,200.48,342.89,203.34,345.91,207.06z M305.37,194.44h13.81c4.68,0,8.22-1.33,10.6-4.02
				c2.38-2.67,3.58-6.11,3.58-10.29c0-4.6-1.43-8.03-4.27-10.29c-2.85-2.26-6.82-3.39-11.92-3.39h-11.8V194.44z M332.73,230.66
				c3.43-2.38,5.15-5.88,5.15-10.48c0-4.78-1.86-8.28-5.59-10.54c-3.72-2.26-8.22-3.39-13.49-3.39h-13.43v28h14.31
				C324.95,234.24,329.3,233.04,332.73,230.66z"/>
			<path class="st0" d="M371.53,177.12c4.18-7.11,9.81-12.78,16.89-17.01c7.07-4.22,14.79-6.34,23.16-6.34
				c8.29,0,15.98,2.11,23.1,6.34c7.12,4.22,12.79,9.89,17.01,17.01c4.22,7.12,6.34,14.82,6.34,23.1c0,8.38-2.09,16.12-6.27,23.22
				c-4.18,7.12-9.85,12.74-17.01,16.89s-14.88,6.21-23.16,6.21c-8.36,0-16.11-2.05-23.22-6.15s-12.74-9.69-16.89-16.76
				c-4.14-7.07-6.21-14.88-6.21-23.41C365.24,191.93,367.33,184.24,371.53,177.12z M382.31,217.55c3.01,5.27,7.13,9.46,12.36,12.56
				c5.23,3.1,10.93,4.64,17.14,4.64c6.19,0,11.86-1.53,17.01-4.58c5.15-3.06,9.21-7.24,12.17-12.56c2.97-5.32,4.45-11.11,4.45-17.38
				c0-6.27-1.51-12.09-4.52-17.45c-3.02-5.36-7.12-9.58-12.3-12.68c-5.19-3.1-10.88-4.64-17.07-4.64s-11.88,1.57-17.07,4.7
				c-5.19,3.14-9.27,7.39-12.23,12.74c-2.98,5.36-4.45,11.17-4.45,17.45C377.8,206.54,379.31,212.27,382.31,217.55z"/>
			<path class="st0" d="M490.65,154.78v78.95h46.19v11.8h-58.38v-90.75H490.65z"/>
			<path class="st0" d="M615.55,154.78v11.67h-46.82v27.62h41.8v11.67h-41.8v28h48.58v11.8h-60.76v-90.75h59V154.78z"/>
			<path class="st0" d="M692.11,154.78v11.67h-24.36v79.08h-12.17v-79.08h-23.73v-11.67H692.11z"/>
			<path class="st0" d="M751.99,221.69H717.1l-9.67,23.86h-12.05l39.67-94.52h0.75l39.67,94.52h-14.06L751.99,221.69z
				 M747.85,211.14L734.92,178l-13.43,33.14H747.85z"/>
		</g>
		<g>
			<path class="st1" d="M234.42,106.62l106.42,4.07c-7.97-20.81-4.83-44.77,9.09-62.92c0.2-0.26,0.41-0.5,0.6-0.76
				c0.59-0.75,1.2-1.49,1.83-2.22l0.01-0.01c0.62-0.73,1.27-1.45,1.94-2.15c1-1.06,2.02-2.09,3.1-3.1
				c11.35-10.51,25.43-16.2,39.74-17.2c0,0-101.73-4.39-106.42-4.07c-14.32,1-28.4,6.69-39.74,17.2
				C230.88,54.11,225.18,82.49,234.42,106.62z"/>
			<path class="st2" d="M397.37,25.5c-14.25,0.99-27.32,6.65-37.81,16.35c-1.03,0.95-2,1.94-2.94,2.94
				c-0.63,0.68-1.25,1.35-1.84,2.05l-0.17,0.2c-0.54,0.63-1.06,1.27-1.58,1.92l-0.57,0.72c-12.98,16.94-16.3,39.89-8.66,59.86
				l1.72,4.48l-113.31-4.33l-0.75-1.96c-10.05-26.24-3.24-55.53,17.37-74.61c11.39-10.55,26.2-16.96,41.68-18.03
				c4.73-0.33,96.34,3.61,106.77,4.06L397.37,25.5z M350.15,42.51c0.57-0.67,1.21-1.37,1.86-2.06c1.04-1.1,2.11-2.2,3.25-3.25
				c5.74-5.33,12.36-9.59,19.5-12.65c-37.87-1.59-80.96-3.31-83.79-3.12c-14.25,0.99-27.33,6.65-37.81,16.35
				c-18.19,16.84-24.53,42.44-16.47,65.74l99.67,3.81c-6.37-20.91-2.3-44.08,11.07-61.51l0.63-0.79c0.61-0.78,1.26-1.56,1.91-2.32
				L350.15,42.51z"/>
			<path class="st3" d="M354.31,42.63c-1.33,1.41-2.59,2.87-3.78,4.38l61.51,66.4l14.62,13.64l103.3,0.7l-80.22-84.47l-1.45-1.5
				c-10.33-10.57-23.43-16.91-37.08-18.9c-4.65-0.69-9.36-0.86-14.06-0.54c-14.32,1-28.4,6.69-39.74,17.2
				C356.33,40.54,355.31,41.57,354.31,42.63z"/>
			<path class="st2" d="M537.39,130.96l-111.99-0.76l-15.52-14.48l-63.52-68.55l1.68-2.13c1.24-1.57,2.57-3.12,3.95-4.59
				c1.04-1.11,2.12-2.2,3.26-3.25c11.39-10.55,26.2-16.96,41.68-18.03c4.9-0.34,9.86-0.16,14.73,0.56
				c14.9,2.18,28.35,9.04,38.89,19.83l1.46,1.5L537.39,130.96z M427.92,123.88l94.62,0.65l-76.53-80.54
				c-9.55-9.78-21.75-15.99-35.27-17.98c-4.42-0.65-8.93-0.82-13.38-0.51c-14.25,0.99-27.32,6.65-37.81,16.35
				c-1.03,0.95-2,1.94-2.94,2.94l0,0c-0.63,0.68-1.27,1.37-1.87,2.08l59.62,64.36L427.92,123.88z"/>
			<path class="st2" d="M320.84,22.43c-14.25,0.99-27.32,6.65-37.81,16.35c-9.19,8.51-15.51,19.42-18.29,31.58l-6.18-1.41
				c3.07-13.4,10.04-25.44,20.16-34.81c11.39-10.55,26.2-16.96,41.68-18.03L320.84,22.43z"/>
			<path class="st2" d="M353.96,23.61c-14.25,0.99-27.33,6.65-37.81,16.35c-9.19,8.51-15.5,19.42-18.29,31.58l-6.18-1.41
				c3.07-13.4,10.03-25.44,20.15-34.81c11.39-10.55,26.2-16.96,41.68-18.03L353.96,23.61z"/>
		</g>
	</g>
	<g>
		<path class="st4" d="M137.62,274c0-0.53,0.19-0.99,0.55-1.37c0.36-0.38,0.81-0.58,1.34-0.58h10.01c1.47,0,2.83,0.27,4.09,0.82
			c1.26,0.55,2.37,1.3,3.33,2.26c0.96,0.96,1.71,2.07,2.26,3.33c0.55,1.26,0.82,2.6,0.82,4.03c0,1.3-0.23,2.53-0.68,3.66
			c-0.45,1.14-1.06,2.16-1.83,3.08c-0.77,0.92-1.7,1.69-2.78,2.32s-2.23,1.05-3.45,1.25l9.28,15.08c0.12,0.21,0.23,0.43,0.33,0.68
			s0.16,0.51,0.16,0.79c0,0.32-0.16,0.7-0.46,1.09c-0.3,0.41-0.74,0.61-1.31,0.61c-0.36,0-0.7-0.1-1.01-0.3
			c-0.3-0.21-0.56-0.47-0.77-0.79l-10.45-17.03h-5.68v16.24c0,0.53-0.19,0.98-0.55,1.34c-0.36,0.36-0.81,0.55-1.34,0.55
			s-0.98-0.19-1.34-0.55c-0.36-0.36-0.55-0.81-0.55-1.34V274H137.62z M141.39,275.83v13.31h8.13c0.89,0,1.75-0.18,2.56-0.52
			c0.81-0.34,1.53-0.82,2.13-1.44c0.61-0.61,1.09-1.31,1.44-2.1s0.52-1.65,0.52-2.59c0-0.89-0.18-1.75-0.52-2.57
			c-0.34-0.81-0.82-1.53-1.44-2.13c-0.61-0.61-1.32-1.09-2.13-1.44c-0.81-0.34-1.66-0.52-2.56-0.52L141.39,275.83L141.39,275.83z"/>
		<path class="st4" d="M180.53,273.45c0.11-0.32,0.34-0.65,0.67-0.95c0.33-0.3,0.7-0.46,1.1-0.46s0.77,0.15,1.1,0.43
			c0.32,0.28,0.57,0.61,0.73,0.98l15.09,34.99c0.08,0.17,0.12,0.41,0.12,0.73c0,0.49-0.17,0.92-0.49,1.28s-0.77,0.55-1.34,0.55
			c-0.85,0-1.45-0.38-1.77-1.15l-4.88-11.17h-17.16l-4.88,11.17c-0.17,0.36-0.41,0.66-0.74,0.85c-0.32,0.21-0.67,0.3-1.04,0.3
			c-0.57,0-1.03-0.19-1.37-0.55c-0.34-0.36-0.52-0.79-0.52-1.28c0-0.24,0.06-0.49,0.19-0.73L180.53,273.45z M182.3,279.13
			l-6.96,15.75h13.86L182.3,279.13z M185.6,257.88c0.33-0.61,0.85-0.92,1.59-0.92c0.57,0,1.03,0.21,1.37,0.61
			c0.34,0.41,0.52,0.85,0.52,1.34c0,0.32-0.06,0.61-0.19,0.85l-5.07,8.73c-0.17,0.32-0.38,0.57-0.68,0.73
			c-0.28,0.17-0.59,0.25-0.92,0.25c-0.57,0-1.03-0.22-1.37-0.68c-0.34-0.45-0.52-0.89-0.52-1.34c0-0.28,0.06-0.55,0.19-0.79
			L185.6,257.88z"/>
		<path class="st4" d="M203.61,274c0-0.53,0.19-0.99,0.55-1.37c0.36-0.38,0.81-0.58,1.34-0.58h9.95c1.47,0,2.83,0.27,4.09,0.82
			c1.26,0.55,2.37,1.3,3.33,2.26c0.96,0.96,1.72,2.07,2.26,3.33c0.55,1.26,0.82,2.6,0.82,4.03s-0.27,2.78-0.82,4.06
			c-0.55,1.28-1.3,2.39-2.26,3.33c-0.96,0.94-2.06,1.67-3.33,2.23c-1.26,0.55-2.62,0.82-4.09,0.82h-8.06v16.24
			c0,0.53-0.19,0.98-0.55,1.34c-0.36,0.36-0.81,0.55-1.34,0.55c-0.53,0-0.98-0.19-1.34-0.55c-0.36-0.36-0.55-0.81-0.55-1.34V274
			H203.61z M207.39,275.83v13.31h8.06c0.89,0,1.75-0.18,2.56-0.52c0.81-0.34,1.53-0.82,2.13-1.44c0.61-0.61,1.09-1.31,1.44-2.1
			c0.34-0.79,0.52-1.65,0.52-2.59c0-0.89-0.18-1.75-0.52-2.57c-0.34-0.81-0.82-1.53-1.44-2.13c-0.61-0.61-1.32-1.09-2.13-1.44
			c-0.81-0.34-1.66-0.52-2.56-0.52L207.39,275.83L207.39,275.83z"/>
		<path class="st4" d="M231.15,273.94c0-0.53,0.19-0.98,0.55-1.34c0.36-0.36,0.81-0.55,1.34-0.55c0.53,0,0.98,0.19,1.34,0.55
			c0.36,0.36,0.55,0.81,0.55,1.34v35.23c0,0.53-0.19,0.98-0.55,1.34c-0.36,0.36-0.81,0.55-1.34,0.55c-0.53,0-0.98-0.19-1.34-0.55
			c-0.36-0.36-0.55-0.81-0.55-1.34V273.94z"/>
		<path class="st4" d="M240.55,273.94c0-0.53,0.19-0.98,0.55-1.34c0.36-0.36,0.81-0.55,1.34-0.55h10.5c2.68,0,5.21,0.51,7.57,1.53
			c2.36,1.02,4.43,2.41,6.2,4.18c1.77,1.77,3.16,3.84,4.18,6.2c1.02,2.36,1.53,4.89,1.53,7.57s-0.51,5.22-1.53,7.61
			c-1.02,2.38-2.41,4.45-4.18,6.23c-1.77,1.77-3.84,3.16-6.2,4.18c-2.36,1.02-4.88,1.53-7.57,1.53h-10.5
			c-0.53,0-0.98-0.19-1.34-0.55c-0.36-0.36-0.55-0.81-0.55-1.34V273.94z M244.34,275.83v31.44h8.6c2.15,0,4.19-0.42,6.11-1.25
			s3.58-1.97,5-3.39c1.43-1.43,2.55-3.09,3.36-5s1.22-3.95,1.22-6.11s-0.41-4.19-1.22-6.11s-1.94-3.58-3.36-5
			c-1.43-1.43-3.09-2.54-5-3.36c-1.91-0.81-3.95-1.22-6.11-1.22L244.34,275.83L244.34,275.83z"/>
		<path class="st4" d="M287.25,273.45c0.11-0.32,0.34-0.65,0.67-0.95c0.33-0.3,0.7-0.46,1.1-0.46c0.41,0,0.77,0.15,1.1,0.43
			c0.32,0.28,0.57,0.61,0.73,0.98l15.09,34.99c0.08,0.17,0.12,0.41,0.12,0.73c0,0.49-0.17,0.92-0.49,1.28s-0.77,0.55-1.34,0.55
			c-0.85,0-1.45-0.38-1.77-1.15l-4.88-11.17h-17.16l-4.88,11.17c-0.17,0.36-0.41,0.66-0.74,0.85c-0.32,0.21-0.67,0.3-1.04,0.3
			c-0.57,0-1.03-0.19-1.37-0.55c-0.34-0.36-0.52-0.79-0.52-1.28c0-0.24,0.06-0.49,0.19-0.73L287.25,273.45z M289.02,279.13
			l-6.96,15.75h13.86L289.02,279.13z"/>
		<path class="st4" d="M332.44,291.47c-1.22-0.36-2.52-0.82-3.88-1.37c-1.36-0.55-2.61-1.21-3.72-1.99
			c-1.12-0.77-2.04-1.67-2.78-2.72c-0.74-1.04-1.1-2.23-1.1-3.57c0-1.55,0.34-2.92,1.04-4.12c0.7-1.2,1.59-2.22,2.68-3.05
			c1.09-0.83,2.33-1.47,3.69-1.89c1.36-0.43,2.72-0.65,4.06-0.65c0.89,0,1.82,0.07,2.78,0.22c0.96,0.15,1.9,0.4,2.84,0.76
			c0.94,0.36,1.84,0.87,2.72,1.53c0.87,0.66,1.68,1.49,2.41,2.51c0.25,0.36,0.36,0.79,0.36,1.28c0,0.57-0.18,1.05-0.52,1.44
			c-0.34,0.38-0.8,0.58-1.37,0.58c-0.73,0-1.3-0.32-1.71-0.98c-0.49-0.81-1.06-1.46-1.71-1.92c-0.66-0.47-1.31-0.82-1.99-1.07
			c-0.68-0.24-1.34-0.4-2.02-0.46c-0.68-0.06-1.27-0.09-1.8-0.09c-0.81,0-1.66,0.1-2.56,0.3c-0.89,0.21-1.72,0.53-2.48,0.98
			c-0.75,0.45-1.37,1.05-1.86,1.8c-0.49,0.75-0.73,1.7-0.73,2.84c0,0.81,0.35,1.55,1.07,2.2c0.71,0.66,1.58,1.22,2.59,1.71
			c1.02,0.49,2.08,0.92,3.17,1.28c1.1,0.36,2.04,0.7,2.81,0.98c1.55,0.57,2.95,1.19,4.21,1.83c1.26,0.66,2.35,1.43,3.27,2.32
			c0.92,0.89,1.62,1.94,2.13,3.11c0.51,1.19,0.77,2.59,0.77,4.21c0,1.62-0.34,3.15-1.04,4.58c-0.7,1.43-1.61,2.65-2.78,3.69
			c-1.17,1.04-2.5,1.85-4.01,2.44c-1.51,0.59-3.07,0.88-4.7,0.88c-1.14,0-2.33-0.16-3.57-0.46c-1.24-0.31-2.42-0.74-3.54-1.29
			c-1.12-0.55-2.13-1.21-3.06-1.99c-0.92-0.77-1.61-1.62-2.1-2.56c-0.2-0.32-0.3-0.66-0.3-0.98c0-0.49,0.19-0.94,0.58-1.34
			c0.38-0.41,0.86-0.61,1.44-0.61c0.78,0,1.34,0.32,1.71,0.98c0.36,0.74,0.91,1.37,1.62,1.92c0.71,0.55,1.5,1.02,2.35,1.4
			c0.85,0.38,1.72,0.68,2.59,0.85c0.87,0.19,1.65,0.27,2.35,0.27c1.09,0,2.17-0.2,3.24-0.61c1.06-0.41,1.99-0.96,2.78-1.65
			c0.79-0.69,1.44-1.52,1.92-2.48c0.49-0.96,0.73-1.99,0.73-3.08c0-1.1-0.22-2.06-0.65-2.87c-0.43-0.81-1.03-1.53-1.8-2.13
			c-0.78-0.61-1.69-1.15-2.75-1.64C334.8,292.32,333.66,291.87,332.44,291.47z"/>
		<path class="st4" d="M350.02,273.94c0-0.53,0.19-0.98,0.55-1.34s0.81-0.55,1.34-0.55s0.98,0.19,1.34,0.55s0.55,0.81,0.55,1.34
			v35.23c0,0.53-0.19,0.98-0.55,1.34s-0.81,0.55-1.34,0.55s-0.98-0.19-1.34-0.55s-0.55-0.81-0.55-1.34V273.94z"/>
		<path class="st4" d="M364.61,273.64c0.08-0.45,0.29-0.82,0.63-1.13c0.34-0.3,0.77-0.46,1.25-0.46c0.85,0,1.45,0.38,1.77,1.15
			l12.39,30.9l12.34-30.9c0.32-0.77,0.92-1.15,1.77-1.15c0.49,0,0.91,0.17,1.25,0.49c0.34,0.32,0.56,0.73,0.65,1.22l4.28,35.23v0.3
			c0,0.49-0.17,0.91-0.49,1.25c-0.32,0.34-0.71,0.52-1.15,0.52c-0.57,0-1.04-0.16-1.4-0.46c-0.36-0.31-0.59-0.69-0.67-1.13
			l-3.42-28.09l-11.3,28.39c-0.17,0.36-0.41,0.7-0.73,0.98c-0.32,0.28-0.7,0.43-1.1,0.43c-0.41,0-0.77-0.16-1.09-0.46
			c-0.33-0.3-0.55-0.62-0.68-0.95l-11.54-28.69l-4.03,28.33c-0.08,0.49-0.3,0.88-0.68,1.2c-0.36,0.3-0.78,0.46-1.22,0.46
			c-0.57-0.08-1.03-0.28-1.37-0.61c-0.34-0.32-0.52-0.73-0.52-1.22c0-0.04,0.01-0.08,0.03-0.12c0.02-0.04,0.03-0.1,0.03-0.19
			L364.61,273.64z"/>
		<path class="st4" d="M405.89,274c0-0.53,0.19-0.99,0.55-1.37c0.36-0.38,0.81-0.58,1.34-0.58h9.95c1.47,0,2.83,0.27,4.09,0.82
			c1.26,0.55,2.37,1.3,3.33,2.26c0.96,0.96,1.72,2.07,2.26,3.33c0.55,1.26,0.82,2.6,0.82,4.03s-0.27,2.78-0.82,4.06
			c-0.55,1.28-1.3,2.39-2.26,3.33c-0.96,0.94-2.06,1.67-3.33,2.23c-1.27,0.55-2.62,0.82-4.09,0.82h-8.06v16.24
			c0,0.53-0.19,0.98-0.55,1.34s-0.81,0.55-1.34,0.55s-0.98-0.19-1.34-0.55s-0.55-0.81-0.55-1.34V274H405.89z M409.68,275.83v13.31
			h8.06c0.89,0,1.75-0.18,2.56-0.52c0.81-0.34,1.53-0.82,2.13-1.44c0.61-0.61,1.09-1.31,1.44-2.1c0.34-0.79,0.52-1.65,0.52-2.59
			c0-0.89-0.18-1.75-0.52-2.57c-0.34-0.81-0.82-1.53-1.44-2.13c-0.61-0.61-1.32-1.09-2.13-1.44c-0.81-0.34-1.66-0.52-2.56-0.52
			L409.68,275.83L409.68,275.83z"/>
		<path class="st4" d="M432.51,273.94c0-0.53,0.19-0.98,0.55-1.34s0.81-0.55,1.34-0.55s0.98,0.19,1.34,0.55s0.55,0.81,0.55,1.34
			v33.33h15.51c0.53,0,0.98,0.19,1.34,0.55c0.36,0.36,0.55,0.81,0.55,1.34s-0.19,0.98-0.55,1.34c-0.36,0.36-0.81,0.55-1.34,0.55
			h-17.41c-0.53,0-0.98-0.19-1.34-0.55s-0.55-0.81-0.55-1.34V273.94z"/>
		<path class="st4" d="M456.14,273.94c0-0.53,0.19-0.98,0.55-1.34c0.36-0.36,0.81-0.55,1.34-0.55h18.56c0.53,0,0.98,0.19,1.34,0.55
			s0.55,0.81,0.55,1.34s-0.19,0.98-0.55,1.34c-0.36,0.36-0.81,0.55-1.34,0.55h-16.67v13.62h11.11c0.53,0,0.98,0.19,1.34,0.55
			s0.55,0.81,0.55,1.34s-0.19,0.98-0.55,1.34s-0.81,0.55-1.34,0.55h-11.11v14.05h16.67c0.53,0,0.98,0.19,1.34,0.55
			s0.55,0.81,0.55,1.34s-0.19,0.98-0.55,1.34c-0.36,0.36-0.81,0.55-1.34,0.55h-18.56c-0.53,0-0.98-0.19-1.34-0.55
			c-0.36-0.36-0.55-0.81-0.55-1.34V273.94z"/>
		<path class="st4" d="M492.46,273.94c0-0.53,0.19-0.98,0.55-1.34s0.81-0.55,1.34-0.55h18.56c0.53,0,0.98,0.19,1.34,0.55
			s0.55,0.81,0.55,1.34s-0.19,0.98-0.55,1.34c-0.36,0.36-0.81,0.55-1.34,0.55h-16.67v13.62h11.11c0.53,0,0.98,0.19,1.34,0.55
			c0.36,0.36,0.55,0.81,0.55,1.34s-0.19,0.98-0.55,1.34c-0.36,0.36-0.81,0.55-1.34,0.55h-11.11v14.05h16.67
			c0.53,0,0.98,0.19,1.34,0.55s0.55,0.81,0.55,1.34s-0.19,0.98-0.55,1.34c-0.36,0.36-0.81,0.55-1.34,0.55h-18.56
			c-0.53,0-0.98-0.19-1.34-0.55c-0.36-0.36-0.55-0.81-0.55-1.34V273.94z"/>
		<path class="st4" d="M519.2,273.94c0-0.53,0.19-0.98,0.55-1.34c0.36-0.36,0.81-0.55,1.34-0.55h18.62c0.53,0,0.98,0.19,1.34,0.55
			c0.36,0.36,0.55,0.81,0.55,1.34s-0.19,0.98-0.55,1.34c-0.36,0.36-0.81,0.55-1.34,0.55h-16.73v13.62h10.56
			c0.53,0,0.98,0.19,1.34,0.55c0.36,0.36,0.55,0.81,0.55,1.34s-0.19,0.98-0.55,1.34c-0.36,0.36-0.81,0.55-1.34,0.55h-10.56v15.94
			c0,0.53-0.19,0.98-0.55,1.34c-0.36,0.36-0.81,0.55-1.34,0.55c-0.53,0-0.98-0.19-1.34-0.55c-0.36-0.36-0.55-0.81-0.55-1.34V273.94z
			"/>
		<path class="st4" d="M546.67,273.94c0-0.53,0.19-0.98,0.55-1.34c0.36-0.36,0.81-0.55,1.34-0.55c0.53,0,0.98,0.19,1.34,0.55
			c0.36,0.36,0.55,0.81,0.55,1.34v35.23c0,0.53-0.19,0.98-0.55,1.34s-0.81,0.55-1.34,0.55s-0.98-0.19-1.34-0.55
			c-0.36-0.36-0.55-0.81-0.55-1.34V273.94z"/>
		<path class="st4" d="M585.32,280.9c-1.47-1.26-3.17-2.4-5.13-3.42c-1.96-1.02-4.05-1.53-6.29-1.53c-2.15,0-4.19,0.41-6.11,1.22
			c-1.91,0.81-3.57,1.94-4.97,3.36c-1.4,1.43-2.52,3.09-3.33,5s-1.22,3.95-1.22,6.11c0,2.15,0.41,4.19,1.22,6.11
			c0.81,1.91,1.92,3.57,3.33,4.97c1.4,1.4,3.06,2.52,4.97,3.33s3.95,1.22,6.11,1.22c2.28,0,4.4-0.44,6.38-1.31s3.67-2.08,5.1-3.63
			c0.21-0.24,0.46-0.43,0.77-0.55c0.3-0.12,0.62-0.19,0.95-0.19c0.53,0,0.93,0.19,1.19,0.55c0.26,0.36,0.4,0.77,0.4,1.22
			c0,0.66-0.19,1.17-0.55,1.53c-1.79,1.96-3.91,3.47-6.35,4.55c-2.44,1.08-5.07,1.62-7.88,1.62c-2.68,0-5.21-0.51-7.57-1.53
			s-4.42-2.4-6.17-4.15c-1.75-1.75-3.13-3.81-4.15-6.17s-1.53-4.88-1.53-7.57c0-2.69,0.51-5.21,1.53-7.57s2.4-4.43,4.15-6.2
			c1.75-1.77,3.81-3.16,6.17-4.18c2.36-1.02,4.88-1.53,7.57-1.53c2.73,0,5.29,0.53,7.66,1.59c2.38,1.06,4.47,2.51,6.26,4.34
			c0.2,0.21,0.38,0.47,0.55,0.79c0.17,0.32,0.24,0.66,0.24,0.98c0,0.53-0.19,0.94-0.55,1.22c-0.36,0.28-0.79,0.43-1.28,0.43
			C586.18,281.51,585.69,281.31,585.32,280.9z"/>
		<path class="st4" d="M602.91,273.45c0.11-0.32,0.34-0.65,0.67-0.95c0.33-0.3,0.7-0.46,1.1-0.46s0.77,0.15,1.1,0.43
			c0.32,0.28,0.57,0.61,0.73,0.98l15.09,34.99c0.08,0.17,0.12,0.41,0.12,0.73c0,0.49-0.17,0.92-0.49,1.28
			c-0.32,0.36-0.77,0.55-1.34,0.55c-0.85,0-1.45-0.38-1.77-1.15l-4.88-11.17h-17.16l-4.88,11.17c-0.17,0.36-0.41,0.66-0.74,0.85
			c-0.32,0.21-0.67,0.3-1.04,0.3c-0.57,0-1.03-0.19-1.37-0.55c-0.34-0.36-0.52-0.79-0.52-1.28c0-0.24,0.06-0.49,0.19-0.73
			L602.91,273.45z M604.67,279.13l-6.96,15.75h13.86L604.67,279.13z"/>
		<path class="st4" d="M627.89,275.83c-0.53,0-0.98-0.19-1.34-0.55c-0.36-0.36-0.55-0.81-0.55-1.34s0.19-0.98,0.55-1.34
			s0.81-0.55,1.34-0.55h25.22c0.53,0,0.98,0.19,1.34,0.55c0.36,0.36,0.55,0.81,0.55,1.34c0,0.32-0.09,0.63-0.27,0.92
			c-0.19,0.28-0.26,0.41-0.21,0.36l-23.26,32.05h21.86c0.53,0,0.98,0.19,1.34,0.55c0.36,0.36,0.55,0.81,0.55,1.34
			s-0.19,0.98-0.55,1.34c-0.36,0.36-0.81,0.55-1.34,0.55H627.9c-0.53,0-0.98-0.19-1.34-0.55c-0.36-0.36-0.55-0.81-0.55-1.34
			c0-0.32,0.12-0.71,0.36-1.15l23.2-32.18L627.89,275.83L627.89,275.83z"/>
	</g>
</g>
</svg>
