<?xml version="1.0" encoding="UTF-8"?>
<svg version="1.1" xmlns="http://www.w3.org/2000/svg" width="200" height="200">
<path d="M0 0 C26.4 0 52.8 0 80 0 C80.495 10.395 80.495 10.395 81 21 C71.43 21 61.86 21 52 21 C51.34 19.02 50.68 17.04 50 15 C48.34063061 12.76393174 46.70654222 10.70279999 44.875 8.625 C44.40707031 8.07972656 43.93914062 7.53445312 43.45703125 6.97265625 C42.3127059 5.64150227 41.15745428 4.31975414 40 3 C38.53927468 4.60198888 37.08150284 6.20667116 35.625 7.8125 C34.81289062 8.70582031 34.00078125 9.59914063 33.1640625 10.51953125 C29.92490797 14.23228057 28.99680715 16.01596427 28 21 C18.43 21 8.86 21 -1 21 C-1.0309375 17.1946875 -1.0309375 17.1946875 -1.0625 13.3125 C-1.071604 12.52270752 -1.08070801 11.73291504 -1.09008789 10.91918945 C-1.10526431 7.04724309 -0.76733977 3.83669884 0 0 Z " fill="#000000" transform="translate(59,64)"/>
<path d="M0 0 C17.49 0 34.98 0 53 0 C53.495 12.375 53.495 12.375 54 25 C36.18 25 18.36 25 0 25 C0 16.75 0 8.5 0 0 Z " fill="#000000" transform="translate(72,175)"/>
<path d="M0 0 C16.17 0 32.34 0 49 0 C49 7.92 49 15.84 49 24 C32.5 24 16 24 -1 24 C-0.67 16.08 -0.34 8.16 0 0 Z " fill="#000000" transform="translate(49,149)"/>
<path d="M0 0 C15.84 0 31.68 0 48 0 C49 9 49 9 49 24 C32.83 24 16.66 24 0 24 C0 16.08 0 8.16 0 0 Z " fill="#000000" transform="translate(100,149)"/>
<path d="M0 0 C16.5 0 33 0 50 0 C50 7.59 50 15.18 50 23 C33.5 23 17 23 0 23 C0 15.41 0 7.82 0 0 Z " fill="#000000" transform="translate(48,23)"/>
<path d="M0 0 C16.17 0 32.34 0 49 0 C49 7.59 49 15.18 49 23 C32.83 23 16.66 23 0 23 C0 15.41 0 7.82 0 0 Z " fill="#000000" transform="translate(100,23)"/>
<path d="M0 0 C14.19 0 28.38 0 43 0 C45 12 45 12 46 25 C31.15 25 16.3 25 1 25 C0.67 16.75 0.34 8.5 0 0 Z " fill="#000000" transform="translate(127,175)"/>
<path d="M0 0 C1.77206192 0.00015919 3.54412846 0.00585754 5.31616211 0.01586914 C6.24698105 0.01728409 7.17779999 0.01869904 8.13682556 0.02015686 C11.12241777 0.02577367 14.10793615 0.03832899 17.09350586 0.05102539 C19.11238499 0.05603823 21.13126529 0.06060151 23.15014648 0.06469727 C28.11046158 0.07574856 33.07072118 0.09302444 38.03100586 0.11352539 C38.05987569 4.09267698 38.07775992 8.07180192 38.09350586 12.05102539 C38.10188477 13.18733398 38.11026367 14.32364258 38.11889648 15.49438477 C38.12211914 16.57397461 38.1253418 17.65356445 38.12866211 18.76586914 C38.13389893 19.76610107 38.13913574 20.76633301 38.14453125 21.796875 C38.03100586 24.11352539 38.03100586 24.11352539 37.03100586 25.11352539 C35.64940471 25.20630869 34.26312548 25.23099582 32.87841797 25.22705078 C31.99758041 25.22697525 31.11674286 25.22689972 30.20921326 25.2268219 C29.25192825 25.22166061 28.29464325 25.21649933 27.30834961 25.21118164 C26.33313858 25.20976669 25.35792755 25.20835175 24.35316467 25.20689392 C21.22491443 25.20127672 18.09673463 25.18872132 14.96850586 25.17602539 C12.85327251 25.17101261 10.73803805 25.16644932 8.62280273 25.16235352 C3.4255129 25.1513017 -1.77173559 25.13454685 -6.96899414 25.11352539 C-6.81363496 22.72544362 -6.6572342 20.33743755 -6.50024414 17.94946289 C-6.45673828 17.27906982 -6.41323242 16.60867676 -6.3684082 15.91796875 C-5.32828551 0.15240529 -5.32828551 0.15240529 0 0 Z " fill="#000000" transform="translate(31.968994140625,174.886474609375)"/>
<path d="M0 0 C13.86 0 27.72 0 42 0 C42 6.6 42 13.2 42 20 C28.14 20 14.28 20 0 20 C0 13.4 0 6.8 0 0 Z " fill="#000000" transform="translate(78,0)"/>
<path d="M0 0 C19.14 0 38.28 0 58 0 C56 9 56 9 54 14 C37.5 14 21 14 4 14 C0 4 0 4 0 0 Z " fill="#000000" transform="translate(70,48)"/>
<path d="M0 0 C16.5 0 33 0 50 0 C54 10 54 10 54 13 C34.86 13 15.72 13 -4 13 C-3 7 -3 7 0 0 Z " fill="#000000" transform="translate(74,134)"/>
<path d="M0 0 C10.56 0 21.12 0 32 0 C32 6.93 32 13.86 32 21 C21.11 21 10.22 21 -1 21 C-0.67 14.07 -0.34 7.14 0 0 Z " fill="#000000" transform="translate(55,110)"/>
<path d="M0 0 C10.23 0 20.46 0 31 0 C32 7 32 7 32 21 C21.44 21 10.88 21 0 21 C0 14.07 0 7.14 0 0 Z " fill="#000000" transform="translate(111,110)"/>
<path d="M0 0 C10.89 0 21.78 0 33 0 C33 6.6 33 13.2 33 20 C22.11 20 11.22 20 0 20 C0 13.4 0 6.8 0 0 Z " fill="#000000" transform="translate(134,0)"/>
<path d="M0 0 C10.56 0 21.12 0 32 0 C32 6.6 32 13.2 32 20 C21.44 20 10.88 20 0 20 C0 13.4 0 6.8 0 0 Z " fill="#000000" transform="translate(31,0)"/>
<path d="M0 0 C8.91 0 17.82 0 27 0 C27.33 6.93 27.66 13.86 28 21 C19.09 21 10.18 21 1 21 C0.67 14.07 0.34 7.14 0 0 Z " fill="#000000" transform="translate(126,87)"/>
<path d="M0 0 C8.58 0 17.16 0 26 0 C26.020625 3.279375 26.04125 6.55875 26.0625 9.9375 C26.071604 10.97253662 26.08070801 12.00757324 26.09008789 13.07397461 C26.09258545 13.88358643 26.09508301 14.69319824 26.09765625 15.52734375 C26.10551147 16.77632446 26.10551147 16.77632446 26.11352539 18.05053711 C26 20 26 20 25 21 C23.07332493 21.08748207 21.14348139 21.10697334 19.21484375 21.09765625 C18.04501953 21.09443359 16.87519531 21.09121094 15.66992188 21.08789062 C13.82237305 21.07532227 13.82237305 21.07532227 11.9375 21.0625 C10.08415039 21.05573242 10.08415039 21.05573242 8.19335938 21.04882812 C5.12885883 21.03699608 2.06445279 21.02051173 -1 21 C-1.02760015 19.18759041 -1.04665998 17.37505052 -1.0625 15.5625 C-1.07410156 14.55316406 -1.08570313 13.54382813 -1.09765625 12.50390625 C-0.98109066 8.32153275 -0.46204524 4.15840713 0 0 Z " fill="#000000" transform="translate(45,87)"/>
<path d="M0 0 C11.22 0 22.44 0 34 0 C28.2955298 11.4089404 28.2955298 11.4089404 22 14 C13.09541074 15.30379156 3.94584591 14.61195536 -5 14 C-4.54636829 12.41531323 -4.08688548 10.83230076 -3.625 9.25 C-3.36976562 8.36828125 -3.11453125 7.4865625 -2.8515625 6.578125 C-2 4 -2 4 0 0 Z " fill="#000000" transform="translate(131,48)"/>
<path d="M0 0 C4.26007443 -0.27799881 8.48826191 -0.51533959 12.75024414 -0.65917969 C14.19338918 -0.71910266 15.63581839 -0.80069404 17.07641602 -0.90527344 C28.72650191 -1.72905767 28.72650191 -1.72905767 32.57843018 1.20043945 C35.3277605 4.05568881 40 8.95640463 40 13 C28.12 13 16.24 13 4 13 C2.68 8.71 1.36 4.42 0 0 Z " fill="#000000" transform="translate(126,134)"/>
<path d="M0 0 C1.2777832 0.0314209 2.55556641 0.0628418 3.87207031 0.09521484 C4.89569672 0.10794937 4.89569672 0.10794937 5.94000244 0.12094116 C8.11169911 0.15443177 10.27962915 0.22967993 12.45019531 0.30615234 C13.92540194 0.3362586 15.40066702 0.36363329 16.87597656 0.38818359 C20.48526575 0.45420149 24.09236273 0.55768317 27.70019531 0.68115234 C27.41537164 2.09921065 27.12201387 3.51555613 26.82519531 4.93115234 C26.66277344 5.72005859 26.50035156 6.50896484 26.33300781 7.32177734 C25.70019531 9.68115234 25.70019531 9.68115234 23.70019531 13.68115234 C12.15019531 13.68115234 0.60019531 13.68115234 -11.29980469 13.68115234 C-9.97980469 11.37115234 -8.65980469 9.06115234 -7.29980469 6.68115234 C-6.70522461 5.5588623 -6.11064453 4.43657227 -5.49804688 3.28027344 C-3.29980469 0.68115234 -3.29980469 0.68115234 0 0 Z " fill="#000000" transform="translate(43.2998046875,133.31884765625)"/>
<path d="M0 0 C11.22 0 22.44 0 34 0 C38 10 38 10 38 14 C13.99889449 16.08102071 13.99889449 16.08102071 7.6015625 11.3984375 C4.55191598 8.57712526 2.15240112 5.54802194 0 2 C0 1.34 0 0.68 0 0 Z " fill="#000000" transform="translate(33,48)"/>
<path d="M0 0 C5.61 0 11.22 0 17 0 C17.50255889 3.43714381 18.00215424 6.8746732 18.5 10.3125 C18.64308594 11.28896484 18.78617188 12.26542969 18.93359375 13.27148438 C19.06894531 14.20927734 19.20429688 15.14707031 19.34375 16.11328125 C19.46943359 16.97735596 19.59511719 17.84143066 19.72460938 18.73168945 C20 21 20 21 20 24 C13.73 24 7.46 24 1 24 C0.67 16.08 0.34 8.16 0 0 Z " fill="#000000" transform="translate(150,149)"/>
<path d="M0 0 C5.28 0 10.56 0 16 0 C16.10763614 8.0727106 15.6920239 15.95522214 15 24 C9.06 24 3.12 24 -3 24 C-2.5169553 15.78824003 -1.82241538 8.01862769 0 0 Z " fill="#000000" transform="translate(31,149)"/>
<path d="M0 0 C4.95 0 9.9 0 15 0 C15 7.59 15 15.18 15 23 C10.05 23 5.1 23 0 23 C0 15.41 0 7.82 0 0 Z " fill="#000000" transform="translate(152,23)"/>
<path d="M0 0 C4.95 0 9.9 0 15 0 C15 7.59 15 15.18 15 23 C10.05 23 5.1 23 0 23 C0 15.41 0 7.82 0 0 Z " fill="#000000" transform="translate(31,23)"/>
<path d="M0 0 C4.62 0 9.24 0 14 0 C14 6.93 14 13.86 14 21 C9.38 21 4.76 21 0 21 C0 14.07 0 7.14 0 0 Z " fill="#000000" transform="translate(73,87)"/>
<path d="M0 0 C4.29 0 8.58 0 13 0 C13.33 6.93 13.66 13.86 14 21 C9.38 21 4.76 21 0 21 C0 14.07 0 7.14 0 0 Z " fill="#000000" transform="translate(111,87)"/>
<path d="M0 0 C3.3 0 6.6 0 10 0 C10.73286092 2.93144368 11.16043754 5.16825067 11.31640625 8.109375 C11.37924805 9.24052734 11.37924805 9.24052734 11.44335938 10.39453125 C11.48267578 11.17183594 11.52199219 11.94914062 11.5625 12.75 C11.60568359 13.54277344 11.64886719 14.33554688 11.69335938 15.15234375 C11.79902991 17.10137815 11.89997966 19.05066748 12 21 C8.37 21 4.74 21 1 21 C-0.32719886 14.03220597 -0.08825381 7.07011089 0 0 Z " fill="#000000" transform="translate(141,64)"/>
<path d="M0 0 C1.23556641 0.01740234 1.23556641 0.01740234 2.49609375 0.03515625 C3.32238281 0.04417969 4.14867187 0.05320313 5 0.0625 C5.63808594 0.07410156 6.27617188 0.08570313 6.93359375 0.09765625 C6.96255351 3.22263688 6.98037858 6.34758315 6.99609375 9.47265625 C7.00447266 10.36210938 7.01285156 11.2515625 7.02148438 12.16796875 C7.02470703 13.01875 7.02792969 13.86953125 7.03125 14.74609375 C7.03648682 15.53161621 7.04172363 16.31713867 7.04711914 17.12646484 C6.93359375 19.09765625 6.93359375 19.09765625 5.93359375 21.09765625 C2.63359375 21.09765625 -0.66640625 21.09765625 -4.06640625 21.09765625 C-3.92625943 17.78482395 -3.7795701 14.47251217 -3.62890625 11.16015625 C-3.58958984 10.21462891 -3.55027344 9.26910156 -3.50976562 8.29492188 C-3.46787109 7.39580078 -3.42597656 6.49667969 -3.3828125 5.5703125 C-3.34615479 4.73765869 -3.30949707 3.90500488 -3.27172852 3.04711914 C-2.98654291 0.33938181 -2.7292143 0.12897988 0 0 Z " fill="#000000" transform="translate(49.06640625,63.90234375)"/>
<path d="M0 0 C1.23556641 0.01740234 1.23556641 0.01740234 2.49609375 0.03515625 C3.32238281 0.04417969 4.14867187 0.05320312 5 0.0625 C5.63808594 0.07410156 6.27617187 0.08570312 6.93359375 0.09765625 C7.85451656 4.75302981 8.05565372 9.24451058 7.99609375 13.97265625 C7.99158203 14.66101563 7.98707031 15.349375 7.98242188 16.05859375 C7.97075711 17.7383196 7.95282646 19.418 7.93359375 21.09765625 C4.63359375 21.09765625 1.33359375 21.09765625 -2.06640625 21.09765625 C-2.26019192 17.78541201 -2.4467313 14.47304137 -2.62890625 11.16015625 C-2.68498047 10.21462891 -2.74105469 9.26910156 -2.79882812 8.29492188 C-2.84716797 7.39580078 -2.89550781 6.49667969 -2.9453125 5.5703125 C-2.99244385 4.73765869 -3.0395752 3.90500488 -3.08813477 3.04711914 C-3.05761141 0.30859097 -2.72339538 0.12870489 0 0 Z " fill="#000000" transform="translate(147.06640625,109.90234375)"/>
<path d="M0 0 C2.97 0 5.94 0 9 0 C8.67 6.93 8.34 13.86 8 21 C4.7 21 1.4 21 -2 21 C-1.85956931 17.87467015 -1.71290594 14.74985182 -1.5625 11.625 C-1.52318359 10.73554687 -1.48386719 9.84609375 -1.44335938 8.9296875 C-1.40146484 8.07890625 -1.35957031 7.228125 -1.31640625 6.3515625 C-1.27974854 5.56604004 -1.24309082 4.78051758 -1.20532227 3.97119141 C-1 2 -1 2 0 0 Z " fill="#000000" transform="translate(44,110)"/>
</svg>
