<svg id="svg" version="1.1" xmlns="http://www.w3.org/2000/svg" xmlns:xlink="http://www.w3.org/1999/xlink" width="400" height="400" viewBox="0, 0, 400,400"><g id="svgg"><path id="path0" d="M237.720 21.966 C 215.725 22.147,209.126 22.314,208.740 22.700 C 208.340 23.100,208.352 23.200,208.800 23.200 C 209.236 23.200,209.253 23.307,208.880 23.680 C 208.511 24.049,208.400 37.563,208.400 82.072 L 208.400 139.985 207.500 140.180 C 207.005 140.287,191.480 140.451,173.000 140.543 C 154.520 140.636,139.040 140.808,138.600 140.925 C 138.160 141.043,136.315 141.153,134.500 141.169 C 132.685 141.186,131.200 141.335,131.200 141.500 C 131.201 141.846,129.072 141.825,173.876 141.924 L 208.351 142.000 210.200 143.600 L 212.049 145.200 224.124 145.176 C 230.766 145.163,237.010 144.997,238.000 144.807 C 238.990 144.617,241.960 144.018,244.600 143.475 C 253.530 141.640,256.838 141.400,273.200 141.400 C 287.438 141.401,288.621 141.348,288.885 140.707 C 289.070 140.255,289.407 140.104,289.850 140.275 C 290.308 140.450,290.437 140.384,290.245 140.073 C 290.056 139.767,290.176 139.692,290.594 139.853 C 290.944 139.987,291.564 139.794,291.973 139.424 C 292.554 138.899,292.763 138.866,292.927 139.276 C 293.100 139.707,293.142 139.707,293.168 139.276 C 293.186 138.988,293.380 138.864,293.600 139.000 C 293.820 139.136,294.000 139.098,294.000 138.915 C 294.000 138.733,294.799 138.147,295.775 137.613 C 296.752 137.080,297.461 136.499,297.352 136.322 C 297.242 136.145,297.343 136.000,297.576 136.000 C 297.809 136.000,298.000 136.180,298.000 136.400 C 298.000 136.620,298.331 136.485,298.737 136.100 C 299.142 135.715,299.409 135.277,299.330 135.128 C 299.251 134.978,299.398 134.725,299.655 134.566 C 299.965 134.375,300.016 134.451,299.806 134.790 C 299.593 135.135,299.672 135.237,300.044 135.102 C 300.350 134.991,300.545 134.667,300.477 134.382 C 300.377 133.959,300.469 133.959,300.977 134.381 C 301.405 134.736,301.616 134.757,301.650 134.449 C 301.767 133.400,301.818 133.251,302.164 132.933 C 302.376 132.740,302.408 132.810,302.241 133.100 C 302.063 133.409,302.191 133.600,302.576 133.600 C 302.919 133.600,303.200 133.420,303.200 133.200 C 303.200 132.980,303.500 132.800,303.867 132.800 C 304.233 132.800,304.414 132.681,304.269 132.536 C 304.124 132.391,304.367 132.018,304.809 131.709 C 305.252 131.399,305.510 130.978,305.383 130.773 C 305.256 130.568,305.433 130.378,305.776 130.350 C 306.119 130.322,306.564 130.278,306.764 130.250 C 307.142 130.198,308.589 128.499,308.850 127.800 C 308.933 127.580,309.118 127.439,309.262 127.487 C 309.406 127.535,309.766 127.276,310.062 126.910 C 310.523 126.342,310.514 126.296,310.000 126.592 C 309.618 126.812,309.674 126.625,310.153 126.078 C 310.568 125.606,311.034 125.298,311.190 125.394 C 311.643 125.674,313.265 123.229,312.957 122.730 C 312.785 122.452,312.855 122.387,313.138 122.562 C 313.392 122.719,313.600 122.627,313.600 122.357 C 313.600 122.087,313.711 121.978,313.848 122.114 C 314.208 122.475,315.200 121.368,315.200 120.605 C 315.200 120.246,315.361 120.052,315.558 120.174 C 315.755 120.296,316.019 120.126,316.146 119.798 C 316.272 119.469,316.156 119.197,315.887 119.194 C 315.570 119.190,315.602 119.060,315.981 118.820 C 316.300 118.618,316.717 118.549,316.908 118.667 C 317.098 118.784,317.196 118.551,317.127 118.149 C 317.057 117.747,317.225 117.391,317.500 117.359 C 318.532 117.237,318.585 117.178,318.000 116.800 C 317.494 116.473,317.517 116.411,318.143 116.406 C 318.635 116.402,318.809 116.199,318.657 115.805 C 318.532 115.477,318.625 115.252,318.864 115.305 C 319.104 115.357,319.391 115.150,319.502 114.844 C 319.626 114.504,319.529 114.397,319.252 114.568 C 319.003 114.722,318.800 114.659,318.800 114.428 C 318.800 114.198,319.205 114.052,319.700 114.105 C 320.244 114.162,320.560 114.002,320.500 113.700 C 320.445 113.425,320.557 113.200,320.748 113.200 C 320.939 113.200,321.095 112.885,321.093 112.500 C 321.088 111.098,321.211 110.800,321.800 110.800 C 322.337 110.800,322.473 110.547,322.366 109.745 C 322.347 109.604,322.572 109.337,322.866 109.151 C 323.264 108.899,323.202 108.811,322.624 108.806 C 321.874 108.800,321.873 108.781,322.585 108.261 C 323.000 107.957,323.195 107.516,323.031 107.251 C 322.871 106.992,322.889 106.806,323.070 106.837 C 323.925 106.986,324.356 106.750,324.160 106.240 C 324.042 105.933,324.130 105.567,324.355 105.428 C 324.581 105.288,324.664 104.910,324.540 104.587 C 324.416 104.264,324.520 104.000,324.771 104.000 C 325.113 104.000,325.114 103.786,324.774 103.152 C 324.524 102.685,324.498 102.413,324.715 102.547 C 325.096 102.783,325.896 102.113,325.966 101.500 C 325.985 101.335,326.010 101.155,326.023 101.100 C 326.036 101.045,326.129 100.190,326.230 99.200 C 326.332 98.210,326.581 97.343,326.785 97.274 C 326.989 97.205,327.056 96.890,326.935 96.574 C 326.814 96.258,326.924 96.000,327.181 96.000 C 327.437 96.000,327.536 95.820,327.400 95.600 C 327.264 95.380,327.283 94.990,327.442 94.732 C 328.517 92.993,328.391 72.362,327.302 71.649 C 327.092 71.512,326.954 70.987,326.995 70.483 C 327.036 69.979,326.918 69.473,326.734 69.359 C 326.550 69.246,326.400 68.724,326.400 68.200 C 326.400 67.676,326.201 67.124,325.957 66.974 C 325.648 66.782,325.678 66.585,326.057 66.320 C 326.479 66.024,326.489 65.894,326.100 65.736 C 325.825 65.625,325.600 65.287,325.600 64.987 C 325.600 64.686,325.307 64.276,324.949 64.075 C 324.482 63.814,324.431 63.628,324.768 63.420 C 325.100 63.215,325.115 62.980,324.820 62.624 C 324.589 62.346,324.361 61.642,324.313 61.060 C 324.254 60.343,323.995 60.000,323.513 60.000 C 323.121 60.000,322.800 59.826,322.800 59.613 C 322.800 59.399,323.115 59.326,323.500 59.450 C 324.086 59.639,324.103 59.607,323.602 59.254 C 323.273 59.022,322.966 58.341,322.920 57.742 C 322.874 57.143,322.555 56.494,322.210 56.302 C 321.865 56.109,321.700 55.763,321.842 55.533 C 322.011 55.259,321.771 55.213,321.150 55.399 C 320.216 55.678,320.214 55.671,321.000 55.021 C 321.784 54.372,321.780 54.364,320.800 54.621 C 319.827 54.876,319.822 54.866,320.600 54.254 C 321.090 53.869,321.197 53.621,320.876 53.613 C 320.588 53.606,320.464 53.420,320.600 53.200 C 320.736 52.980,320.466 52.800,320.000 52.800 C 319.534 52.800,319.254 52.636,319.378 52.436 C 319.699 51.916,319.200 50.800,318.646 50.800 C 318.389 50.800,317.870 50.440,317.493 50.000 C 317.116 49.560,316.986 49.200,317.204 49.200 C 317.422 49.200,317.600 49.020,317.600 48.800 C 317.600 48.580,317.375 48.445,317.100 48.500 C 316.825 48.555,316.647 48.309,316.705 47.953 C 316.763 47.598,316.504 47.058,316.128 46.753 C 315.546 46.281,315.496 46.282,315.785 46.762 C 316.008 47.132,315.974 47.231,315.686 47.053 C 315.446 46.905,315.321 46.410,315.409 45.955 C 315.518 45.388,315.399 45.191,315.033 45.332 C 314.405 45.573,313.600 44.876,313.600 44.091 C 313.600 43.438,312.589 42.344,312.275 42.658 C 312.154 42.779,312.150 43.176,312.265 43.539 C 312.436 44.076,312.400 44.094,312.073 43.634 C 311.852 43.323,311.734 42.742,311.811 42.343 C 311.888 41.943,311.754 41.495,311.514 41.347 C 311.251 41.185,311.191 41.261,311.362 41.538 C 311.527 41.806,311.404 42.000,311.066 42.000 C 310.747 42.000,310.376 41.715,310.243 41.367 C 309.891 40.451,309.939 40.318,310.500 40.641 C 310.775 40.799,310.564 40.450,310.030 39.865 C 309.051 38.790,308.544 38.463,309.000 39.200 C 309.391 39.833,308.552 39.665,308.000 39.000 C 307.726 38.670,307.674 38.400,307.884 38.400 C 308.095 38.400,308.267 38.156,308.267 37.858 C 308.267 37.559,307.941 37.334,307.543 37.358 C 307.145 37.381,306.797 37.220,306.770 37.000 C 306.644 35.974,305.926 35.163,305.472 35.534 C 305.041 35.886,303.967 35.214,303.992 34.608 C 304.033 33.589,303.975 33.523,303.436 33.970 C 303.003 34.329,302.802 34.326,302.574 33.958 C 302.373 33.632,302.446 33.581,302.800 33.800 C 303.151 34.017,303.227 33.968,303.032 33.651 C 302.871 33.391,302.459 33.229,302.115 33.289 C 301.764 33.352,301.440 33.078,301.375 32.663 C 301.241 31.806,300.800 31.247,300.800 31.933 C 300.800 32.190,300.609 32.400,300.376 32.400 C 300.143 32.400,300.064 32.220,300.200 32.000 C 300.416 31.651,299.933 31.438,299.147 31.537 C 299.008 31.554,298.918 31.351,298.947 31.084 C 298.976 30.818,298.858 30.568,298.684 30.529 C 298.510 30.490,297.398 29.911,296.213 29.242 C 294.713 28.395,293.998 28.174,293.861 28.513 C 293.752 28.781,293.646 28.550,293.625 28.000 C 293.599 27.294,293.488 27.157,293.250 27.534 C 292.981 27.958,292.858 27.928,292.651 27.388 C 292.438 26.832,292.282 26.800,291.786 27.212 C 291.283 27.629,291.224 27.604,291.434 27.057 C 291.618 26.576,291.460 26.400,290.843 26.400 C 290.379 26.400,290.000 26.238,290.000 26.041 C 290.000 25.843,289.297 25.708,288.438 25.741 C 287.579 25.773,286.960 25.664,287.063 25.497 C 287.166 25.331,286.924 25.074,286.525 24.926 C 286.126 24.779,285.668 24.465,285.506 24.229 C 285.312 23.946,285.210 23.980,285.206 24.329 C 285.202 24.715,285.023 24.681,284.542 24.199 C 284.061 23.718,283.805 23.668,283.592 24.013 C 283.409 24.310,283.209 24.338,283.055 24.089 C 282.920 23.871,281.994 23.570,280.997 23.420 C 280.000 23.271,279.287 22.982,279.413 22.779 C 279.539 22.576,279.371 22.513,279.040 22.640 C 278.709 22.767,278.205 22.724,277.919 22.545 C 277.634 22.366,276.860 22.190,276.200 22.155 C 269.582 21.801,262.218 21.765,237.720 21.966 M128.929 141.463 C 129.271 141.804,130.800 141.939,130.800 141.627 C 130.800 141.447,130.343 141.300,129.783 141.300 C 129.224 141.300,128.840 141.373,128.929 141.463 " stroke="none" fill="#fc7344" fill-rule="evenodd"></path><path id="path1" d="M258.000 141.406 C 257.670 141.478,255.690 141.745,253.600 142.000 C 248.669 142.600,241.458 143.913,240.305 144.420 C 239.520 144.766,239.559 144.786,240.600 144.575 C 250.594 142.549,257.215 142.045,275.000 141.956 C 281.820 141.922,286.770 141.771,286.000 141.620 C 284.614 141.348,259.155 141.153,258.000 141.406 M237.200 145.165 C 237.200 145.571,238.223 145.511,238.655 145.078 C 238.808 144.925,238.543 144.800,238.067 144.800 C 237.590 144.800,237.200 144.964,237.200 145.165 M128.400 258.500 C 128.400 258.665,128.055 258.800,127.633 258.800 C 126.758 258.800,122.950 260.604,121.900 261.516 C 121.515 261.850,121.200 261.995,121.200 261.836 C 121.200 261.233,114.450 265.423,111.400 267.919 C 109.406 269.551,105.940 272.800,106.192 272.800 C 106.322 272.800,105.797 273.354,105.027 274.030 C 103.671 275.220,99.397 280.400,99.771 280.400 C 99.872 280.400,99.425 280.980,98.777 281.689 C 97.709 282.859,97.419 283.402,97.700 283.709 C 97.755 283.770,97.378 284.265,96.862 284.809 C 95.738 285.995,95.094 287.505,95.459 288.095 C 95.611 288.342,95.536 288.408,95.282 288.251 C 95.039 288.100,94.645 288.343,94.406 288.789 C 94.167 289.235,94.113 289.603,94.286 289.606 C 94.459 289.609,94.366 289.761,94.080 289.942 C 93.794 290.124,93.531 290.656,93.496 291.126 C 93.460 291.595,93.181 292.075,92.874 292.193 C 92.568 292.311,92.420 292.675,92.546 293.003 C 92.672 293.332,92.581 293.600,92.345 293.600 C 92.108 293.600,92.018 293.870,92.145 294.200 C 92.271 294.530,92.223 294.800,92.037 294.800 C 91.720 294.800,91.030 297.047,91.146 297.700 C 91.176 297.865,91.001 298.000,90.757 298.000 C 90.514 298.000,90.418 298.270,90.545 298.600 C 90.671 298.930,90.598 299.200,90.381 299.200 C 90.165 299.200,90.016 299.695,90.050 300.300 C 90.126 301.622,89.920 302.512,89.461 302.848 C 89.274 302.984,89.094 303.569,89.061 304.147 C 89.027 304.726,88.870 305.200,88.711 305.200 C 88.387 305.200,88.335 306.779,88.335 316.600 C 88.335 326.746,88.386 328.000,88.798 328.000 C 89.005 328.000,89.076 328.257,88.955 328.572 C 88.835 328.887,89.061 329.829,89.458 330.666 C 89.855 331.503,90.127 332.595,90.061 333.094 C 89.996 333.592,90.130 334.000,90.359 334.000 C 90.588 334.000,90.671 334.270,90.545 334.600 C 90.418 334.930,90.524 335.200,90.781 335.200 C 91.037 335.200,91.136 335.380,91.000 335.600 C 90.864 335.820,90.938 336.000,91.164 336.000 C 91.390 336.000,91.471 336.270,91.345 336.600 C 91.218 336.930,91.294 337.200,91.513 337.200 C 91.732 337.200,91.903 337.425,91.893 337.700 C 91.833 339.297,92.037 340.025,92.468 339.758 C 92.785 339.562,92.852 339.689,92.675 340.150 C 92.516 340.564,92.636 340.916,92.981 341.048 C 93.294 341.168,93.452 341.521,93.332 341.833 C 93.212 342.145,93.324 342.400,93.581 342.400 C 93.837 342.400,93.935 342.581,93.798 342.803 C 93.661 343.024,93.921 343.727,94.375 344.364 C 94.829 345.002,95.200 345.721,95.200 345.962 C 95.200 346.203,95.391 346.400,95.624 346.400 C 95.857 346.400,95.935 346.581,95.798 346.803 C 95.661 347.024,95.830 347.313,96.172 347.445 C 96.515 347.576,96.700 347.838,96.583 348.027 C 96.466 348.216,96.737 348.737,97.185 349.185 C 97.633 349.633,97.865 350.006,97.700 350.013 C 97.535 350.020,97.749 350.290,98.176 350.613 C 98.604 350.936,98.784 351.206,98.576 351.213 C 98.369 351.220,98.549 351.490,98.976 351.813 C 99.404 352.136,99.584 352.401,99.376 352.402 C 99.169 352.403,99.540 352.866,100.200 353.431 C 100.860 353.996,101.144 354.325,100.832 354.163 C 100.470 353.975,100.543 354.241,101.032 354.893 C 101.454 355.456,101.935 355.835,102.100 355.735 C 102.265 355.635,102.400 355.754,102.400 356.000 C 102.400 356.763,105.313 359.976,105.769 359.717 C 106.006 359.582,106.063 359.622,105.896 359.806 C 105.526 360.214,107.132 362.000,107.870 362.000 C 108.161 362.000,108.355 362.153,108.300 362.339 C 108.106 362.998,115.289 368.578,115.745 368.122 C 115.885 367.981,116.000 368.056,116.000 368.287 C 116.000 368.788,117.958 370.133,118.688 370.133 C 118.969 370.133,119.109 370.224,118.999 370.335 C 118.704 370.629,126.469 374.405,126.865 374.160 C 127.049 374.046,127.200 374.115,127.200 374.313 C 127.200 374.695,130.254 375.806,131.100 375.733 C 131.375 375.709,131.600 375.860,131.600 376.070 C 131.600 376.279,131.915 376.411,132.300 376.364 C 132.685 376.316,133.270 376.367,133.600 376.478 C 136.376 377.407,136.960 377.548,137.259 377.364 C 137.446 377.248,137.600 377.366,137.600 377.626 C 137.600 377.935,138.002 378.020,138.753 377.869 C 139.387 377.743,140.029 377.763,140.181 377.914 C 140.552 378.285,159.621 378.289,159.850 377.919 C 159.950 377.758,160.564 377.733,161.216 377.863 C 161.995 378.019,162.400 377.938,162.400 377.626 C 162.400 377.366,162.554 377.248,162.741 377.364 C 163.040 377.548,163.624 377.407,166.400 376.478 C 166.730 376.367,167.315 376.316,167.700 376.364 C 168.085 376.411,168.400 376.279,168.400 376.070 C 168.400 375.860,168.625 375.709,168.900 375.733 C 169.746 375.806,172.800 374.695,172.800 374.313 C 172.800 374.115,172.964 374.054,173.165 374.178 C 173.557 374.421,176.010 373.258,176.494 372.600 C 176.655 372.380,176.791 372.338,176.794 372.507 C 176.803 372.977,180.800 370.845,180.800 370.370 C 180.800 370.140,180.980 370.064,181.200 370.200 C 181.420 370.336,181.600 370.246,181.600 370.000 C 181.600 369.754,181.759 369.651,181.953 369.771 C 182.296 369.983,184.301 368.648,184.894 367.814 C 185.082 367.549,185.195 367.544,185.208 367.800 C 185.220 368.020,185.692 367.660,186.258 367.000 C 186.825 366.340,187.151 366.052,186.983 366.361 C 186.815 366.669,187.875 365.962,189.339 364.789 C 191.758 362.850,192.725 361.905,191.538 362.638 C 191.250 362.816,191.185 362.748,191.366 362.455 C 191.525 362.198,191.795 362.073,191.966 362.179 C 192.425 362.463,194.464 360.203,194.106 359.808 C 193.938 359.623,194.005 359.589,194.255 359.731 C 194.505 359.874,194.955 359.689,195.255 359.319 C 195.723 358.741,195.715 358.691,195.200 358.964 C 194.870 359.138,195.185 358.800,195.900 358.212 C 196.615 357.623,197.200 356.943,197.200 356.700 C 197.200 356.457,197.785 355.738,198.500 355.102 C 199.215 354.466,199.530 354.063,199.200 354.207 C 198.870 354.351,198.995 354.139,199.479 353.735 C 200.759 352.665,203.599 348.322,203.317 347.866 C 203.184 347.650,203.283 347.604,203.538 347.762 C 203.947 348.014,204.076 347.768,203.966 346.945 C 203.947 346.804,204.082 346.579,204.266 346.445 C 204.871 346.002,205.984 343.718,205.723 343.456 C 205.582 343.315,205.687 343.200,205.957 343.200 C 206.227 343.200,206.336 343.020,206.200 342.800 C 206.064 342.580,206.163 342.400,206.419 342.400 C 206.676 342.400,206.788 342.145,206.668 341.833 C 206.548 341.521,206.706 341.168,207.019 341.048 C 207.364 340.916,207.484 340.564,207.325 340.150 C 207.134 339.652,207.207 339.557,207.595 339.797 C 207.993 340.043,208.070 339.910,207.900 339.263 C 207.776 338.788,207.857 338.400,208.080 338.400 C 208.303 338.400,208.382 338.130,208.255 337.800 C 208.129 337.470,208.160 337.200,208.325 337.200 C 208.738 337.200,209.624 334.763,209.364 334.341 C 209.248 334.154,209.356 334.000,209.605 334.000 C 209.854 334.000,210.004 333.592,209.939 333.094 C 209.873 332.595,210.145 331.503,210.542 330.666 C 210.939 329.829,211.165 328.887,211.045 328.572 C 210.924 328.257,211.008 328.000,211.231 328.000 C 211.455 328.000,211.645 327.055,211.654 325.900 C 211.923 291.911,211.937 258.977,211.683 258.723 C 211.270 258.310,128.400 258.088,128.400 258.500 " stroke="none" fill="#64bc6c" fill-rule="evenodd"></path><path id="path2" d="M142.400 21.595 C 138.248 21.859,136.444 22.255,130.200 24.272 C 115.855 28.907,101.688 40.863,95.211 53.800 C 94.771 54.680,94.241 55.670,94.033 56.000 C 93.451 56.928,92.132 60.032,91.596 61.739 C 91.330 62.585,90.863 63.755,90.559 64.339 C 90.254 64.922,90.004 65.809,90.002 66.310 C 90.001 66.810,89.620 68.250,89.155 69.510 C 86.638 76.334,87.760 93.763,91.414 104.600 C 96.141 118.620,108.309 132.066,122.900 139.396 C 125.045 140.474,126.800 141.481,126.800 141.635 C 126.800 141.789,127.250 141.889,127.800 141.858 C 128.350 141.826,128.800 141.696,128.800 141.570 C 128.800 141.443,130.769 141.300,133.176 141.251 C 135.582 141.203,137.967 141.058,138.476 140.929 C 138.984 140.800,154.520 140.622,173.000 140.535 C 191.480 140.447,207.005 140.287,207.500 140.180 L 208.400 139.985 208.400 82.016 C 208.400 40.074,208.522 23.972,208.843 23.774 C 209.153 23.582,209.127 23.402,208.756 23.173 C 207.145 22.177,211.429 21.998,237.926 21.953 C 253.037 21.928,266.570 21.775,268.000 21.614 C 271.254 21.248,148.144 21.229,142.400 21.595 M274.200 22.035 C 275.300 22.222,276.500 22.284,276.866 22.172 C 277.233 22.059,277.641 22.143,277.773 22.357 C 277.905 22.571,279.046 22.968,280.307 23.239 C 281.568 23.510,282.807 23.890,283.061 24.083 C 283.342 24.297,283.583 24.250,283.679 23.963 C 283.785 23.644,284.055 23.712,284.518 24.175 C 285.008 24.665,285.202 24.708,285.206 24.329 C 285.210 23.980,285.312 23.946,285.506 24.229 C 285.668 24.465,286.126 24.779,286.525 24.926 C 286.924 25.074,287.166 25.331,287.063 25.497 C 286.960 25.664,287.579 25.773,288.438 25.741 C 289.297 25.708,290.000 25.843,290.000 26.041 C 290.000 26.238,290.379 26.400,290.843 26.400 C 291.460 26.400,291.618 26.576,291.434 27.057 C 291.224 27.604,291.283 27.629,291.786 27.212 C 292.282 26.800,292.438 26.832,292.651 27.388 C 292.858 27.928,292.981 27.958,293.250 27.534 C 293.487 27.159,293.591 27.299,293.600 28.000 C 293.607 28.594,293.733 28.810,293.910 28.532 C 294.210 28.060,297.416 29.641,297.129 30.119 C 297.058 30.237,297.164 30.483,297.364 30.667 C 297.580 30.864,297.594 30.769,297.399 30.432 C 297.149 30.003,297.240 29.930,297.768 30.132 C 298.215 30.304,298.411 30.232,298.311 29.932 C 297.947 28.841,288.886 24.771,283.800 23.414 C 282.700 23.121,280.727 22.592,279.416 22.240 C 278.105 21.888,275.945 21.621,274.616 21.647 L 272.200 21.694 274.200 22.035 M298.971 30.805 C 298.971 31.211,299.068 31.534,299.186 31.524 C 299.977 31.455,300.411 31.659,300.200 32.000 C 300.064 32.220,300.124 32.400,300.334 32.400 C 301.291 32.400,301.108 31.173,300.072 30.637 C 299.063 30.116,298.971 30.130,298.971 30.805 M301.350 32.500 C 301.442 33.077,301.731 33.357,302.153 33.281 C 302.516 33.216,302.788 33.306,302.759 33.481 C 302.625 34.279,302.847 34.459,303.400 34.000 C 303.815 33.656,304.000 33.641,304.000 33.951 C 304.000 35.189,304.818 36.068,305.472 35.534 C 305.914 35.173,306.404 35.692,306.861 37.000 C 306.937 37.220,307.118 37.361,307.262 37.313 C 307.406 37.265,307.743 37.490,308.011 37.813 C 308.395 38.276,308.392 38.400,308.000 38.400 C 307.603 38.400,307.603 38.521,308.000 39.000 C 308.601 39.724,309.365 39.804,308.959 39.100 C 308.801 38.825,309.150 39.036,309.735 39.570 C 310.849 40.584,311.131 41.052,310.332 40.558 C 310.013 40.361,309.949 40.491,310.132 40.967 C 310.279 41.351,310.400 41.741,310.400 41.833 C 310.400 41.925,310.681 42.000,311.024 42.000 C 311.393 42.000,311.531 41.812,311.362 41.538 C 311.191 41.261,311.251 41.185,311.514 41.347 C 311.754 41.495,311.888 41.943,311.811 42.343 C 311.734 42.742,311.852 43.323,312.073 43.634 C 312.400 44.094,312.436 44.076,312.265 43.539 C 312.150 43.176,312.154 42.779,312.275 42.658 C 312.589 42.344,313.600 43.438,313.600 44.091 C 313.600 44.858,314.399 45.575,314.999 45.345 C 315.318 45.223,315.482 45.487,315.450 46.074 C 315.419 46.648,315.627 46.997,316.000 46.999 C 316.330 47.001,316.608 47.362,316.619 47.801 C 316.629 48.240,316.854 48.555,317.119 48.500 C 317.383 48.445,317.600 48.580,317.600 48.800 C 317.600 49.020,317.422 49.200,317.204 49.200 C 316.986 49.200,317.116 49.560,317.493 50.000 C 317.870 50.440,318.408 50.800,318.689 50.800 C 319.242 50.800,319.389 51.428,318.900 51.701 C 318.735 51.793,318.845 51.806,319.145 51.730 C 319.490 51.642,319.604 51.812,319.457 52.195 C 319.297 52.612,319.477 52.800,320.036 52.800 C 320.482 52.800,320.736 52.980,320.600 53.200 C 320.464 53.420,320.588 53.606,320.876 53.613 C 321.197 53.621,321.090 53.869,320.600 54.254 C 319.822 54.866,319.827 54.876,320.800 54.621 C 321.780 54.364,321.784 54.372,321.000 55.021 C 320.214 55.671,320.216 55.678,321.150 55.399 C 321.771 55.213,322.011 55.259,321.842 55.533 C 321.700 55.763,321.885 56.120,322.253 56.326 C 322.711 56.582,322.923 57.223,322.923 58.350 C 322.923 59.608,323.078 60.000,323.574 60.000 C 323.990 60.000,324.257 60.383,324.313 61.060 C 324.361 61.642,324.589 62.346,324.820 62.624 C 325.115 62.980,325.100 63.215,324.768 63.420 C 324.431 63.628,324.482 63.814,324.949 64.075 C 325.307 64.276,325.600 64.701,325.600 65.020 C 325.600 65.339,325.799 65.600,326.043 65.600 C 326.301 65.600,326.373 65.308,326.215 64.900 C 326.066 64.515,325.591 63.153,325.159 61.873 C 324.727 60.594,324.213 59.244,324.018 58.873 C 323.822 58.503,322.991 56.850,322.172 55.200 C 319.408 49.635,312.396 40.131,311.451 40.671 C 311.203 40.812,311.138 40.777,311.306 40.592 C 311.708 40.149,309.596 37.955,309.077 38.276 C 308.857 38.412,308.790 38.340,308.928 38.116 C 309.172 37.722,307.144 35.837,303.402 32.981 C 301.266 31.351,301.161 31.326,301.350 32.500 M326.057 66.360 C 325.679 66.597,325.649 66.783,325.957 66.974 C 326.201 67.124,326.400 67.676,326.400 68.200 C 326.400 68.724,326.550 69.246,326.734 69.359 C 326.918 69.473,327.039 69.977,327.002 70.479 C 326.965 70.981,327.180 71.637,327.481 71.938 C 327.781 72.238,327.933 72.781,327.818 73.144 C 327.703 73.507,327.781 74.613,327.993 75.602 C 328.329 77.176,328.359 76.994,328.230 74.147 C 328.148 72.358,327.803 70.288,327.462 69.547 C 327.121 68.806,326.787 67.710,326.721 67.110 C 326.632 66.307,326.457 66.110,326.057 66.360 M328.544 83.200 C 328.544 85.290,328.612 86.145,328.694 85.100 C 328.776 84.055,328.776 82.345,328.694 81.300 C 328.612 80.255,328.544 81.110,328.544 83.200 M327.876 91.299 C 327.697 92.343,327.668 93.386,327.810 93.616 C 327.952 93.847,327.858 94.289,327.600 94.600 C 327.342 94.911,327.247 95.353,327.389 95.582 C 327.531 95.812,327.437 96.000,327.181 96.000 C 326.924 96.000,326.814 96.258,326.935 96.574 C 327.056 96.890,326.989 97.205,326.785 97.274 C 326.581 97.343,326.349 98.138,326.268 99.040 C 326.187 99.942,325.993 100.887,325.837 101.140 C 325.681 101.393,325.675 101.600,325.825 101.600 C 325.975 101.600,325.876 101.868,325.604 102.196 C 325.332 102.523,324.932 102.681,324.715 102.547 C 324.498 102.413,324.524 102.685,324.774 103.152 C 325.114 103.786,325.113 104.000,324.771 104.000 C 324.520 104.000,324.416 104.264,324.540 104.587 C 324.664 104.910,324.581 105.288,324.355 105.428 C 324.130 105.567,324.042 105.933,324.160 106.240 C 324.356 106.750,323.925 106.986,323.070 106.837 C 322.889 106.806,322.871 106.992,323.031 107.251 C 323.195 107.516,323.000 107.957,322.585 108.261 C 321.873 108.781,321.874 108.800,322.624 108.806 C 323.202 108.811,323.264 108.899,322.866 109.151 C 322.572 109.337,322.347 109.604,322.366 109.745 C 322.473 110.547,322.337 110.800,321.800 110.800 C 321.211 110.800,321.088 111.098,321.093 112.500 C 321.095 112.885,320.939 113.200,320.748 113.200 C 320.557 113.200,320.445 113.425,320.500 113.700 C 320.560 114.002,320.244 114.162,319.700 114.105 C 319.205 114.052,318.800 114.198,318.800 114.428 C 318.800 114.659,319.003 114.722,319.252 114.568 C 319.529 114.397,319.626 114.504,319.502 114.844 C 319.391 115.150,319.104 115.357,318.864 115.305 C 318.625 115.252,318.532 115.477,318.657 115.805 C 318.809 116.199,318.635 116.402,318.143 116.406 C 317.517 116.411,317.494 116.473,318.000 116.800 C 318.585 117.178,318.532 117.237,317.500 117.359 C 317.225 117.391,317.057 117.747,317.127 118.149 C 317.196 118.551,317.098 118.784,316.908 118.667 C 316.717 118.549,316.300 118.618,315.981 118.820 C 315.602 119.060,315.570 119.190,315.887 119.194 C 316.156 119.197,316.272 119.469,316.146 119.798 C 316.019 120.126,315.755 120.296,315.558 120.174 C 315.361 120.052,315.200 120.246,315.200 120.605 C 315.200 121.368,314.208 122.475,313.848 122.114 C 313.711 121.978,313.600 122.087,313.600 122.357 C 313.600 122.627,313.392 122.719,313.138 122.562 C 312.855 122.387,312.785 122.452,312.957 122.730 C 313.265 123.229,311.643 125.674,311.190 125.394 C 311.034 125.298,310.568 125.606,310.153 126.078 C 309.674 126.625,309.618 126.812,310.000 126.592 C 310.514 126.296,310.523 126.342,310.062 126.910 C 309.766 127.276,309.324 127.535,309.080 127.487 C 308.836 127.439,308.627 127.580,308.615 127.800 C 308.585 128.366,307.243 130.207,306.892 130.164 C 306.214 130.079,305.225 130.516,305.411 130.818 C 305.522 130.998,305.252 131.399,304.809 131.709 C 304.367 132.018,304.124 132.391,304.269 132.536 C 304.414 132.681,304.233 132.800,303.867 132.800 C 303.500 132.800,303.200 132.980,303.200 133.200 C 303.200 133.420,302.919 133.600,302.576 133.600 C 302.191 133.600,302.063 133.409,302.241 133.100 C 302.408 132.810,302.376 132.740,302.164 132.933 C 301.818 133.251,301.767 133.400,301.650 134.449 C 301.616 134.757,301.405 134.736,300.977 134.381 C 300.469 133.959,300.377 133.959,300.477 134.382 C 300.545 134.667,300.350 134.991,300.044 135.102 C 299.672 135.237,299.593 135.135,299.806 134.790 C 300.016 134.451,299.965 134.375,299.655 134.566 C 299.398 134.725,299.251 134.978,299.330 135.128 C 299.409 135.277,299.142 135.715,298.737 136.100 C 298.331 136.485,298.000 136.620,298.000 136.400 C 298.000 136.180,297.809 136.000,297.576 136.000 C 297.343 136.000,297.242 136.145,297.352 136.322 C 297.461 136.499,296.752 137.080,295.775 137.613 C 294.799 138.147,294.000 138.733,294.000 138.915 C 294.000 139.098,293.835 139.145,293.634 139.021 C 293.433 138.897,293.177 139.021,293.066 139.298 C 292.918 139.664,292.855 139.648,292.832 139.238 C 292.807 138.801,292.626 138.834,292.015 139.387 C 291.582 139.778,290.944 139.987,290.594 139.853 C 290.176 139.692,290.056 139.767,290.245 140.073 C 290.437 140.384,290.308 140.450,289.850 140.275 C 289.434 140.115,289.084 140.237,288.949 140.588 C 288.627 141.427,289.161 142.130,289.750 141.642 C 290.013 141.423,292.158 140.242,294.517 139.016 C 301.210 135.537,302.934 134.336,309.529 128.563 C 310.260 127.923,312.068 125.960,313.548 124.200 C 315.885 121.420,317.050 119.820,320.395 114.800 C 322.541 111.580,326.800 101.365,326.800 99.440 C 326.800 99.074,327.168 97.681,327.619 96.345 C 328.160 94.739,328.397 93.149,328.319 91.657 L 328.200 89.400 327.876 91.299 M104.575 274.100 L 103.400 275.400 104.798 274.200 C 105.567 273.540,106.272 272.955,106.365 272.900 C 106.457 272.845,106.357 272.800,106.142 272.800 C 105.926 272.800,105.221 273.385,104.575 274.100 M88.093 309.200 C 88.093 309.970,88.175 310.285,88.276 309.900 C 88.376 309.515,88.376 308.885,88.276 308.500 C 88.175 308.115,88.093 308.430,88.093 309.200 M88.093 324.000 C 88.093 324.770,88.175 325.085,88.276 324.700 C 88.376 324.315,88.376 323.685,88.276 323.300 C 88.175 322.915,88.093 323.230,88.093 324.000 M211.693 324.000 C 211.693 324.770,211.775 325.085,211.876 324.700 C 211.976 324.315,211.976 323.685,211.876 323.300 C 211.775 322.915,211.693 323.230,211.693 324.000 M198.006 355.582 C 197.459 356.002,197.114 356.447,197.238 356.571 C 197.362 356.695,197.886 356.348,198.401 355.798 C 199.517 354.611,199.372 354.532,198.006 355.582 M195.800 358.250 C 195.081 358.862,194.934 359.105,195.433 358.857 C 196.166 358.493,197.541 357.176,197.149 357.214 C 197.067 357.222,196.460 357.688,195.800 358.250 M148.100 378.694 C 149.145 378.776,150.855 378.776,151.900 378.694 C 152.945 378.612,152.090 378.544,150.000 378.544 C 147.910 378.544,147.055 378.612,148.100 378.694 " stroke="none" fill="#e44c1c" fill-rule="evenodd"></path><path id="path3" d="M287.948 141.786 C 287.841 141.893,281.644 142.009,274.177 142.044 C 255.879 142.129,252.392 142.384,241.600 144.427 C 240.390 144.656,238.983 145.050,238.474 145.303 C 237.754 145.661,237.477 145.648,237.230 145.248 C 236.989 144.859,236.723 144.962,236.146 145.666 C 235.725 146.180,235.130 146.655,234.823 146.722 C 234.126 146.875,229.019 150.420,227.368 151.898 C 222.922 155.874,222.263 156.494,222.800 156.194 C 223.130 156.010,222.455 156.718,221.300 157.767 C 220.144 158.816,219.300 159.838,219.423 160.037 C 219.546 160.237,219.412 160.407,219.124 160.415 C 218.357 160.437,213.855 166.922,214.298 167.365 C 214.427 167.494,214.323 167.600,214.067 167.600 C 213.810 167.600,213.600 167.771,213.600 167.979 C 213.600 168.188,213.147 168.847,212.594 169.445 C 211.953 170.136,211.672 170.797,211.821 171.265 C 211.949 171.669,211.864 172.000,211.631 172.000 C 211.399 172.000,211.216 172.405,211.224 172.900 C 211.233 173.395,210.861 175.600,210.399 177.800 C 208.468 186.988,207.877 201.596,208.991 212.600 C 209.303 215.680,209.936 220.000,210.399 222.200 C 210.861 224.400,211.233 226.605,211.224 227.100 C 211.216 227.595,211.406 228.000,211.647 228.000 C 211.888 228.000,211.982 228.271,211.855 228.601 C 211.434 229.698,218.340 239.547,221.600 242.500 C 222.590 243.396,223.130 243.980,222.800 243.798 C 222.470 243.615,223.010 244.209,224.000 245.117 C 224.990 246.024,226.025 246.775,226.300 246.784 C 226.575 246.793,226.800 247.005,226.800 247.256 C 226.800 247.774,227.066 247.998,231.206 250.967 C 234.359 253.228,241.829 257.238,244.333 258.014 C 245.140 258.264,246.375 258.727,247.077 259.042 C 248.565 259.710,252.048 260.418,252.493 260.142 C 252.662 260.038,252.800 260.163,252.800 260.419 C 252.800 260.676,253.058 260.786,253.374 260.665 C 253.690 260.544,254.017 260.651,254.101 260.903 C 254.285 261.455,259.257 261.787,266.800 261.751 C 275.987 261.707,277.600 261.627,277.600 261.219 C 277.600 261.003,277.870 260.929,278.201 261.056 C 278.531 261.182,279.525 260.997,280.409 260.643 C 281.293 260.289,282.463 260.000,283.008 260.000 C 283.554 260.000,284.000 259.826,284.000 259.613 C 284.000 259.399,284.270 259.329,284.600 259.455 C 284.930 259.582,285.200 259.492,285.200 259.255 C 285.200 259.019,285.447 258.920,285.748 259.036 C 286.050 259.151,286.547 258.996,286.852 258.691 C 287.157 258.386,287.631 258.210,287.904 258.301 C 288.177 258.392,288.400 258.261,288.400 258.010 C 288.400 257.758,288.569 257.657,288.776 257.785 C 289.239 258.071,293.200 256.385,293.200 255.901 C 293.200 255.710,293.367 255.656,293.572 255.783 C 294.614 256.427,309.137 246.468,308.547 245.514 C 308.440 245.341,308.597 245.200,308.895 245.200 C 309.194 245.200,310.141 244.480,311.000 243.600 C 311.859 242.720,312.412 242.000,312.227 242.000 C 312.043 242.000,312.366 241.627,312.946 241.171 C 313.526 240.715,314.000 240.055,314.000 239.704 C 314.000 239.354,314.119 239.186,314.264 239.331 C 314.558 239.625,315.850 237.974,315.697 237.500 C 315.644 237.335,315.773 237.200,315.985 237.200 C 316.197 237.200,317.104 236.120,318.000 234.800 C 318.896 233.480,319.533 232.400,319.415 232.400 C 319.297 232.400,319.567 232.033,320.015 231.585 C 320.463 231.137,320.705 230.570,320.553 230.324 C 320.394 230.066,320.456 229.987,320.699 230.138 C 320.938 230.285,321.305 229.876,321.540 229.200 C 321.770 228.540,321.833 227.995,321.679 227.988 C 321.526 227.981,321.695 227.803,322.055 227.593 C 322.416 227.382,322.835 226.713,322.987 226.105 C 323.138 225.497,323.491 224.730,323.770 224.400 C 324.250 223.833,325.292 220.564,325.210 219.886 C 325.189 219.713,325.423 219.320,325.730 219.013 C 326.038 218.705,326.412 217.687,326.562 216.750 C 326.711 215.813,327.116 214.183,327.462 213.128 C 327.807 212.072,327.987 210.943,327.862 210.617 C 327.737 210.292,327.807 209.919,328.017 209.789 C 328.528 209.473,328.528 190.527,328.017 190.211 C 327.807 190.081,327.737 189.708,327.862 189.383 C 327.987 189.057,327.807 187.928,327.462 186.872 C 327.116 185.817,326.711 184.187,326.562 183.250 C 326.412 182.313,325.999 181.256,325.645 180.902 C 325.290 180.547,325.056 180.154,325.124 180.029 C 325.596 179.159,321.223 169.335,320.612 169.891 C 320.425 170.061,320.397 169.982,320.550 169.715 C 320.704 169.448,320.463 168.863,320.015 168.415 C 319.567 167.967,319.211 167.503,319.225 167.385 C 319.433 165.582,310.908 155.865,304.800 150.943 C 299.878 146.976,288.785 140.948,287.948 141.786 M147.500 378.296 C 148.875 378.374,151.125 378.374,152.500 378.296 C 153.875 378.218,152.750 378.154,150.000 378.154 C 147.250 378.154,146.125 378.218,147.500 378.296 " stroke="none" fill="#2cb4f4" fill-rule="evenodd"></path><path id="path4" d="M122.000 144.464 C 111.773 149.619,101.799 158.745,97.150 167.200 C 96.847 167.750,96.396 168.470,96.147 168.800 C 95.898 169.130,95.119 170.570,94.415 172.000 C 93.711 173.430,92.952 174.941,92.728 175.358 C 92.277 176.197,90.977 179.824,90.347 182.000 C 90.123 182.770,89.549 184.747,89.070 186.394 C 87.757 190.913,87.757 209.087,89.070 213.606 C 89.549 215.253,90.123 217.230,90.347 218.000 C 90.975 220.172,92.277 223.802,92.727 224.642 C 92.951 225.059,93.619 226.390,94.213 227.600 C 100.032 239.469,109.837 249.332,122.040 255.592 L 127.480 258.383 169.730 258.387 L 211.980 258.392 212.090 244.296 C 212.150 236.543,212.062 229.998,211.893 229.751 C 211.724 229.504,211.699 229.009,211.836 228.651 C 211.973 228.293,211.888 228.000,211.647 228.000 C 211.406 228.000,211.216 227.595,211.224 227.100 C 211.233 226.605,210.861 224.400,210.399 222.200 C 208.468 213.012,207.877 198.404,208.991 187.400 C 209.303 184.320,209.936 180.000,210.399 177.800 C 210.861 175.600,211.233 173.395,211.224 172.900 C 211.216 172.405,211.406 172.000,211.647 172.000 C 211.888 172.000,211.976 171.714,211.841 171.364 C 211.707 171.014,211.703 170.557,211.832 170.349 C 211.960 170.141,212.049 164.442,212.029 157.685 L 211.993 145.400 210.220 143.700 L 208.447 142.000 173.723 141.917 C 154.625 141.871,136.390 141.813,133.200 141.787 L 127.400 141.742 122.000 144.464 M328.534 200.000 C 328.534 201.650,328.605 202.325,328.691 201.500 C 328.778 200.675,328.778 199.325,328.691 198.500 C 328.605 197.675,328.534 198.350,328.534 200.000 M259.100 261.882 C 259.595 261.978,260.405 261.978,260.900 261.882 C 261.395 261.787,260.990 261.709,260.000 261.709 C 259.010 261.709,258.605 261.787,259.100 261.882 M272.300 261.882 C 272.795 261.978,273.605 261.978,274.100 261.882 C 274.595 261.787,274.190 261.709,273.200 261.709 C 272.210 261.709,271.805 261.787,272.300 261.882 " stroke="none" fill="#7c4cfc" fill-rule="evenodd"></path></g></svg>