<svg id="svg" version="1.1" xmlns="http://www.w3.org/2000/svg" xmlns:xlink="http://www.w3.org/1999/xlink" width="400" height="400" viewBox="0, 0, 400,400"><g id="svgg"><path id="path0" d="M162.142 109.100 C 129.811 109.192,125.657 109.274,125.449 109.818 C 125.167 110.550,125.815 125.653,126.382 131.600 C 126.602 133.910,126.969 140.300,127.198 145.800 C 127.426 151.300,127.790 157.600,128.006 159.800 C 128.222 162.000,128.572 168.030,128.784 173.200 C 128.996 178.370,129.361 184.670,129.594 187.200 C 129.828 189.730,130.161 195.136,130.333 199.213 C 130.505 203.291,130.781 206.846,130.947 207.113 C 131.178 207.487,137.244 207.600,157.158 207.600 C 192.794 207.600,235.856 208.063,236.482 208.454 C 237.092 208.834,237.044 215.073,236.374 222.400 C 236.142 224.930,235.721 230.965,235.438 235.811 C 234.768 247.277,235.598 246.106,225.800 249.414 C 222.940 250.380,216.055 252.707,210.500 254.585 C 198.382 258.682,201.038 258.683,189.000 254.575 C 183.500 252.699,176.140 250.195,172.644 249.012 C 164.184 246.148,165.234 248.112,163.978 232.800 C 163.706 229.480,163.313 227.053,162.958 226.500 L 162.382 225.600 147.640 225.600 C 134.995 225.600,132.827 225.686,132.398 226.203 C 131.828 226.890,132.061 233.480,132.992 243.000 C 133.294 246.080,133.650 251.030,133.784 254.000 C 134.354 266.649,134.961 270.082,136.734 270.707 C 139.499 271.680,142.111 272.549,145.600 273.656 C 147.690 274.319,150.030 275.102,150.800 275.394 C 151.570 275.687,159.490 278.305,168.400 281.212 C 177.310 284.118,187.779 287.555,191.664 288.848 C 200.178 291.683,200.558 291.696,207.533 289.403 C 213.326 287.499,228.153 282.619,250.721 275.188 C 259.917 272.160,264.562 270.444,264.808 269.984 C 265.321 269.027,265.903 262.216,266.396 251.400 C 266.626 246.340,266.991 240.310,267.206 238.000 C 267.420 235.690,267.773 229.930,267.989 225.200 C 268.205 220.470,268.644 213.090,268.965 208.800 C 269.781 197.883,270.588 183.236,270.594 179.200 L 270.600 175.800 216.308 175.699 L 162.017 175.597 161.448 174.699 C 160.758 173.608,160.125 168.158,159.602 158.800 C 159.387 154.950,159.011 149.949,158.765 147.687 C 158.256 142.989,158.433 141.787,159.701 141.327 C 160.195 141.147,185.710 141.064,216.400 141.142 C 262.929 141.261,272.313 141.195,272.879 140.742 C 273.624 140.147,274.178 135.928,274.604 127.600 C 274.734 125.070,275.112 120.062,275.445 116.471 C 275.912 111.426,275.942 109.812,275.576 109.371 C 275.076 108.769,276.683 108.773,162.142 109.100 " stroke="none" fill="#f4f3f2" fill-rule="evenodd"></path><path id="path1" d="M58.300 39.762 C 58.423 39.961,58.304 39.988,58.037 39.823 C 57.768 39.657,57.240 39.802,56.858 40.147 C 55.410 41.458,56.087 61.200,57.580 61.200 C 57.701 61.200,57.800 64.575,57.800 68.700 C 57.800 75.906,58.360 80.319,59.208 79.795 C 59.378 79.690,59.625 79.888,59.758 80.235 C 60.128 81.198,60.036 81.468,59.566 80.800 C 58.846 79.774,59.365 95.450,60.115 97.400 C 60.552 98.534,60.797 101.159,60.957 106.407 C 61.105 111.268,61.390 114.498,61.787 115.807 C 62.119 116.903,62.419 119.510,62.452 121.600 C 62.496 124.329,62.587 124.949,62.776 123.800 L 63.038 122.200 63.238 124.200 C 63.348 125.300,63.294 126.260,63.119 126.333 C 62.577 126.560,62.767 132.106,63.400 134.535 C 63.730 135.802,64.027 138.045,64.060 139.520 C 64.117 142.077,64.133 142.117,64.400 140.400 L 64.680 138.600 64.740 140.667 C 64.773 141.804,64.907 143.064,65.038 143.467 C 65.235 144.077,65.203 144.099,64.844 143.600 C 64.272 142.805,64.270 149.870,64.841 152.400 C 65.065 153.390,65.365 155.280,65.509 156.600 C 65.761 158.926,65.776 158.950,65.985 157.400 C 66.103 156.520,66.200 159.310,66.200 163.600 C 66.200 170.952,66.625 174.400,67.531 174.400 C 67.679 174.400,67.800 177.865,67.800 182.100 C 67.800 189.320,68.325 193.537,69.160 193.027 C 69.292 192.946,69.407 196.417,69.416 200.740 C 69.428 206.865,69.575 209.041,70.081 210.600 C 70.536 212.003,70.801 214.840,70.969 220.108 C 71.130 225.122,71.405 228.178,71.799 229.308 C 72.134 230.270,72.414 232.639,72.447 234.800 C 72.486 237.360,72.593 238.143,72.774 237.200 L 73.042 235.800 73.250 237.600 C 73.365 238.590,73.285 239.516,73.074 239.658 C 72.554 240.006,72.940 247.567,73.535 248.678 C 73.791 249.156,74.028 250.954,74.063 252.674 C 74.122 255.601,74.143 255.673,74.400 253.800 L 74.674 251.800 74.743 253.800 C 74.780 254.900,74.902 256.250,75.014 256.800 C 75.190 257.672,75.168 257.697,74.836 257.000 C 74.304 255.880,74.309 263.241,74.841 265.600 C 75.065 266.590,75.365 268.480,75.509 269.800 C 75.761 272.126,75.776 272.150,75.985 270.600 C 76.103 269.720,76.200 272.510,76.200 276.800 C 76.200 284.117,76.721 288.343,77.560 287.825 C 77.692 287.743,77.803 291.214,77.806 295.538 C 77.811 302.957,78.283 306.762,79.132 306.244 C 79.280 306.154,79.413 309.798,79.429 314.340 C 79.468 325.322,81.303 329.493,85.721 328.646 C 86.634 328.471,86.828 328.514,86.400 328.794 C 85.915 329.112,85.976 329.189,86.720 329.194 C 87.226 329.197,88.190 329.485,88.863 329.833 C 89.595 330.211,90.511 330.367,91.143 330.220 C 91.935 330.037,92.050 330.077,91.600 330.382 C 91.125 330.703,91.234 330.789,92.120 330.794 C 92.736 330.797,93.790 331.085,94.463 331.433 C 95.195 331.811,96.111 331.967,96.743 331.820 C 97.535 331.637,97.650 331.677,97.200 331.982 C 96.739 332.293,96.928 332.389,98.011 332.394 C 98.787 332.397,99.833 332.688,100.336 333.040 C 100.839 333.392,101.599 333.589,102.025 333.477 C 102.452 333.366,102.700 333.438,102.577 333.637 C 102.380 333.956,103.537 334.145,105.680 334.142 C 106.054 334.141,106.277 334.276,106.174 334.442 C 105.910 334.869,107.499 335.310,108.058 334.964 C 108.363 334.776,108.415 334.852,108.209 335.185 C 107.969 335.574,108.280 335.657,109.522 335.539 C 110.417 335.454,111.074 335.460,110.981 335.552 C 110.668 335.866,112.942 336.831,113.494 336.619 C 113.795 336.504,113.946 336.563,113.830 336.751 C 113.573 337.168,117.111 337.702,117.703 337.336 C 117.949 337.184,118.005 337.268,117.838 337.539 C 117.435 338.190,119.524 338.911,121.000 338.630 C 121.869 338.464,122.035 338.510,121.600 338.794 C 121.123 339.107,121.207 339.189,122.011 339.194 C 122.567 339.197,123.399 339.464,123.860 339.787 C 124.321 340.110,125.486 340.485,126.449 340.620 C 127.412 340.756,129.082 341.228,130.160 341.670 C 131.260 342.121,132.695 342.406,133.432 342.320 C 134.153 342.236,134.672 342.283,134.584 342.425 C 134.303 342.881,136.463 343.633,137.346 343.386 C 138.025 343.197,138.077 343.234,137.600 343.568 C 137.028 343.968,138.044 344.146,140.880 344.142 C 141.254 344.141,141.468 344.289,141.356 344.471 C 141.082 344.914,142.961 345.600,144.450 345.600 C 145.253 345.600,145.553 345.448,145.362 345.138 C 145.179 344.843,145.253 344.785,145.565 344.978 C 145.833 345.144,145.952 345.381,145.828 345.505 C 145.497 345.836,148.729 347.200,149.844 347.200 C 150.370 347.200,150.800 347.009,150.800 346.776 C 150.800 346.543,150.983 346.466,151.207 346.604 C 151.430 346.742,151.509 347.023,151.383 347.228 C 151.256 347.432,151.440 347.600,151.790 347.600 C 152.141 347.600,152.874 347.892,153.419 348.249 C 154.087 348.687,154.831 348.817,155.705 348.650 C 156.626 348.473,156.827 348.515,156.400 348.794 C 155.915 349.112,155.976 349.189,156.720 349.194 C 157.226 349.197,158.190 349.485,158.863 349.833 C 159.595 350.211,160.511 350.367,161.143 350.220 C 161.935 350.037,162.050 350.077,161.600 350.382 C 161.125 350.703,161.234 350.789,162.120 350.794 C 162.736 350.797,163.790 351.085,164.463 351.433 C 165.195 351.811,166.111 351.967,166.743 351.820 C 167.535 351.637,167.650 351.677,167.200 351.982 C 166.739 352.293,166.928 352.389,168.011 352.394 C 168.787 352.397,169.833 352.688,170.336 353.040 C 170.839 353.392,171.599 353.589,172.025 353.477 C 172.452 353.366,172.700 353.438,172.577 353.637 C 172.380 353.956,173.537 354.145,175.680 354.142 C 176.054 354.141,176.277 354.276,176.174 354.442 C 175.910 354.869,177.499 355.310,178.058 354.964 C 178.363 354.776,178.415 354.852,178.209 355.185 C 177.969 355.574,178.280 355.657,179.522 355.539 C 180.417 355.454,181.074 355.460,180.981 355.552 C 180.668 355.866,182.942 356.831,183.494 356.619 C 183.795 356.504,183.946 356.563,183.830 356.751 C 183.573 357.168,187.111 357.702,187.703 357.336 C 187.949 357.184,188.005 357.268,187.838 357.539 C 187.435 358.190,189.524 358.911,191.000 358.630 C 191.869 358.464,192.035 358.510,191.600 358.794 C 191.123 359.107,191.207 359.189,192.011 359.194 C 192.567 359.197,193.432 359.487,193.933 359.838 C 194.517 360.247,195.231 360.386,195.922 360.226 C 196.726 360.039,196.847 360.079,196.400 360.382 C 195.976 360.669,197.031 360.788,200.000 360.788 C 202.969 360.788,204.024 360.669,203.600 360.382 C 203.153 360.079,203.274 360.039,204.078 360.226 C 204.769 360.386,205.483 360.247,206.067 359.838 C 206.568 359.487,207.523 359.197,208.189 359.194 C 209.148 359.189,209.275 359.101,208.800 358.770 C 208.355 358.459,208.539 358.418,209.516 358.611 C 210.378 358.781,211.138 358.671,211.716 358.294 C 212.202 357.977,213.680 357.526,215.000 357.292 C 217.451 356.858,219.769 355.902,219.361 355.494 C 219.236 355.369,219.896 355.370,220.828 355.495 C 221.884 355.636,222.431 355.575,222.281 355.331 C 222.148 355.116,222.436 354.954,222.920 354.970 C 223.404 354.987,223.766 354.807,223.724 354.571 C 223.682 354.335,223.952 354.142,224.324 354.142 C 226.995 354.144,228.025 353.963,227.762 353.538 C 227.580 353.244,227.653 353.185,227.962 353.377 C 228.494 353.705,230.890 352.869,230.629 352.446 C 230.540 352.303,231.217 352.244,232.134 352.316 C 233.438 352.419,233.670 352.350,233.200 351.997 C 232.712 351.632,232.764 351.594,233.480 351.794 C 233.970 351.932,234.892 351.766,235.560 351.421 C 236.220 351.079,237.354 350.797,238.080 350.794 C 239.102 350.789,239.264 350.696,238.800 350.382 C 238.353 350.079,238.474 350.039,239.278 350.226 C 239.969 350.386,240.683 350.247,241.267 349.838 C 241.768 349.487,242.723 349.197,243.389 349.194 C 244.324 349.189,244.463 349.098,244.000 348.794 C 243.578 348.518,243.803 348.479,244.762 348.663 C 245.614 348.827,246.034 348.778,245.882 348.533 C 245.749 348.317,246.036 348.154,246.520 348.170 C 247.004 348.187,247.364 348.002,247.320 347.759 C 247.271 347.494,247.670 347.387,248.320 347.491 C 249.072 347.610,249.238 347.548,248.866 347.287 C 248.433 346.982,248.452 346.866,248.966 346.668 C 249.315 346.535,249.600 346.599,249.600 346.813 C 249.600 347.900,253.396 346.706,254.729 345.200 C 255.021 344.870,255.145 344.825,255.006 345.100 C 254.608 345.886,256.857 345.716,258.856 344.809 C 259.815 344.374,261.230 344.011,262.000 344.003 C 263.094 343.991,263.269 343.896,262.800 343.568 C 262.330 343.238,262.394 343.202,263.096 343.399 C 263.632 343.550,264.350 343.400,264.885 343.026 C 265.376 342.682,266.379 342.400,267.113 342.400 C 267.847 342.400,268.346 342.237,268.223 342.037 C 268.100 341.838,268.338 341.763,268.753 341.872 C 269.167 341.980,270.059 341.783,270.733 341.434 C 271.408 341.085,272.464 340.796,273.080 340.791 C 273.696 340.786,274.985 340.426,275.944 339.991 C 276.903 339.556,278.073 339.197,278.544 339.194 C 279.256 339.189,279.299 339.117,278.800 338.770 C 278.355 338.459,278.539 338.418,279.516 338.611 C 280.378 338.781,281.138 338.671,281.716 338.294 C 282.202 337.977,283.680 337.526,285.000 337.292 C 287.451 336.858,289.769 335.902,289.361 335.494 C 289.236 335.369,289.896 335.370,290.828 335.495 C 291.884 335.636,292.431 335.575,292.281 335.331 C 292.148 335.116,292.436 334.954,292.920 334.970 C 293.404 334.987,293.766 334.807,293.724 334.571 C 293.682 334.335,293.952 334.142,294.324 334.142 C 296.995 334.144,298.025 333.963,297.762 333.538 C 297.580 333.244,297.653 333.185,297.962 333.377 C 298.494 333.705,300.890 332.869,300.629 332.446 C 300.540 332.303,301.217 332.244,302.134 332.316 C 303.438 332.419,303.670 332.350,303.200 331.997 C 302.712 331.632,302.764 331.594,303.480 331.794 C 303.970 331.932,304.892 331.766,305.560 331.421 C 306.220 331.079,307.354 330.797,308.080 330.794 C 309.102 330.789,309.264 330.696,308.800 330.382 C 308.353 330.079,308.474 330.039,309.278 330.226 C 309.969 330.386,310.683 330.247,311.267 329.838 C 311.768 329.487,312.723 329.197,313.389 329.194 C 314.324 329.189,314.463 329.098,314.000 328.794 C 313.578 328.518,313.803 328.479,314.762 328.663 C 315.680 328.839,316.039 328.786,315.862 328.500 C 315.699 328.236,315.886 328.150,316.353 328.272 C 317.285 328.516,318.902 326.517,319.832 323.973 C 320.610 321.842,321.173 306.549,320.434 307.600 C 319.934 308.312,319.914 307.731,320.400 306.600 C 320.636 306.051,320.758 305.988,320.789 306.400 C 320.815 306.730,321.121 306.280,321.470 305.400 C 321.969 304.142,322.115 302.077,322.152 295.738 C 322.179 291.305,322.313 287.746,322.450 287.831 C 323.247 288.323,323.800 283.718,323.797 276.600 C 323.796 272.420,323.893 269.720,324.013 270.600 C 324.224 272.153,324.238 272.130,324.491 269.800 C 324.635 268.480,324.935 266.590,325.159 265.600 C 325.730 263.070,325.728 256.005,325.156 256.800 C 324.797 257.299,324.765 257.277,324.962 256.667 C 325.093 256.264,325.227 255.004,325.260 253.867 L 325.320 251.800 325.600 253.600 C 325.855 255.241,325.885 255.141,325.940 252.474 C 325.973 250.864,326.209 249.156,326.465 248.678 C 327.053 247.579,327.446 240.008,326.934 239.658 C 326.726 239.516,326.648 238.500,326.759 237.400 L 326.962 235.400 327.224 237.000 C 327.413 238.151,327.504 237.533,327.549 234.800 C 327.584 232.651,327.868 230.265,328.201 229.308 C 328.595 228.178,328.870 225.122,329.031 220.108 C 329.199 214.840,329.464 212.003,329.919 210.600 C 330.425 209.041,330.572 206.865,330.584 200.740 C 330.593 196.417,330.708 192.946,330.840 193.027 C 331.675 193.537,332.200 189.320,332.200 182.100 C 332.200 177.865,332.321 174.400,332.469 174.400 C 333.375 174.400,333.800 170.952,333.800 163.600 C 333.800 159.310,333.897 156.520,334.015 157.400 C 334.224 158.950,334.239 158.926,334.491 156.600 C 334.635 155.280,334.935 153.390,335.159 152.400 C 335.730 149.870,335.728 142.805,335.156 143.600 C 334.797 144.099,334.765 144.077,334.962 143.467 C 335.093 143.064,335.227 141.804,335.260 140.667 L 335.320 138.600 335.600 140.400 C 335.867 142.117,335.883 142.077,335.940 139.520 C 335.973 138.045,336.270 135.802,336.600 134.535 C 337.259 132.006,337.415 126.545,336.834 126.333 C 336.633 126.260,336.581 125.300,336.719 124.200 C 336.968 122.211,336.971 122.208,337.232 123.600 C 337.410 124.549,337.513 123.841,337.552 121.400 C 337.583 119.420,337.876 116.920,338.202 115.845 C 338.585 114.581,338.877 111.253,339.026 106.445 C 339.194 100.997,339.433 98.517,339.915 97.200 C 340.442 95.762,340.577 93.821,340.587 87.540 C 340.594 83.217,340.713 79.748,340.850 79.833 C 341.642 80.317,342.200 75.719,342.200 68.700 C 342.200 64.575,342.299 61.200,342.420 61.200 C 343.913 61.200,344.590 41.458,343.142 40.147 C 342.760 39.802,342.232 39.657,341.963 39.823 C 341.696 39.988,341.577 39.961,341.700 39.762 C 341.833 39.546,284.525 39.400,200.000 39.400 C 115.475 39.400,58.167 39.546,58.300 39.762 M55.709 44.000 C 55.709 44.990,55.787 45.395,55.882 44.900 C 55.978 44.405,55.978 43.595,55.882 43.100 C 55.787 42.605,55.709 43.010,55.709 44.000 M344.101 43.800 C 344.105 44.680,344.187 44.993,344.283 44.495 C 344.379 43.998,344.375 43.278,344.275 42.895 C 344.175 42.513,344.096 42.920,344.101 43.800 M312.865 67.235 C 313.792 67.731,313.707 72.548,312.586 83.000 C 312.280 85.860,311.833 91.080,311.595 94.600 C 311.356 98.120,311.090 101.270,311.004 101.600 C 310.917 101.930,310.654 104.630,310.418 107.600 C 310.182 110.570,309.631 117.050,309.194 122.000 C 308.756 126.950,308.040 135.050,307.602 140.000 C 306.718 149.992,306.277 155.155,305.402 165.800 C 305.076 169.760,304.535 175.700,304.200 179.000 C 303.865 182.300,303.409 187.700,303.188 191.000 C 302.967 194.300,302.617 198.350,302.412 200.000 C 302.206 201.650,301.933 204.440,301.805 206.200 C 301.676 207.960,301.224 213.360,300.800 218.200 C 300.376 223.040,299.660 231.230,299.210 236.400 C 298.759 241.570,298.036 249.850,297.603 254.800 C 297.169 259.750,296.460 267.850,296.026 272.800 C 295.593 277.750,295.129 283.330,294.996 285.200 C 294.503 292.105,293.104 304.621,292.751 305.286 C 292.550 305.664,291.624 306.173,290.693 306.419 C 289.762 306.664,286.570 307.575,283.600 308.443 C 280.630 309.310,276.580 310.488,274.600 311.059 C 272.620 311.630,270.190 312.337,269.200 312.630 C 268.210 312.923,259.390 315.429,249.600 318.198 C 239.810 320.967,230.990 323.479,230.000 323.781 C 229.010 324.082,226.130 324.904,223.600 325.608 C 218.193 327.110,209.297 329.674,205.572 330.803 C 199.650 332.598,200.000 333.764,200.000 312.236 L 200.000 294.418 199.025 293.780 C 198.489 293.428,197.184 292.896,196.125 292.596 C 195.066 292.296,193.300 291.738,192.200 291.356 C 191.100 290.974,189.300 290.350,188.200 289.969 C 187.100 289.587,184.580 288.775,182.600 288.164 C 180.620 287.552,178.460 286.836,177.800 286.572 C 177.140 286.308,172.910 284.904,168.400 283.452 C 160.668 280.962,149.654 277.346,147.000 276.426 C 146.340 276.197,143.280 275.177,140.200 274.159 C 132.150 271.499,132.412 271.826,132.395 264.400 C 132.390 262.090,132.115 258.310,131.785 256.000 C 131.456 253.690,131.009 247.818,130.792 242.951 C 130.576 238.084,130.219 233.154,129.999 231.996 C 128.418 223.661,127.670 224.000,147.645 224.000 C 167.674 224.000,165.655 223.182,166.035 231.449 C 166.505 241.686,167.362 245.568,169.162 245.618 C 169.513 245.627,170.520 245.909,171.400 246.243 C 172.280 246.578,173.810 247.102,174.800 247.409 C 178.123 248.438,186.192 251.221,187.000 251.617 C 187.440 251.833,188.700 252.258,189.800 252.563 C 190.900 252.868,193.060 253.606,194.600 254.204 C 196.140 254.802,197.940 255.315,198.600 255.345 L 199.800 255.400 199.800 232.600 L 199.800 209.800 165.111 209.600 C 131.084 209.404,130.407 209.385,129.643 208.600 C 128.633 207.563,128.125 203.377,127.603 191.800 C 126.924 176.739,126.876 175.909,126.430 171.600 C 126.191 169.290,125.820 162.900,125.606 157.400 C 125.392 151.900,125.034 145.670,124.809 143.556 C 124.585 141.441,124.228 135.141,124.016 129.556 C 123.804 123.970,123.414 117.323,123.150 114.785 C 122.600 109.493,122.774 108.322,124.209 107.669 C 124.971 107.321,134.790 107.200,162.139 107.200 C 190.306 107.200,199.154 107.086,199.520 106.720 C 199.880 106.360,200.000 101.464,200.000 87.149 C 200.000 70.326,200.075 67.982,200.629 67.429 C 201.418 66.639,311.397 66.449,312.865 67.235 M58.516 72.800 C 58.631 73.239,58.562 73.700,58.362 73.823 C 58.163 73.946,58.000 73.587,58.000 73.024 C 58.000 71.798,58.228 71.699,58.516 72.800 M340.394 90.900 C 340.390 91.784,340.277 92.026,340.043 91.656 C 339.728 91.159,339.883 89.600,340.247 89.600 C 340.331 89.600,340.397 90.185,340.394 90.900 M61.700 107.810 C 61.806 108.365,61.737 108.915,61.546 109.033 C 61.356 109.151,61.200 108.697,61.200 108.024 C 61.200 106.539,61.437 106.437,61.700 107.810 M160.981 143.231 C 160.650 143.766,161.122 153.345,161.640 156.600 C 161.849 157.920,162.203 162.234,162.426 166.186 C 162.697 170.980,162.993 173.475,163.316 173.680 C 164.075 174.163,198.316 174.073,199.226 173.586 C 200.180 173.076,200.460 144.220,199.520 143.280 C 198.871 142.631,161.381 142.583,160.981 143.231 M68.520 186.136 C 68.633 186.431,68.565 186.926,68.369 187.236 C 68.109 187.647,68.011 187.501,68.006 186.700 C 67.999 185.506,68.196 185.290,68.520 186.136 M331.994 186.700 C 331.989 187.501,331.891 187.647,331.631 187.236 C 331.435 186.926,331.367 186.431,331.480 186.136 C 331.804 185.290,332.001 185.506,331.994 186.700 M70.116 204.000 C 70.231 204.439,70.162 204.900,69.962 205.023 C 69.763 205.146,69.600 204.787,69.600 204.224 C 69.600 202.998,69.828 202.899,70.116 204.000 M330.400 204.224 C 330.400 204.787,330.237 205.146,330.038 205.023 C 329.838 204.900,329.769 204.439,329.884 204.000 C 330.172 202.899,330.400 202.998,330.400 204.224 M71.476 221.900 C 71.375 222.285,71.293 221.970,71.293 221.200 C 71.293 220.430,71.375 220.115,71.476 220.500 C 71.576 220.885,71.576 221.515,71.476 221.900 M78.520 299.336 C 78.633 299.631,78.565 300.126,78.369 300.436 C 78.109 300.847,78.011 300.701,78.006 299.900 C 77.999 298.706,78.196 298.490,78.520 299.336 M321.994 299.900 C 321.989 300.701,321.891 300.847,321.631 300.436 C 321.435 300.126,321.367 299.631,321.480 299.336 C 321.804 298.490,322.001 298.706,321.994 299.900 M80.104 317.156 C 80.213 317.571,80.147 318.156,79.957 318.456 C 79.723 318.826,79.610 318.584,79.606 317.700 C 79.599 316.245,79.807 316.018,80.104 317.156 M320.394 317.700 C 320.390 318.584,320.277 318.826,320.043 318.456 C 319.728 317.959,319.883 316.400,320.247 316.400 C 320.331 316.400,320.397 316.985,320.394 317.700 " stroke="none" fill="#e45404" fill-rule="evenodd"></path><path id="path2" d="M130.300 39.500 C 168.635 39.556,231.365 39.556,269.700 39.500 C 308.035 39.444,276.670 39.398,200.000 39.398 C 123.330 39.398,91.965 39.444,130.300 39.500 M56.109 44.400 C 56.109 45.390,56.187 45.795,56.282 45.300 C 56.378 44.805,56.378 43.995,56.282 43.500 C 56.187 43.005,56.109 43.410,56.109 44.400 M343.709 44.400 C 343.709 45.390,343.787 45.795,343.882 45.300 C 343.978 44.805,343.978 43.995,343.882 43.500 C 343.787 43.005,343.709 43.410,343.709 44.400 M200.629 67.429 C 200.075 67.982,200.000 70.326,200.000 87.149 C 200.000 101.464,199.880 106.360,199.520 106.720 C 199.154 107.086,190.306 107.200,162.139 107.200 C 122.824 107.200,123.424 107.170,122.926 109.151 C 122.660 110.213,123.511 120.854,123.891 121.200 C 124.092 121.383,123.947 118.909,123.352 112.000 C 122.944 107.260,113.000 107.815,200.357 107.697 L 276.378 107.594 277.014 108.565 C 277.625 109.497,277.272 122.185,276.572 124.467 C 276.459 124.835,276.133 128.776,275.847 133.227 C 275.394 140.274,275.231 141.388,274.587 141.859 C 273.974 142.308,264.237 142.400,217.604 142.400 C 174.392 142.400,161.249 142.511,160.880 142.880 C 160.588 143.172,160.428 144.385,160.471 145.980 L 160.541 148.600 160.771 145.800 L 161.000 143.000 179.954 142.896 C 193.617 142.821,199.061 142.919,199.454 143.245 C 200.455 144.076,200.237 173.045,199.226 173.586 C 198.323 174.069,164.078 174.165,163.326 173.686 C 163.065 173.520,162.782 172.488,162.698 171.392 L 162.544 169.400 162.472 171.486 C 162.363 174.636,158.099 174.426,217.074 174.170 C 261.560 173.976,270.363 174.028,271.200 174.486 L 272.200 175.032 272.153 182.416 C 272.126 186.477,271.820 192.950,271.472 196.800 C 271.124 200.650,270.731 206.950,270.599 210.800 C 270.466 214.650,270.191 219.420,269.987 221.400 C 269.782 223.380,269.433 229.140,269.210 234.200 C 268.987 239.260,268.543 246.370,268.223 250.000 C 267.902 253.630,267.522 259.508,267.376 263.061 C 267.037 271.379,266.701 271.933,261.000 273.601 C 260.120 273.858,258.500 274.394,257.400 274.791 C 255.079 275.630,252.157 276.608,249.600 277.400 C 246.720 278.292,243.909 279.228,242.400 279.795 C 241.630 280.085,236.950 281.615,232.000 283.195 C 227.050 284.776,222.370 286.316,221.600 286.617 C 220.830 286.919,219.570 287.339,218.800 287.551 C 218.030 287.762,216.860 288.133,216.200 288.374 C 210.553 290.439,201.319 293.200,200.059 293.200 C 199.674 293.200,195.587 291.958,190.979 290.439 C 186.371 288.920,181.970 287.494,181.200 287.270 C 180.430 287.046,178.000 286.241,175.800 285.482 C 173.600 284.722,168.020 282.892,163.400 281.414 C 158.780 279.937,154.550 278.545,154.000 278.321 C 153.450 278.097,149.490 276.767,145.200 275.364 C 132.037 271.060,133.140 271.998,132.783 264.800 L 132.535 259.800 132.470 264.200 C 132.357 271.801,132.113 271.487,140.200 274.159 C 143.280 275.177,146.340 276.197,147.000 276.426 C 149.654 277.346,160.668 280.962,168.400 283.452 C 172.910 284.904,177.140 286.308,177.800 286.572 C 178.460 286.836,180.620 287.552,182.600 288.164 C 184.580 288.775,187.100 289.587,188.200 289.969 C 189.300 290.350,191.100 290.974,192.200 291.356 C 193.300 291.738,195.066 292.296,196.125 292.596 C 197.184 292.896,198.489 293.428,199.025 293.780 L 200.000 294.418 200.000 312.236 C 200.000 333.764,199.650 332.598,205.572 330.803 C 209.297 329.674,218.193 327.110,223.600 325.608 C 226.130 324.904,229.010 324.082,230.000 323.781 C 230.990 323.479,239.810 320.967,249.600 318.198 C 259.390 315.429,268.210 312.923,269.200 312.630 C 270.190 312.337,272.620 311.630,274.600 311.059 C 276.580 310.488,280.630 309.310,283.600 308.443 C 286.570 307.575,289.762 306.664,290.693 306.419 C 291.624 306.173,292.550 305.664,292.751 305.286 C 293.104 304.621,294.503 292.105,294.996 285.200 C 295.129 283.330,295.593 277.750,296.026 272.800 C 296.460 267.850,297.169 259.750,297.603 254.800 C 298.036 249.850,298.759 241.570,299.210 236.400 C 299.660 231.230,300.376 223.040,300.800 218.200 C 301.224 213.360,301.676 207.960,301.805 206.200 C 301.933 204.440,302.206 201.650,302.412 200.000 C 302.617 198.350,302.967 194.300,303.188 191.000 C 303.409 187.700,303.865 182.300,304.200 179.000 C 304.535 175.700,305.076 169.760,305.402 165.800 C 306.277 155.155,306.718 149.992,307.602 140.000 C 308.040 135.050,308.756 126.950,309.194 122.000 C 309.631 117.050,310.182 110.570,310.418 107.600 C 310.654 104.630,310.917 101.930,311.004 101.600 C 311.090 101.270,311.356 98.120,311.595 94.600 C 311.833 91.080,312.280 85.860,312.586 83.000 C 313.707 72.548,313.792 67.731,312.865 67.235 C 311.397 66.449,201.418 66.639,200.629 67.429 M58.000 73.024 C 58.000 73.587,58.163 73.946,58.362 73.823 C 58.562 73.700,58.631 73.239,58.516 72.800 C 58.228 71.699,58.000 71.798,58.000 73.024 M339.896 90.356 C 339.787 90.771,339.853 91.356,340.043 91.656 C 340.277 92.026,340.390 91.784,340.394 90.900 C 340.401 89.445,340.193 89.218,339.896 90.356 M61.200 108.024 C 61.200 108.697,61.356 109.151,61.546 109.033 C 61.869 108.834,61.693 106.800,61.353 106.800 C 61.269 106.800,61.200 107.351,61.200 108.024 M124.256 131.200 C 124.366 136.370,124.616 142.040,124.813 143.800 C 125.010 145.560,125.357 151.590,125.584 157.200 C 125.811 162.810,126.192 169.290,126.431 171.600 C 126.876 175.910,126.924 176.742,127.603 191.800 C 128.125 203.377,128.633 207.563,129.643 208.600 C 130.407 209.385,131.084 209.404,165.111 209.600 L 199.800 209.800 199.800 232.600 L 199.800 255.400 198.600 255.345 C 197.940 255.315,196.140 254.802,194.600 254.204 C 193.060 253.606,190.900 252.868,189.800 252.563 C 188.700 252.258,187.440 251.833,187.000 251.617 C 186.207 251.229,178.267 248.487,174.800 247.404 C 166.830 244.915,167.513 245.535,166.645 240.000 L 166.049 236.200 166.268 239.400 C 166.677 245.384,166.304 245.007,174.600 247.822 C 178.560 249.165,185.310 251.492,189.600 252.992 C 197.819 255.865,200.377 256.382,202.501 255.598 C 204.633 254.812,223.072 248.462,227.600 246.955 C 229.910 246.186,232.043 245.318,232.340 245.025 C 233.078 244.296,233.867 236.936,234.389 225.914 C 234.625 220.917,235.002 215.365,235.227 213.576 C 235.529 211.164,235.514 210.178,235.168 209.762 C 234.772 209.285,226.931 209.200,183.177 209.200 C 131.527 209.200,129.977 209.159,129.442 207.764 C 129.012 206.644,128.059 194.419,127.792 186.600 C 127.656 182.640,127.292 176.430,126.983 172.800 C 126.673 169.170,126.316 162.960,126.190 159.000 C 126.063 155.040,125.687 148.646,125.354 144.791 C 125.021 140.937,124.593 134.187,124.403 129.791 L 124.057 121.800 124.256 131.200 M62.800 124.333 C 62.800 125.470,62.958 126.400,63.151 126.400 C 63.471 126.400,63.287 122.820,62.947 122.433 C 62.866 122.342,62.800 123.197,62.800 124.333 M336.736 124.200 C 336.480 126.144,336.565 126.768,337.024 126.310 C 337.147 126.187,337.192 125.212,337.124 124.143 L 337.000 122.200 336.736 124.200 M64.438 140.800 C 64.424 142.010,64.560 143.233,64.740 143.517 C 64.924 143.806,64.996 143.011,64.904 141.717 C 64.679 138.558,64.468 138.142,64.438 140.800 M335.274 140.667 C 335.233 141.804,335.096 143.064,334.970 143.467 C 334.754 144.153,334.769 144.155,335.191 143.498 C 335.439 143.112,335.576 141.852,335.495 140.698 L 335.348 138.600 335.274 140.667 M160.859 151.048 C 160.827 152.395,161.067 155.995,161.394 159.048 C 161.721 162.102,162.047 165.680,162.118 167.000 C 162.215 168.784,162.266 168.476,162.316 165.800 C 162.354 163.820,162.192 160.940,161.957 159.400 C 161.723 157.860,161.393 154.800,161.225 152.600 C 160.975 149.340,160.908 149.053,160.859 151.048 M66.114 157.800 C 66.117 158.900,66.195 159.303,66.287 158.695 C 66.379 158.086,66.377 157.186,66.282 156.695 C 66.187 156.203,66.111 156.700,66.114 157.800 M333.714 157.800 C 333.717 158.900,333.795 159.303,333.887 158.695 C 333.979 158.086,333.977 157.186,333.882 156.695 C 333.787 156.203,333.711 156.700,333.714 157.800 M67.693 175.600 C 67.693 176.370,67.775 176.685,67.876 176.300 C 67.976 175.915,67.976 175.285,67.876 174.900 C 67.775 174.515,67.693 174.830,67.693 175.600 M68.006 186.700 C 68.011 187.501,68.109 187.647,68.369 187.236 C 68.565 186.926,68.633 186.431,68.520 186.136 C 68.196 185.290,67.999 185.506,68.006 186.700 M331.480 186.136 C 331.367 186.431,331.435 186.926,331.631 187.236 C 331.891 187.647,331.989 187.501,331.994 186.700 C 332.001 185.506,331.804 185.290,331.480 186.136 M69.600 204.224 C 69.600 204.787,69.763 205.146,69.962 205.023 C 70.162 204.900,70.231 204.439,70.116 204.000 C 69.828 202.899,69.600 202.998,69.600 204.224 M329.884 204.000 C 329.769 204.439,329.838 204.900,330.038 205.023 C 330.237 205.146,330.400 204.787,330.400 204.224 C 330.400 202.998,330.172 202.899,329.884 204.000 M71.293 221.200 C 71.293 221.970,71.375 222.285,71.476 221.900 C 71.576 221.515,71.576 220.885,71.476 220.500 C 71.375 220.115,71.293 220.430,71.293 221.200 M130.434 224.661 C 129.519 225.302,129.499 225.437,129.776 228.961 C 130.258 235.103,130.667 238.372,130.737 236.645 C 130.772 235.789,130.587 233.049,130.327 230.556 C 129.622 223.786,127.917 224.400,147.418 224.400 C 167.085 224.400,165.222 223.721,165.628 231.041 L 165.914 236.200 165.857 230.864 C 165.776 223.292,167.654 224.000,147.645 224.000 C 133.163 224.000,131.274 224.073,130.434 224.661 M326.767 237.400 C 326.541 239.402,326.605 239.929,327.024 239.510 C 327.147 239.387,327.190 238.412,327.120 237.343 L 326.993 235.400 326.767 237.400 M72.800 237.733 C 72.800 238.760,72.963 239.600,73.162 239.600 C 73.488 239.600,73.295 236.436,72.945 236.033 C 72.865 235.942,72.800 236.707,72.800 237.733 M131.056 245.800 C 131.168 249.540,131.496 254.130,131.784 256.000 C 132.421 260.134,132.562 258.341,131.976 253.562 C 131.744 251.671,131.396 247.621,131.203 244.562 L 130.852 239.000 131.056 245.800 M74.428 254.033 C 74.444 255.225,74.602 256.560,74.780 257.000 C 74.965 257.458,75.016 256.602,74.899 255.000 C 74.650 251.600,74.390 251.065,74.428 254.033 M325.274 253.867 C 325.233 255.004,325.096 256.264,324.970 256.667 C 324.754 257.353,324.769 257.355,325.191 256.698 C 325.439 256.312,325.576 255.052,325.495 253.898 L 325.348 251.800 325.274 253.867 M76.114 271.000 C 76.117 272.100,76.195 272.503,76.287 271.895 C 76.379 271.286,76.377 270.386,76.282 269.895 C 76.187 269.403,76.111 269.900,76.114 271.000 M323.714 271.000 C 323.717 272.100,323.795 272.503,323.887 271.895 C 323.979 271.286,323.977 270.386,323.882 269.895 C 323.787 269.403,323.711 269.900,323.714 271.000 M77.693 288.800 C 77.693 289.570,77.775 289.885,77.876 289.500 C 77.976 289.115,77.976 288.485,77.876 288.100 C 77.775 287.715,77.693 288.030,77.693 288.800 M322.093 288.800 C 322.093 289.570,322.175 289.885,322.276 289.500 C 322.376 289.115,322.376 288.485,322.276 288.100 C 322.175 287.715,322.093 288.030,322.093 288.800 M78.006 299.900 C 78.011 300.701,78.109 300.847,78.369 300.436 C 78.565 300.126,78.633 299.631,78.520 299.336 C 78.196 298.490,77.999 298.706,78.006 299.900 M321.480 299.336 C 321.367 299.631,321.435 300.126,321.631 300.436 C 321.891 300.847,321.989 300.701,321.994 299.900 C 322.001 298.706,321.804 298.490,321.480 299.336 M79.606 317.700 C 79.610 318.584,79.723 318.826,79.957 318.456 C 80.272 317.959,80.117 316.400,79.753 316.400 C 79.669 316.400,79.603 316.985,79.606 317.700 M319.896 317.156 C 319.787 317.571,319.853 318.156,320.043 318.456 C 320.277 318.826,320.390 318.584,320.394 317.700 C 320.401 316.245,320.193 316.018,319.896 317.156 " stroke="none" fill="#fc6c04" fill-rule="evenodd"></path><path id="path3" d="M124.535 107.999 C 123.184 108.544,123.103 109.509,123.752 117.303 C 124.086 121.316,124.465 127.840,124.595 131.800 C 124.724 135.760,124.999 140.530,125.204 142.400 C 125.410 144.270,125.764 150.300,125.991 155.800 C 126.218 161.300,126.664 168.950,126.982 172.800 C 127.300 176.650,127.669 182.950,127.801 186.800 C 128.064 194.470,129.018 206.660,129.442 207.764 C 129.977 209.159,131.527 209.200,183.177 209.200 C 226.931 209.200,234.772 209.285,235.168 209.762 C 235.514 210.178,235.529 211.164,235.227 213.576 C 235.002 215.365,234.625 220.917,234.389 225.914 C 233.867 236.936,233.078 244.296,232.340 245.025 C 232.043 245.318,229.910 246.186,227.600 246.955 C 223.072 248.462,204.633 254.812,202.501 255.598 C 200.356 256.390,197.801 255.861,189.200 252.849 C 184.690 251.269,177.974 248.960,174.276 247.717 C 170.000 246.281,167.416 245.205,167.179 244.761 C 166.588 243.657,165.985 238.718,165.624 232.020 C 165.166 223.543,167.213 224.400,147.418 224.400 C 127.862 224.400,129.641 223.722,130.340 230.907 C 130.602 233.598,130.993 239.040,131.209 243.000 C 131.425 246.960,131.869 252.720,132.196 255.800 C 132.524 258.880,132.794 262.930,132.798 264.800 C 132.811 271.604,132.254 271.104,144.200 275.026 C 149.040 276.615,153.450 278.098,154.000 278.321 C 154.550 278.545,158.780 279.937,163.400 281.414 C 168.020 282.892,173.600 284.722,175.800 285.482 C 178.000 286.241,180.430 287.046,181.200 287.270 C 181.970 287.494,186.371 288.920,190.979 290.439 C 195.587 291.958,199.674 293.200,200.059 293.200 C 201.319 293.200,210.553 290.439,216.200 288.374 C 216.860 288.133,218.030 287.762,218.800 287.551 C 219.570 287.339,220.830 286.919,221.600 286.617 C 222.370 286.316,227.050 284.776,232.000 283.195 C 236.950 281.615,241.630 280.085,242.400 279.795 C 243.909 279.228,246.720 278.292,249.600 277.400 C 252.157 276.608,255.079 275.630,257.400 274.791 C 258.500 274.394,260.120 273.858,261.000 273.601 C 266.701 271.933,267.037 271.379,267.376 263.061 C 267.522 259.508,267.902 253.630,268.223 250.000 C 268.543 246.370,268.987 239.260,269.210 234.200 C 269.433 229.140,269.782 223.380,269.987 221.400 C 270.191 219.420,270.466 214.650,270.599 210.800 C 270.731 206.950,271.124 200.650,271.472 196.800 C 271.820 192.950,272.126 186.477,272.153 182.416 L 272.200 175.032 271.200 174.486 C 270.363 174.028,261.560 173.976,217.074 174.170 C 182.817 174.319,163.689 174.262,163.219 174.010 C 162.605 173.682,162.446 172.899,162.224 169.110 C 162.079 166.629,161.709 162.080,161.403 159.000 C 160.463 149.539,160.244 143.670,160.804 142.995 C 161.237 142.474,168.264 142.400,217.573 142.400 C 264.232 142.400,273.973 142.308,274.587 141.859 C 275.231 141.388,275.394 140.274,275.847 133.227 C 276.133 128.776,276.459 124.835,276.572 124.467 C 277.270 122.191,277.625 109.497,277.016 108.568 L 276.382 107.600 200.891 107.625 C 158.957 107.639,125.016 107.806,124.535 107.999 M276.171 108.629 C 276.961 109.418,276.966 111.530,276.198 119.400 C 275.876 122.700,275.423 128.640,275.191 132.600 C 274.959 136.560,274.680 140.096,274.571 140.457 C 274.064 142.142,274.569 142.129,216.386 141.960 C 165.354 141.813,160.777 141.853,160.175 142.454 C 159.584 143.045,159.563 143.786,159.958 150.054 C 160.710 161.971,161.666 172.962,162.032 173.900 L 162.383 174.800 216.491 174.806 C 250.099 174.810,270.827 174.957,271.200 175.194 C 271.926 175.655,271.884 179.362,271.016 191.400 C 270.698 195.800,270.331 201.740,270.198 204.600 C 270.066 207.460,269.701 213.400,269.386 217.800 C 269.071 222.200,268.625 229.670,268.394 234.400 C 268.164 239.130,267.802 244.980,267.590 247.400 C 267.378 249.820,267.023 255.616,266.800 260.280 C 266.392 268.831,266.172 270.228,265.091 271.125 C 264.620 271.515,234.127 281.824,228.400 283.529 C 227.630 283.758,225.200 284.564,223.000 285.319 C 209.101 290.093,202.111 292.185,200.200 292.144 C 198.794 292.113,193.743 290.618,183.200 287.114 C 174.950 284.371,160.681 279.650,151.492 276.622 C 132.236 270.277,134.042 271.504,133.542 264.431 C 133.346 261.664,132.832 254.540,132.398 248.600 C 130.620 224.228,130.687 226.288,131.641 225.500 C 132.966 224.406,162.255 224.430,163.609 225.527 C 164.449 226.207,164.541 226.774,165.046 234.427 C 165.621 243.144,166.022 245.373,167.114 245.947 C 167.491 246.145,169.510 246.894,171.600 247.612 C 173.690 248.329,180.080 250.532,185.800 252.507 C 201.186 257.818,198.644 257.743,211.600 253.268 C 236.087 244.809,233.481 246.077,234.001 242.365 C 234.198 240.954,234.558 236.020,234.800 231.400 C 235.042 226.780,235.499 220.034,235.815 216.409 C 236.284 211.041,236.295 209.724,235.876 209.305 C 235.466 208.894,224.856 208.738,183.075 208.529 C 139.567 208.312,130.712 208.176,130.334 207.721 C 130.084 207.420,129.817 206.324,129.740 205.287 C 129.297 199.341,128.402 184.638,128.200 180.000 C 128.071 177.030,127.712 170.910,127.402 166.400 C 127.093 161.890,126.730 155.680,126.596 152.600 C 126.463 149.520,126.097 143.310,125.784 138.800 C 124.580 121.466,124.092 109.375,124.576 108.890 C 124.878 108.589,171.354 108.261,237.271 108.096 C 271.613 108.010,275.607 108.065,276.171 108.629 " stroke="none" fill="#f79754" fill-rule="evenodd"></path><path id="path4" d="M161.933 108.396 C 141.547 108.508,124.736 108.731,124.576 108.890 C 124.092 109.375,124.580 121.466,125.784 138.800 C 126.097 143.310,126.463 149.520,126.596 152.600 C 126.730 155.680,127.093 161.890,127.402 166.400 C 127.712 170.910,128.071 177.030,128.200 180.000 C 128.402 184.638,129.297 199.341,129.740 205.287 C 129.817 206.324,130.084 207.420,130.334 207.721 C 130.712 208.176,139.567 208.312,183.075 208.529 C 224.856 208.738,235.466 208.894,235.876 209.305 C 236.295 209.724,236.284 211.041,235.815 216.409 C 235.499 220.034,235.042 226.780,234.800 231.400 C 233.999 246.691,234.775 245.258,225.571 248.440 C 198.957 257.640,200.720 257.120,198.127 256.533 C 197.067 256.293,191.520 254.481,185.800 252.507 C 180.080 250.532,173.690 248.329,171.600 247.612 C 169.510 246.894,167.491 246.145,167.114 245.947 C 166.022 245.373,165.621 243.144,165.046 234.427 C 164.541 226.774,164.449 226.207,163.609 225.527 C 162.255 224.430,132.966 224.406,131.641 225.500 C 130.687 226.288,130.620 224.228,132.398 248.600 C 132.832 254.540,133.346 261.664,133.542 264.431 C 134.042 271.504,132.236 270.277,151.492 276.622 C 160.681 279.650,174.950 284.371,183.200 287.114 C 193.743 290.618,198.794 292.113,200.200 292.144 C 202.111 292.185,209.101 290.093,223.000 285.319 C 225.200 284.564,227.630 283.758,228.400 283.529 C 234.127 281.824,264.620 271.515,265.091 271.125 C 266.172 270.228,266.392 268.831,266.800 260.280 C 267.023 255.616,267.378 249.820,267.590 247.400 C 267.802 244.980,268.164 239.130,268.394 234.400 C 268.625 229.670,269.071 222.200,269.386 217.800 C 269.701 213.400,270.066 207.460,270.198 204.600 C 270.331 201.740,270.698 195.800,271.016 191.400 C 271.884 179.362,271.926 175.655,271.200 175.194 C 270.827 174.957,250.099 174.810,216.491 174.806 L 162.383 174.800 162.032 173.900 C 161.666 172.962,160.710 161.971,159.958 150.054 C 159.563 143.786,159.584 143.045,160.175 142.454 C 160.777 141.853,165.354 141.813,216.386 141.960 C 274.569 142.129,274.064 142.142,274.571 140.457 C 274.680 140.096,274.959 136.560,275.191 132.600 C 275.423 128.640,275.876 122.700,276.198 119.400 C 276.966 111.530,276.961 109.418,276.171 108.629 C 275.494 107.951,251.560 107.902,161.933 108.396 M275.576 109.371 C 275.942 109.812,275.912 111.426,275.445 116.471 C 275.112 120.062,274.734 125.070,274.604 127.600 C 274.178 135.928,273.624 140.147,272.879 140.742 C 272.313 141.195,262.929 141.261,216.400 141.142 C 185.710 141.064,160.195 141.147,159.701 141.327 C 158.433 141.787,158.256 142.989,158.765 147.687 C 159.011 149.949,159.387 154.950,159.602 158.800 C 160.125 168.158,160.758 173.608,161.448 174.699 L 162.017 175.597 216.308 175.699 L 270.600 175.800 270.594 179.200 C 270.588 183.236,269.781 197.883,268.965 208.800 C 268.644 213.090,268.205 220.470,267.989 225.200 C 267.773 229.930,267.420 235.690,267.206 238.000 C 266.991 240.310,266.626 246.340,266.396 251.400 C 265.903 262.216,265.321 269.027,264.808 269.984 C 264.562 270.444,259.917 272.160,250.721 275.188 C 228.153 282.619,213.326 287.499,207.533 289.403 C 200.558 291.696,200.178 291.683,191.664 288.848 C 187.779 287.555,177.310 284.118,168.400 281.212 C 159.490 278.305,151.570 275.687,150.800 275.394 C 150.030 275.102,147.690 274.319,145.600 273.656 C 142.111 272.549,139.499 271.680,136.734 270.707 C 134.961 270.082,134.354 266.649,133.784 254.000 C 133.650 251.030,133.294 246.080,132.992 243.000 C 132.061 233.480,131.828 226.890,132.398 226.203 C 132.827 225.686,134.995 225.600,147.640 225.600 L 162.382 225.600 162.958 226.500 C 163.313 227.053,163.706 229.480,163.978 232.800 C 165.234 248.112,164.184 246.148,172.644 249.012 C 176.140 250.195,183.500 252.699,189.000 254.575 C 201.038 258.683,198.382 258.682,210.500 254.585 C 216.055 252.707,222.940 250.380,225.800 249.414 C 235.598 246.106,234.768 247.277,235.438 235.811 C 235.721 230.965,236.142 224.930,236.374 222.400 C 237.044 215.073,237.092 208.834,236.482 208.454 C 235.856 208.063,192.794 207.600,157.158 207.600 C 137.244 207.600,131.178 207.487,130.947 207.113 C 130.781 206.846,130.505 203.291,130.333 199.213 C 130.161 195.136,129.828 189.730,129.594 187.200 C 129.361 184.670,128.996 178.370,128.784 173.200 C 128.572 168.030,128.222 162.000,128.006 159.800 C 127.790 157.600,127.426 151.300,127.198 145.800 C 126.969 140.300,126.602 133.910,126.382 131.600 C 125.815 125.653,125.167 110.550,125.449 109.818 C 125.657 109.274,129.811 109.192,162.142 109.100 C 276.683 108.773,275.076 108.769,275.576 109.371 " stroke="none" fill="#fcae71" fill-rule="evenodd"></path></g></svg>