<svg id="svg" version="1.1" xmlns="http://www.w3.org/2000/svg" xmlns:xlink="http://www.w3.org/1999/xlink" width="400" height="400" viewBox="0, 0, 400,400"><g id="svgg"><path id="path0" d="M119.300 183.612 L 118.400 183.974 118.400 196.707 C 118.400 206.077,118.527 209.567,118.880 209.920 C 119.240 210.280,124.087 210.400,138.231 210.400 C 155.296 210.400,157.155 210.463,157.651 211.061 C 158.109 211.613,158.233 221.771,158.400 272.361 L 158.600 333.000 174.000 333.000 L 189.400 333.000 189.600 272.361 C 189.767 221.771,189.891 211.613,190.349 211.061 C 190.845 210.464,192.677 210.400,209.387 210.400 C 226.791 210.400,227.915 210.357,228.538 209.669 C 229.730 208.352,229.522 184.671,228.311 183.823 C 227.287 183.105,121.071 182.901,119.300 183.612 M284.800 183.582 C 279.605 183.928,271.937 185.050,269.800 185.779 C 268.920 186.079,267.660 186.442,267.000 186.585 C 257.977 188.548,247.869 196.307,243.533 204.600 C 238.601 214.033,237.441 229.994,241.033 239.000 C 245.111 249.223,251.153 256.137,262.200 263.221 C 266.539 266.003,267.187 266.357,279.200 272.524 C 282.610 274.275,286.120 276.126,287.000 276.638 C 287.880 277.150,289.140 277.872,289.800 278.242 C 303.506 285.942,303.189 300.395,289.200 305.628 C 285.801 306.899,271.539 307.070,268.450 305.876 C 267.487 305.504,266.267 305.200,265.739 305.200 C 264.738 305.200,259.081 303.506,257.000 302.584 C 256.340 302.291,254.540 301.512,253.000 300.853 C 249.527 299.367,244.687 296.842,242.620 295.439 C 241.761 294.857,240.866 294.445,240.630 294.523 C 239.959 294.747,239.828 325.770,240.495 326.280 C 241.122 326.760,246.734 328.403,247.738 328.401 C 248.144 328.401,249.674 328.738,251.138 329.152 C 266.082 333.371,293.003 334.140,302.600 330.622 C 303.480 330.299,304.510 330.027,304.889 330.018 C 306.281 329.982,313.998 326.316,317.200 324.169 C 333.433 313.285,338.618 286.504,328.024 268.258 C 324.846 262.784,315.561 254.311,309.600 251.443 C 309.270 251.285,308.100 250.647,307.000 250.028 C 304.761 248.766,304.028 248.395,292.200 242.541 C 287.580 240.254,283.061 237.892,282.157 237.292 C 281.254 236.691,279.799 235.722,278.924 235.137 C 266.430 226.788,271.919 210.434,287.979 208.157 C 293.721 207.343,305.397 207.886,307.288 209.054 C 307.546 209.214,308.846 209.656,310.178 210.038 C 313.232 210.914,315.745 211.829,317.826 212.823 C 318.721 213.250,319.560 213.600,319.690 213.600 C 319.821 213.600,321.218 214.331,322.794 215.224 C 324.895 216.414,325.796 216.735,326.168 216.427 C 326.662 216.017,327.353 202.382,327.387 192.400 L 327.400 188.600 325.900 187.867 C 325.076 187.464,323.096 186.957,321.500 186.741 C 319.905 186.524,317.700 186.101,316.600 185.800 C 315.500 185.499,313.430 185.142,312.000 185.006 C 310.570 184.869,307.510 184.508,305.200 184.203 C 299.947 183.508,290.318 183.216,284.800 183.582 " stroke="none" fill="#fafbfb" fill-rule="evenodd"></path><path id="path1" d="M49.029 49.029 C 48.065 49.992,48.065 350.008,49.029 350.971 C 49.992 351.935,350.008 351.935,350.971 350.971 C 351.935 350.008,351.935 49.992,350.971 49.029 C 350.008 48.065,49.992 48.065,49.029 49.029 M228.311 183.823 C 229.522 184.671,229.730 208.352,228.538 209.669 C 227.915 210.357,226.791 210.400,209.387 210.400 C 192.677 210.400,190.845 210.464,190.349 211.061 C 189.891 211.613,189.767 221.771,189.600 272.361 L 189.400 333.000 174.000 333.000 L 158.600 333.000 158.400 272.361 C 158.233 221.771,158.109 211.613,157.651 211.061 C 157.155 210.463,155.296 210.400,138.231 210.400 C 124.087 210.400,119.240 210.280,118.880 209.920 C 118.527 209.567,118.400 206.077,118.400 196.707 L 118.400 183.974 119.300 183.612 C 121.071 182.901,227.287 183.105,228.311 183.823 M305.200 184.203 C 307.510 184.508,310.570 184.869,312.000 185.006 C 313.430 185.142,315.500 185.499,316.600 185.800 C 317.700 186.101,319.905 186.524,321.500 186.741 C 323.096 186.957,325.076 187.464,325.900 187.867 L 327.400 188.600 327.387 192.400 C 327.353 202.382,326.662 216.017,326.168 216.427 C 325.796 216.735,324.895 216.414,322.794 215.224 C 321.218 214.331,319.821 213.600,319.690 213.600 C 319.560 213.600,318.721 213.250,317.826 212.823 C 315.745 211.829,313.232 210.914,310.178 210.038 C 308.846 209.656,307.546 209.214,307.288 209.054 C 305.397 207.886,293.721 207.343,287.979 208.157 C 271.919 210.434,266.430 226.788,278.924 235.137 C 279.799 235.722,281.254 236.691,282.157 237.292 C 283.061 237.892,287.580 240.254,292.200 242.541 C 304.028 248.395,304.761 248.766,307.000 250.028 C 308.100 250.647,309.270 251.285,309.600 251.443 C 324.385 258.555,333.359 272.833,333.291 289.136 C 333.215 307.579,325.838 320.736,312.000 327.110 C 306.948 329.437,305.571 330.000,304.889 330.018 C 304.510 330.027,303.480 330.299,302.600 330.622 C 293.003 334.140,266.082 333.371,251.138 329.152 C 249.674 328.738,248.144 328.401,247.738 328.401 C 246.734 328.403,241.122 326.760,240.495 326.280 C 239.828 325.770,239.959 294.747,240.630 294.523 C 240.866 294.445,241.761 294.857,242.620 295.439 C 244.687 296.842,249.527 299.367,253.000 300.853 C 254.540 301.512,256.340 302.291,257.000 302.584 C 259.081 303.506,264.738 305.200,265.739 305.200 C 266.267 305.200,267.487 305.504,268.450 305.876 C 271.539 307.070,285.801 306.899,289.200 305.628 C 303.189 300.395,303.506 285.942,289.800 278.242 C 289.140 277.872,287.880 277.150,287.000 276.638 C 286.120 276.126,282.610 274.275,279.200 272.524 C 267.187 266.357,266.539 266.003,262.200 263.221 C 251.153 256.137,245.111 249.223,241.033 239.000 C 237.441 229.994,238.601 214.033,243.533 204.600 C 247.869 196.307,257.977 188.548,267.000 186.585 C 267.660 186.442,268.920 186.079,269.800 185.779 C 276.330 183.554,294.252 182.756,305.200 184.203 " stroke="none" fill="#1c74d4" fill-rule="evenodd"></path></g></svg>