<svg id="svg" version="1.1" xmlns="http://www.w3.org/2000/svg" xmlns:xlink="http://www.w3.org/1999/xlink" width="400" height="400" viewBox="0, 0, 400,400"><g id="svgg"><path id="path0" d="M199.600 109.220 C 198.610 109.397,181.577 109.554,161.749 109.570 C 131.300 109.595,125.625 109.687,125.232 110.162 C 124.884 110.581,124.868 111.780,125.169 114.862 C 125.392 117.138,125.763 122.150,125.994 126.000 C 126.541 135.118,127.001 139.078,127.596 139.795 C 128.008 140.292,133.272 140.406,164.139 140.584 C 247.208 141.063,241.449 140.628,241.027 146.400 C 240.890 148.270,240.605 152.500,240.394 155.800 C 239.326 172.465,239.003 174.472,237.283 175.134 C 236.581 175.404,223.667 175.647,200.600 175.824 C 181.020 175.973,164.595 176.250,164.100 176.438 C 163.040 176.841,162.999 177.578,163.578 186.000 C 163.782 188.970,164.072 194.665,164.224 198.656 C 164.375 202.647,164.650 206.157,164.834 206.456 C 165.105 206.894,168.658 207.058,183.085 207.299 C 235.419 208.172,235.947 208.186,236.481 208.724 C 237.089 209.339,237.057 214.247,236.394 222.000 C 236.158 224.750,235.730 230.906,235.442 235.679 C 234.733 247.445,236.254 245.855,220.600 251.193 C 197.742 258.989,199.147 258.660,195.000 257.189 C 193.680 256.721,186.868 254.381,179.862 251.990 C 162.845 246.182,164.455 247.827,164.113 235.901 C 163.949 230.175,163.717 227.365,163.370 226.890 C 162.756 226.050,136.296 225.603,134.206 226.398 L 133.083 226.825 133.327 230.512 C 133.462 232.541,133.772 238.610,134.017 244.000 C 134.847 262.300,135.415 268.796,136.255 269.609 C 136.672 270.014,148.607 274.136,163.400 278.985 C 177.920 283.745,192.145 288.441,195.011 289.420 C 200.900 291.432,201.538 291.500,204.485 290.436 C 205.648 290.016,214.970 286.932,225.200 283.582 C 258.861 272.561,263.764 270.868,264.452 270.026 C 265.280 269.015,265.480 267.506,265.998 258.400 C 266.580 248.163,267.894 226.508,268.631 215.000 C 268.969 209.720,269.415 202.160,269.622 198.200 C 269.829 194.240,270.259 187.130,270.578 182.400 C 270.896 177.670,271.261 171.820,271.388 169.400 C 271.515 166.980,271.885 160.950,272.212 156.000 C 275.214 110.444,275.239 109.518,273.504 109.053 C 272.149 108.690,201.684 108.850,199.600 109.220 " stroke="none" fill="#f3f5f5" fill-rule="evenodd"></path><path id="path1" d="M130.100 38.700 C 168.545 38.756,231.455 38.756,269.900 38.700 C 308.345 38.644,276.890 38.598,200.000 38.598 C 123.110 38.598,91.655 38.644,130.100 38.700 M55.320 44.800 C 55.320 46.010,55.395 46.505,55.487 45.900 C 55.578 45.295,55.578 44.305,55.487 43.700 C 55.395 43.095,55.320 43.590,55.320 44.800 M344.520 44.800 C 344.520 46.010,344.595 46.505,344.687 45.900 C 344.778 45.295,344.778 44.305,344.687 43.700 C 344.595 43.095,344.520 43.590,344.520 44.800 M56.901 62.600 C 56.905 63.480,56.987 63.793,57.083 63.295 C 57.179 62.798,57.175 62.078,57.075 61.695 C 56.975 61.313,56.896 61.720,56.901 62.600 M342.893 62.400 C 342.893 63.170,342.975 63.485,343.076 63.100 C 343.176 62.715,343.176 62.085,343.076 61.700 C 342.975 61.315,342.893 61.630,342.893 62.400 M201.834 66.817 C 199.999 67.366,200.013 67.212,200.000 87.000 C 199.987 106.618,199.984 106.660,198.273 107.117 C 197.690 107.273,214.741 107.400,236.164 107.400 C 282.200 107.400,277.022 106.633,276.664 113.400 C 276.536 115.820,276.247 121.400,276.023 125.800 C 275.798 130.200,275.351 137.220,275.030 141.400 C 274.709 145.580,274.339 151.520,274.207 154.600 C 274.075 157.680,273.717 163.440,273.411 167.400 C 273.104 171.360,272.742 177.300,272.606 180.600 C 272.470 183.900,272.108 189.840,271.802 193.800 C 271.497 197.760,271.139 203.340,271.008 206.200 C 270.878 209.060,270.423 216.800,269.998 223.400 C 269.572 230.000,269.042 238.550,268.819 242.400 C 268.376 250.046,267.680 261.492,267.341 266.713 C 266.987 272.164,269.230 271.035,238.872 281.042 C 224.422 285.805,210.440 290.420,207.800 291.297 C 202.881 292.932,200.855 293.231,198.400 292.685 L 197.000 292.374 198.090 292.994 C 199.988 294.075,200.000 294.196,200.000 312.600 C 200.000 323.866,200.147 330.327,200.414 330.826 C 201.029 331.975,202.747 331.814,208.840 330.036 C 211.788 329.175,215.190 328.204,216.400 327.878 C 217.610 327.552,233.810 322.937,252.400 317.624 C 270.990 312.310,287.188 307.683,288.395 307.342 C 293.661 305.855,293.619 305.993,295.205 284.800 C 295.427 281.830,295.702 278.680,295.816 277.800 C 295.931 276.920,296.375 271.970,296.805 266.800 C 297.877 253.886,299.123 239.439,299.598 234.400 C 299.816 232.090,300.451 224.800,301.008 218.200 C 301.566 211.600,302.198 204.400,302.414 202.200 C 302.629 200.000,303.064 195.050,303.379 191.200 C 304.351 179.334,307.172 146.813,307.577 142.800 C 307.788 140.710,308.060 137.740,308.182 136.200 C 308.394 133.528,309.118 125.124,310.801 105.800 C 311.222 100.960,311.937 92.680,312.389 87.400 C 312.841 82.120,313.394 75.752,313.618 73.249 C 314.115 67.697,313.857 67.054,310.973 66.658 C 308.106 66.265,203.169 66.418,201.834 66.817 M123.462 108.331 C 123.098 108.734,122.805 109.229,122.812 109.431 C 122.819 109.634,123.014 109.474,123.246 109.074 C 123.478 108.675,124.058 108.192,124.534 108.000 C 125.120 107.763,125.194 107.643,124.762 107.625 C 124.411 107.611,123.826 107.929,123.462 108.331 M122.924 115.800 C 122.926 117.120,123.001 117.612,123.090 116.893 C 123.179 116.174,123.177 115.094,123.086 114.493 C 122.995 113.892,122.922 114.480,122.924 115.800 M123.314 121.000 C 123.317 122.100,123.395 122.503,123.487 121.895 C 123.579 121.286,123.577 120.386,123.482 119.895 C 123.387 119.403,123.311 119.900,123.314 121.000 M337.693 124.000 C 337.693 124.770,337.775 125.085,337.876 124.700 C 337.976 124.315,337.976 123.685,337.876 123.300 C 337.775 122.915,337.693 123.230,337.693 124.000 M123.714 125.400 C 123.717 126.500,123.795 126.903,123.887 126.295 C 123.979 125.686,123.977 124.786,123.882 124.295 C 123.787 123.803,123.711 124.300,123.714 125.400 M124.120 130.400 C 124.120 131.610,124.195 132.105,124.287 131.500 C 124.378 130.895,124.378 129.905,124.287 129.300 C 124.195 128.695,124.120 129.190,124.120 130.400 M124.524 137.000 C 124.526 138.320,124.601 138.812,124.690 138.093 C 124.779 137.374,124.777 136.294,124.686 135.693 C 124.595 135.092,124.522 135.680,124.524 137.000 M124.832 140.038 C 124.814 140.389,125.205 141.019,125.700 141.438 C 126.592 142.194,126.594 142.193,125.952 141.400 C 125.596 140.960,125.205 140.330,125.084 140.000 C 124.897 139.491,124.858 139.496,124.832 140.038 M63.701 141.400 C 63.705 142.280,63.787 142.593,63.883 142.095 C 63.979 141.598,63.975 140.878,63.875 140.495 C 63.775 140.113,63.696 140.520,63.701 141.400 M336.101 141.400 C 336.105 142.280,336.187 142.593,336.283 142.095 C 336.379 141.598,336.375 140.878,336.275 140.495 C 336.175 140.113,336.096 140.520,336.101 141.400 M198.271 142.883 C 199.968 143.336,199.987 143.514,199.994 158.438 C 200.000 171.694,199.950 172.721,199.273 173.334 C 198.627 173.918,196.613 174.006,181.173 174.125 C 171.618 174.198,179.910 174.179,199.600 174.081 C 219.290 173.984,235.789 173.756,236.264 173.576 C 237.014 173.290,237.159 172.839,237.369 170.124 C 237.501 168.406,237.876 163.940,238.200 160.200 C 239.241 148.208,239.383 143.850,238.753 143.327 C 238.352 142.994,232.437 142.827,217.703 142.732 C 206.432 142.660,197.688 142.727,198.271 142.883 M65.309 158.800 C 65.309 159.790,65.387 160.195,65.482 159.700 C 65.578 159.205,65.578 158.395,65.482 157.900 C 65.387 157.405,65.309 157.810,65.309 158.800 M334.509 158.800 C 334.509 159.790,334.587 160.195,334.682 159.700 C 334.778 159.205,334.778 158.395,334.682 157.900 C 334.587 157.405,334.509 157.810,334.509 158.800 M66.901 175.800 C 66.905 176.680,66.987 176.993,67.083 176.495 C 67.179 175.998,67.175 175.278,67.075 174.895 C 66.975 174.513,66.896 174.920,66.901 175.800 M332.901 175.800 C 332.905 176.680,332.987 176.993,333.083 176.495 C 333.179 175.998,333.175 175.278,333.075 174.895 C 332.975 174.513,332.896 174.920,332.901 175.800 M160.937 179.400 C 160.939 181.160,161.009 181.830,161.093 180.889 C 161.178 179.949,161.177 178.509,161.091 177.689 C 161.005 176.870,160.936 177.640,160.937 179.400 M161.342 188.200 C 161.341 190.180,161.408 191.040,161.492 190.112 C 161.576 189.184,161.577 187.564,161.495 186.512 C 161.412 185.460,161.343 186.220,161.342 188.200 M161.731 195.400 C 161.733 196.940,161.805 197.521,161.892 196.691 C 161.979 195.861,161.977 194.601,161.889 193.891 C 161.800 193.181,161.729 193.860,161.731 195.400 M162.128 202.000 C 162.128 203.430,162.201 204.015,162.289 203.300 C 162.378 202.585,162.378 201.415,162.289 200.700 C 162.201 199.985,162.128 200.570,162.128 202.000 M181.733 209.179 C 198.093 209.390,198.891 209.435,199.433 210.176 C 200.144 211.150,200.290 253.512,199.586 254.826 C 199.342 255.281,198.725 255.614,198.086 255.634 L 197.000 255.669 198.189 256.024 C 199.592 256.442,199.498 256.469,213.000 251.801 C 218.500 249.900,224.890 247.708,227.200 246.931 C 233.438 244.832,233.190 245.463,233.999 229.600 C 234.218 225.310,234.601 219.327,234.851 216.304 C 235.203 212.034,235.197 210.678,234.820 210.224 C 234.302 209.600,223.548 209.365,182.600 209.082 L 164.600 208.958 181.733 209.179 M140.900 224.299 C 145.025 224.364,151.775 224.364,155.900 224.299 C 160.025 224.234,156.650 224.181,148.400 224.181 C 140.150 224.181,136.775 224.234,140.900 224.299 M130.934 229.200 C 130.934 230.850,131.005 231.525,131.091 230.700 C 131.178 229.875,131.178 228.525,131.091 227.700 C 131.005 226.875,130.934 227.550,130.934 229.200 M165.701 227.800 C 165.705 228.680,165.787 228.993,165.883 228.495 C 165.979 227.998,165.975 227.278,165.875 226.895 C 165.775 226.513,165.696 226.920,165.701 227.800 M166.137 234.600 C 166.139 236.360,166.209 237.030,166.293 236.089 C 166.378 235.149,166.377 233.709,166.291 232.889 C 166.205 232.070,166.136 232.840,166.137 234.600 M131.337 237.000 C 131.339 238.760,131.409 239.430,131.493 238.489 C 131.578 237.549,131.577 236.109,131.491 235.289 C 131.405 234.470,131.336 235.240,131.337 237.000 M72.093 237.600 C 72.093 238.370,72.175 238.685,72.276 238.300 C 72.376 237.915,72.376 237.285,72.276 236.900 C 72.175 236.515,72.093 236.830,72.093 237.600 M166.524 241.400 C 166.526 242.720,166.601 243.212,166.690 242.493 C 166.779 241.774,166.777 240.694,166.686 240.093 C 166.595 239.492,166.522 240.080,166.524 241.400 M131.728 244.000 C 131.728 245.430,131.801 246.015,131.889 245.300 C 131.978 244.585,131.978 243.415,131.889 242.700 C 131.801 241.985,131.728 242.570,131.728 244.000 M166.800 244.352 C 166.800 244.742,168.355 246.198,168.523 245.964 C 168.587 245.874,168.226 245.401,167.720 244.914 C 167.214 244.427,166.800 244.174,166.800 244.352 M132.128 249.600 C 132.128 251.030,132.201 251.615,132.289 250.900 C 132.378 250.185,132.378 249.015,132.289 248.300 C 132.201 247.585,132.128 248.170,132.128 249.600 M177.400 249.014 C 178.060 249.317,178.870 249.558,179.200 249.552 C 179.530 249.545,179.170 249.297,178.400 249.000 C 176.574 248.297,175.855 248.307,177.400 249.014 M73.600 254.600 C 73.600 255.370,73.670 256.000,73.756 256.000 C 73.842 256.000,73.986 255.370,74.076 254.600 C 74.166 253.830,74.096 253.200,73.920 253.200 C 73.744 253.200,73.600 253.830,73.600 254.600 M325.924 254.600 C 326.014 255.370,326.158 256.000,326.244 256.000 C 326.330 256.000,326.400 255.370,326.400 254.600 C 326.400 253.830,326.256 253.200,326.080 253.200 C 325.904 253.200,325.834 253.830,325.924 254.600 M132.544 257.200 C 132.544 259.290,132.612 260.145,132.694 259.100 C 132.776 258.055,132.776 256.345,132.694 255.300 C 132.612 254.255,132.544 255.110,132.544 257.200 M191.600 253.720 C 191.600 253.992,196.493 255.641,196.695 255.438 C 196.781 255.352,195.895 254.967,194.726 254.582 C 193.557 254.198,192.375 253.800,192.100 253.699 C 191.825 253.597,191.600 253.607,191.600 253.720 M132.931 265.800 C 132.933 267.340,133.005 267.921,133.092 267.091 C 133.179 266.261,133.177 265.001,133.089 264.291 C 133.000 263.581,132.929 264.260,132.931 265.800 M133.225 269.278 C 133.211 269.650,133.605 270.379,134.100 270.897 C 134.595 271.415,134.784 271.557,134.521 271.211 C 134.258 270.866,133.864 270.137,133.646 269.592 C 133.383 268.932,133.242 268.827,133.225 269.278 M75.301 272.200 C 75.305 273.080,75.387 273.393,75.483 272.895 C 75.579 272.398,75.575 271.678,75.475 271.295 C 75.375 270.913,75.296 271.320,75.301 272.200 M324.501 272.200 C 324.505 273.080,324.587 273.393,324.683 272.895 C 324.779 272.398,324.775 271.678,324.675 271.295 C 324.575 270.913,324.496 271.320,324.501 272.200 M137.844 272.982 C 138.528 273.298,139.608 273.659,140.244 273.784 C 141.233 273.979,141.198 273.933,140.000 273.463 C 137.840 272.616,136.313 272.276,137.844 272.982 M143.800 275.014 C 144.460 275.317,145.270 275.558,145.600 275.552 C 145.930 275.545,145.570 275.297,144.800 275.000 C 142.974 274.297,142.255 274.307,143.800 275.014 M148.600 276.614 C 149.260 276.917,150.070 277.158,150.400 277.152 C 150.730 277.145,150.370 276.897,149.600 276.600 C 147.774 275.897,147.055 275.907,148.600 276.614 M163.200 281.400 C 165.026 282.103,165.745 282.093,164.200 281.386 C 163.540 281.083,162.730 280.842,162.400 280.848 C 162.070 280.855,162.430 281.103,163.200 281.400 M166.200 282.400 C 166.640 282.589,167.270 282.744,167.600 282.744 C 167.978 282.744,167.904 282.617,167.400 282.400 C 166.960 282.211,166.330 282.056,166.000 282.056 C 165.622 282.056,165.696 282.183,166.200 282.400 M169.400 283.414 C 170.060 283.717,170.870 283.958,171.200 283.952 C 171.530 283.945,171.170 283.697,170.400 283.400 C 168.574 282.697,167.855 282.707,169.400 283.414 M174.200 285.014 C 174.860 285.317,175.670 285.558,176.000 285.552 C 176.330 285.545,175.970 285.297,175.200 285.000 C 173.374 284.297,172.655 284.307,174.200 285.014 M179.044 286.582 C 179.728 286.898,180.808 287.259,181.444 287.384 C 182.433 287.579,182.398 287.533,181.200 287.063 C 179.040 286.216,177.513 285.876,179.044 286.582 M183.800 288.214 C 184.460 288.517,185.270 288.758,185.600 288.752 C 185.930 288.745,185.570 288.497,184.800 288.200 C 182.974 287.497,182.255 287.507,183.800 288.214 M76.893 289.200 C 76.893 289.970,76.975 290.285,77.076 289.900 C 77.176 289.515,77.176 288.885,77.076 288.500 C 76.975 288.115,76.893 288.430,76.893 289.200 M322.893 289.200 C 322.893 289.970,322.975 290.285,323.076 289.900 C 323.176 289.515,323.176 288.885,323.076 288.500 C 322.975 288.115,322.893 288.430,322.893 289.200 M193.168 291.228 C 194.360 291.651,195.405 291.928,195.490 291.844 C 195.676 291.657,192.033 290.388,191.429 290.429 C 191.193 290.445,191.976 290.805,193.168 291.228 " stroke="none" fill="#049ce4" fill-rule="evenodd"></path><path id="path2" d="M58.974 38.358 C 59.096 38.555,58.917 38.823,58.577 38.954 C 58.223 39.089,58.063 39.022,58.203 38.795 C 58.570 38.202,57.893 38.319,56.887 39.024 C 55.152 40.239,54.797 41.609,54.847 46.880 C 54.889 51.290,55.375 57.920,55.545 56.400 C 55.605 55.867,55.655 55.867,56.000 56.400 C 56.527 57.215,56.499 57.709,55.946 57.367 C 55.622 57.167,55.575 57.474,55.781 58.443 C 55.940 59.189,56.201 62.140,56.362 65.000 C 56.523 67.860,56.687 69.716,56.727 69.124 C 56.872 66.985,57.401 67.742,57.440 70.143 C 57.467 71.805,57.383 72.277,57.180 71.600 C 56.964 70.880,56.870 71.272,56.846 73.000 C 56.826 74.449,56.946 75.189,57.150 74.866 C 57.420 74.441,57.540 74.468,57.744 74.999 C 58.104 75.937,58.066 76.088,57.546 75.767 C 57.222 75.566,57.175 75.874,57.382 76.843 C 57.541 77.589,57.775 80.270,57.902 82.800 C 58.066 86.089,58.220 87.058,58.441 86.200 C 58.611 85.540,58.654 86.710,58.536 88.800 C 58.402 91.167,58.512 93.505,58.827 95.000 C 59.105 96.320,59.451 98.930,59.597 100.800 C 59.743 102.670,59.893 103.716,59.931 103.124 C 59.969 102.532,60.143 101.959,60.318 101.851 C 60.493 101.742,60.508 102.677,60.352 103.927 C 59.963 107.032,59.972 112.015,60.365 111.011 C 60.642 110.301,60.693 110.329,60.879 111.299 C 61.007 111.970,60.931 112.281,60.679 112.125 C 60.413 111.961,60.369 112.547,60.551 113.837 C 61.012 117.097,61.497 119.444,61.550 118.676 C 61.577 118.278,61.749 118.045,61.931 118.157 C 62.113 118.270,62.126 119.315,61.960 120.481 C 61.548 123.377,61.580 130.111,62.000 128.800 C 62.267 127.967,62.328 127.933,62.366 128.600 C 62.391 129.040,62.502 129.850,62.614 130.400 C 62.790 131.272,62.768 131.297,62.436 130.600 C 62.131 129.957,62.051 130.148,62.028 131.576 C 62.004 133.092,62.074 133.252,62.500 132.670 C 62.950 132.055,63.006 132.087,63.058 132.991 C 63.092 133.601,62.950 133.893,62.695 133.735 C 62.416 133.563,62.363 133.915,62.538 134.788 C 62.682 135.510,62.800 136.252,62.800 136.437 C 62.800 136.623,63.048 136.680,63.351 136.564 C 63.796 136.393,63.837 136.683,63.568 138.076 C 63.133 140.328,63.161 148.169,63.600 146.800 L 63.920 145.800 63.966 146.800 C 63.991 147.350,64.102 148.250,64.214 148.800 C 64.390 149.672,64.368 149.697,64.036 149.000 C 63.718 148.329,63.652 148.437,63.628 149.669 C 63.597 151.291,64.403 155.200,64.769 155.199 C 64.896 155.199,64.972 157.584,64.937 160.499 C 64.903 163.415,64.963 165.350,65.071 164.800 C 65.179 164.250,65.411 163.651,65.586 163.468 C 65.761 163.285,65.754 163.915,65.570 164.868 C 65.076 167.422,65.117 170.018,65.650 169.900 C 65.898 169.845,66.191 170.050,66.302 170.356 C 66.436 170.725,66.334 170.806,65.998 170.599 C 65.609 170.358,65.560 170.599,65.785 171.643 C 65.946 172.389,66.179 175.340,66.303 178.200 C 66.458 181.761,66.625 183.022,66.835 182.200 C 67.008 181.523,67.049 182.395,66.930 184.200 C 66.803 186.124,66.923 188.357,67.231 189.800 C 67.513 191.120,67.858 194.180,67.998 196.600 C 68.138 199.020,68.285 200.415,68.326 199.700 C 68.462 197.310,69.000 198.372,69.036 201.103 C 69.061 203.021,68.976 203.511,68.742 202.800 C 68.540 202.188,68.476 203.195,68.576 205.400 C 68.666 207.380,68.933 209.507,69.170 210.126 C 69.406 210.745,69.627 212.635,69.660 214.326 C 69.693 216.017,69.795 216.905,69.887 216.300 C 69.978 215.695,70.189 215.200,70.355 215.200 C 70.521 215.200,70.522 216.145,70.357 217.300 C 69.867 220.744,70.000 224.350,70.782 228.800 C 71.187 231.110,71.538 232.584,71.560 232.076 C 71.582 231.568,71.746 231.243,71.924 231.353 C 72.102 231.463,72.117 232.598,71.957 233.876 C 71.541 237.216,71.571 243.198,72.000 242.200 C 72.231 241.662,72.355 241.596,72.377 242.000 C 72.396 242.330,72.502 243.050,72.614 243.600 C 72.790 244.472,72.768 244.497,72.436 243.800 C 72.118 243.129,72.052 243.237,72.028 244.469 C 71.985 246.718,72.836 249.961,73.411 249.740 C 73.782 249.598,73.820 249.972,73.568 251.276 C 73.223 253.060,73.144 261.620,73.485 260.200 C 73.878 258.568,74.292 258.798,73.970 260.468 C 73.610 262.328,73.530 265.729,73.866 264.898 C 74.124 264.258,74.800 264.655,74.800 265.447 C 74.800 265.777,74.620 265.936,74.400 265.800 C 73.887 265.483,73.887 266.451,74.399 267.798 C 74.630 268.405,74.984 268.733,75.239 268.576 C 75.560 268.378,75.560 268.527,75.240 269.125 C 74.987 269.599,74.817 271.867,74.840 274.474 C 74.867 277.530,74.990 278.675,75.221 278.000 C 75.446 277.338,75.486 277.767,75.339 279.267 C 75.099 281.703,75.498 285.711,75.951 285.430 C 76.103 285.336,76.231 285.651,76.237 286.130 C 76.313 292.931,76.540 296.823,76.801 295.800 C 76.974 295.125,77.026 296.262,76.921 298.400 C 76.802 300.839,76.870 302.009,77.112 301.666 C 77.416 301.236,77.538 301.262,77.744 301.799 C 78.104 302.737,78.066 302.888,77.546 302.567 C 77.223 302.367,77.174 302.675,77.377 303.643 C 77.534 304.389,77.796 307.070,77.961 309.600 C 78.125 312.130,78.291 313.615,78.330 312.900 C 78.368 312.185,78.544 311.600,78.721 311.600 C 78.897 311.600,78.876 313.081,78.673 314.892 C 77.662 323.906,81.683 331.222,86.898 329.858 C 87.328 329.746,87.568 329.765,87.433 329.900 C 87.297 330.036,87.750 330.384,88.439 330.673 C 89.931 331.300,90.537 331.346,90.203 330.805 C 90.063 330.578,90.223 330.511,90.577 330.646 C 90.917 330.777,91.096 331.045,90.974 331.242 C 90.852 331.439,91.134 331.600,91.600 331.600 C 92.139 331.600,92.343 331.432,92.162 331.138 C 91.984 330.850,92.052 330.785,92.345 330.966 C 92.602 331.125,92.709 331.423,92.583 331.628 C 92.456 331.832,92.734 332.000,93.200 332.000 C 93.739 332.000,93.943 331.832,93.762 331.538 C 93.584 331.250,93.652 331.185,93.945 331.366 C 94.202 331.525,94.315 331.814,94.195 332.008 C 94.075 332.202,94.657 332.544,95.488 332.767 C 96.320 332.991,97.984 333.442,99.188 333.769 C 100.874 334.228,101.445 334.253,101.681 333.882 C 101.886 333.560,101.990 333.647,101.994 334.147 C 101.999 334.729,102.223 334.851,103.014 334.699 C 103.571 334.593,103.933 334.600,103.818 334.716 C 103.595 334.939,107.439 336.365,108.324 336.387 C 108.612 336.394,108.760 336.259,108.653 336.086 C 108.546 335.913,108.796 335.771,109.207 335.771 C 109.772 335.771,109.851 335.898,109.529 336.286 C 109.205 336.676,109.296 336.800,109.902 336.800 C 110.342 336.800,111.349 337.070,112.138 337.400 C 113.799 338.094,114.551 338.168,114.203 337.605 C 114.063 337.378,114.223 337.311,114.577 337.446 C 114.917 337.577,115.081 337.869,114.941 338.096 C 114.779 338.357,115.137 338.441,115.922 338.326 C 116.602 338.226,117.073 338.282,116.970 338.449 C 116.866 338.616,117.821 339.057,119.091 339.428 C 120.361 339.799,122.470 340.439,123.778 340.851 C 126.437 341.689,127.365 341.790,127.003 341.205 C 126.861 340.976,127.027 340.912,127.396 341.054 C 127.747 341.189,127.937 341.396,127.818 341.515 C 127.581 341.753,131.439 343.200,132.308 343.200 C 132.605 343.200,132.737 343.022,132.603 342.805 C 132.461 342.576,132.627 342.512,132.996 342.654 C 133.347 342.789,133.535 342.998,133.414 343.120 C 133.153 343.380,135.313 344.187,138.400 344.984 C 139.610 345.297,141.033 345.681,141.563 345.839 C 142.300 346.059,142.449 346.003,142.201 345.601 C 141.980 345.243,142.032 345.172,142.365 345.378 C 142.633 345.544,142.740 345.793,142.602 345.931 C 142.389 346.144,144.291 346.744,148.759 347.874 C 149.482 348.056,149.640 347.988,149.398 347.596 C 149.184 347.251,149.234 347.174,149.545 347.366 C 149.802 347.525,149.895 347.847,149.750 348.081 C 149.577 348.361,149.912 348.445,150.722 348.326 C 151.402 348.226,151.867 348.292,151.755 348.472 C 151.644 348.653,151.844 348.800,152.200 348.800 C 152.587 348.800,152.733 348.615,152.562 348.338 C 152.384 348.050,152.452 347.985,152.745 348.166 C 153.002 348.325,153.121 348.604,153.009 348.786 C 152.787 349.145,153.709 349.600,154.656 349.600 C 155.001 349.600,155.128 349.408,154.962 349.138 C 154.784 348.850,154.852 348.785,155.145 348.966 C 155.402 349.125,155.495 349.447,155.350 349.681 C 155.177 349.961,155.517 350.044,156.340 349.923 C 157.030 349.822,157.502 349.831,157.390 349.943 C 157.179 350.155,159.407 351.200,160.070 351.200 C 160.277 351.200,160.337 351.022,160.203 350.805 C 160.063 350.578,160.223 350.511,160.577 350.646 C 160.917 350.777,161.096 351.045,160.974 351.242 C 160.852 351.439,161.134 351.600,161.600 351.600 C 162.139 351.600,162.343 351.432,162.162 351.138 C 161.984 350.850,162.052 350.785,162.345 350.966 C 162.602 351.125,162.709 351.423,162.583 351.628 C 162.456 351.832,162.734 352.000,163.200 352.000 C 163.739 352.000,163.943 351.832,163.762 351.538 C 163.584 351.250,163.652 351.185,163.945 351.366 C 164.202 351.525,164.315 351.814,164.195 352.008 C 164.075 352.202,164.657 352.544,165.488 352.767 C 166.320 352.991,167.984 353.442,169.188 353.769 C 170.874 354.228,171.445 354.253,171.681 353.882 C 171.886 353.560,171.990 353.647,171.994 354.147 C 171.999 354.729,172.223 354.851,173.014 354.699 C 173.571 354.593,173.933 354.600,173.818 354.716 C 173.595 354.939,177.439 356.365,178.324 356.387 C 178.612 356.394,178.760 356.259,178.653 356.086 C 178.546 355.913,178.796 355.771,179.207 355.771 C 179.772 355.771,179.851 355.898,179.529 356.286 C 179.205 356.676,179.296 356.800,179.902 356.800 C 180.342 356.800,181.349 357.070,182.138 357.400 C 183.799 358.094,184.551 358.168,184.203 357.605 C 184.063 357.378,184.223 357.311,184.577 357.446 C 184.917 357.577,185.081 357.869,184.941 358.096 C 184.779 358.357,185.137 358.441,185.922 358.326 C 186.602 358.226,187.073 358.282,186.970 358.449 C 186.866 358.616,187.821 359.057,189.091 359.428 C 190.361 359.799,192.470 360.439,193.778 360.851 C 196.394 361.675,197.365 361.791,197.023 361.237 C 196.900 361.038,197.174 360.973,197.633 361.093 C 198.268 361.259,198.340 361.392,197.934 361.649 C 197.611 361.854,198.428 361.988,200.000 361.988 C 201.572 361.988,202.389 361.854,202.066 361.649 C 201.660 361.392,201.732 361.259,202.367 361.093 C 202.826 360.973,203.100 361.038,202.977 361.237 C 202.854 361.437,202.973 361.600,203.241 361.600 C 204.152 361.600,207.965 360.267,207.803 360.005 C 207.715 359.862,208.130 359.816,208.726 359.904 C 209.323 359.991,210.760 359.689,211.920 359.231 C 213.080 358.774,214.405 358.400,214.864 358.400 C 215.498 358.400,215.596 358.277,215.271 357.886 C 214.949 357.498,215.028 357.371,215.593 357.371 C 216.004 357.371,216.236 357.541,216.108 357.749 C 215.968 357.975,216.260 358.006,216.837 357.825 C 217.367 357.659,218.565 357.307,219.501 357.043 C 220.621 356.726,221.067 356.427,220.807 356.167 C 220.546 355.906,220.673 355.771,221.176 355.771 C 221.597 355.771,221.854 355.913,221.747 356.086 C 221.479 356.519,222.054 356.479,223.540 355.961 C 224.232 355.720,224.719 355.392,224.621 355.233 C 224.523 355.075,224.998 355.026,225.678 355.126 C 226.471 355.243,226.821 355.158,226.656 354.891 C 226.501 354.639,226.691 354.551,227.139 354.668 C 227.546 354.774,228.509 354.598,229.280 354.276 C 230.051 353.954,231.423 353.565,232.330 353.412 C 233.236 353.259,233.961 353.013,233.942 352.867 C 233.845 352.158,234.044 351.850,234.319 352.283 C 234.558 352.658,234.957 352.652,236.117 352.253 C 236.936 351.971,237.508 351.641,237.386 351.520 C 237.265 351.398,237.453 351.189,237.804 351.054 C 238.173 350.912,238.339 350.976,238.197 351.205 C 238.063 351.422,238.334 351.600,238.800 351.600 C 239.345 351.600,239.544 351.433,239.358 351.132 C 239.159 350.810,239.294 350.751,239.794 350.942 C 240.193 351.095,241.257 350.961,242.160 350.644 C 243.062 350.326,244.675 349.843,245.744 349.569 C 246.814 349.295,248.055 348.695,248.503 348.236 C 248.951 347.776,249.191 347.625,249.035 347.900 C 248.841 348.245,249.078 348.400,249.800 348.400 C 250.376 348.400,250.744 348.232,250.617 348.028 C 250.491 347.823,250.598 347.525,250.855 347.366 C 251.148 347.185,251.216 347.250,251.038 347.538 C 250.869 347.812,251.007 348.000,251.376 348.000 C 251.719 348.000,252.003 347.685,252.006 347.300 C 252.011 346.756,252.089 346.721,252.355 347.141 C 252.619 347.557,252.890 347.580,253.523 347.241 C 253.976 346.999,254.674 346.799,255.074 346.798 C 256.541 346.793,258.828 345.937,259.661 345.080 C 260.132 344.596,260.391 344.425,260.235 344.700 C 259.918 345.262,260.463 345.327,262.344 344.951 C 263.054 344.809,263.477 344.525,263.332 344.289 C 263.191 344.062,263.252 343.985,263.466 344.117 C 263.936 344.408,267.327 343.460,266.997 343.131 C 266.870 343.003,267.053 342.789,267.404 342.654 C 267.773 342.512,267.939 342.576,267.797 342.805 C 267.663 343.022,267.934 343.200,268.400 343.200 C 268.939 343.200,269.143 343.032,268.962 342.738 C 268.784 342.451,268.852 342.385,269.142 342.564 C 269.733 342.929,271.283 342.457,270.999 341.999 C 270.883 341.810,270.998 341.525,271.255 341.366 C 271.548 341.185,271.616 341.250,271.438 341.538 C 271.257 341.832,271.461 342.000,272.000 342.000 C 272.466 342.000,272.748 341.839,272.626 341.642 C 272.504 341.445,272.683 341.177,273.023 341.046 C 273.377 340.911,273.537 340.978,273.397 341.205 C 273.122 341.650,273.767 341.705,275.096 341.349 C 275.588 341.217,275.920 340.995,275.834 340.855 C 275.747 340.715,276.121 340.573,276.665 340.541 C 277.208 340.508,277.924 340.148,278.256 339.741 C 278.588 339.333,278.745 339.225,278.606 339.500 C 278.227 340.249,279.661 340.122,282.000 339.200 C 283.116 338.760,284.405 338.400,284.864 338.400 C 285.498 338.400,285.596 338.277,285.271 337.886 C 284.949 337.498,285.028 337.371,285.593 337.371 C 286.004 337.371,286.236 337.541,286.108 337.749 C 285.968 337.975,286.260 338.006,286.837 337.825 C 287.367 337.659,288.565 337.307,289.501 337.043 C 290.621 336.726,291.067 336.427,290.807 336.167 C 290.546 335.906,290.673 335.771,291.176 335.771 C 291.597 335.771,291.854 335.913,291.747 336.086 C 291.479 336.519,292.054 336.479,293.540 335.961 C 294.232 335.720,294.719 335.392,294.621 335.233 C 294.523 335.075,294.998 335.026,295.678 335.126 C 296.471 335.243,296.821 335.158,296.656 334.891 C 296.501 334.639,296.691 334.551,297.139 334.668 C 297.546 334.774,298.509 334.598,299.280 334.276 C 300.051 333.954,301.423 333.565,302.330 333.412 C 303.236 333.259,303.961 333.013,303.942 332.867 C 303.845 332.158,304.044 331.850,304.319 332.283 C 304.558 332.658,304.957 332.652,306.117 332.253 C 306.936 331.971,307.508 331.641,307.386 331.520 C 307.265 331.398,307.453 331.189,307.804 331.054 C 308.173 330.912,308.339 330.976,308.197 331.205 C 308.063 331.422,308.334 331.600,308.800 331.600 C 309.266 331.600,309.552 331.446,309.436 331.258 C 309.320 331.070,309.714 330.911,310.312 330.905 C 315.146 330.855,319.355 328.073,320.746 324.009 C 321.310 322.360,321.796 314.990,321.260 316.200 C 321.015 316.754,320.921 316.171,320.953 314.303 C 321.001 311.570,321.541 310.512,321.670 312.900 C 321.709 313.615,321.875 312.130,322.039 309.600 C 322.204 307.070,322.466 304.389,322.623 303.643 C 322.846 302.581,322.794 302.356,322.386 302.609 C 322.005 302.844,321.937 302.742,322.132 302.233 C 322.279 301.849,322.413 301.324,322.428 301.067 C 322.444 300.810,322.627 300.960,322.835 301.400 C 323.092 301.942,323.160 300.975,323.046 298.400 C 322.947 296.174,323.010 295.014,323.199 295.600 C 323.473 296.453,323.688 292.841,323.763 286.130 C 323.769 285.651,323.891 285.333,324.036 285.422 C 324.882 285.945,325.619 269.986,324.794 268.993 C 324.352 268.460,324.356 268.375,324.820 268.477 C 325.181 268.557,325.543 267.970,325.855 266.800 C 326.402 264.752,326.548 260.881,326.029 262.200 C 325.819 262.733,325.729 262.308,325.757 260.925 C 325.799 258.890,326.102 258.611,326.546 260.200 C 326.668 260.640,326.709 258.532,326.636 255.516 C 326.562 252.500,326.644 249.980,326.818 249.916 C 326.991 249.852,327.263 249.099,327.422 248.242 C 327.646 247.034,327.597 246.755,327.203 246.998 C 326.866 247.206,326.764 247.125,326.898 246.756 C 327.009 246.450,327.303 246.245,327.550 246.300 C 327.832 246.363,327.989 245.764,327.972 244.700 C 327.949 243.320,327.872 243.151,327.564 243.800 C 327.232 244.497,327.210 244.472,327.386 243.600 C 327.498 243.050,327.609 242.240,327.634 241.800 C 327.672 241.133,327.733 241.167,328.000 242.000 C 328.420 243.311,328.452 236.577,328.040 233.681 C 327.874 232.515,327.887 231.470,328.069 231.357 C 328.251 231.245,328.418 231.568,328.439 232.076 C 328.461 232.584,328.832 231.020,329.263 228.600 C 330.030 224.298,330.074 217.401,329.348 215.351 C 329.164 214.830,329.212 214.722,329.507 215.000 C 329.741 215.220,330.013 215.850,330.112 216.400 C 330.210 216.950,330.318 216.050,330.351 214.400 C 330.384 212.750,330.527 210.967,330.668 210.437 C 330.864 209.705,330.800 209.553,330.401 209.799 C 330.051 210.016,329.973 209.968,330.166 209.655 C 330.325 209.398,330.608 209.282,330.795 209.397 C 331.371 209.753,331.714 204.566,331.325 201.399 C 330.986 198.648,331.330 196.969,331.713 199.500 C 331.805 200.105,331.907 198.857,331.940 196.726 C 331.973 194.595,332.192 192.348,332.426 191.731 C 332.661 191.115,332.928 189.078,333.020 187.205 C 333.125 185.074,333.063 184.174,332.854 184.800 C 332.609 185.534,332.531 185.141,332.560 183.326 C 332.599 180.890,332.961 180.444,333.312 182.400 C 333.410 182.950,333.516 181.321,333.546 178.780 C 333.575 176.239,333.427 173.987,333.217 173.777 C 332.972 173.532,332.986 173.177,333.254 172.797 C 333.606 172.298,333.639 172.315,333.450 172.900 C 333.326 173.285,333.378 173.600,333.566 173.600 C 333.937 173.600,334.386 172.232,334.395 171.076 C 334.398 170.640,334.221 170.464,333.948 170.632 C 333.671 170.803,333.574 170.696,333.698 170.356 C 333.809 170.050,334.085 169.839,334.311 169.887 C 334.812 169.993,335.362 162.062,335.133 158.024 C 335.046 156.471,335.136 155.200,335.334 155.200 C 335.531 155.200,335.608 154.755,335.504 154.212 C 335.401 153.669,335.448 153.306,335.609 153.406 C 335.974 153.631,336.402 151.583,336.394 149.650 C 336.389 148.511,336.296 148.329,335.959 148.800 C 335.623 149.271,335.580 149.184,335.760 148.400 C 335.886 147.850,336.009 147.040,336.034 146.600 C 336.072 145.933,336.133 145.967,336.400 146.800 C 336.852 148.211,336.876 139.812,336.426 137.871 C 336.148 136.673,336.184 136.385,336.591 136.541 C 336.923 136.669,337.200 136.298,337.356 135.521 C 337.689 133.855,337.664 133.513,337.227 133.784 C 337.021 133.911,336.869 133.451,336.889 132.763 C 336.924 131.533,336.933 131.527,337.419 132.435 C 338.135 133.773,338.635 126.563,338.152 121.865 C 337.952 119.921,337.926 118.246,338.094 118.142 C 338.262 118.038,338.423 118.278,338.450 118.676 C 338.516 119.636,339.068 116.659,339.651 112.200 C 339.977 109.704,340.006 107.528,339.745 105.105 C 339.408 101.968,339.658 100.670,340.112 103.200 C 340.287 104.177,340.606 98.379,340.486 96.400 C 340.439 95.624,340.510 95.534,340.806 96.000 C 341.093 96.450,341.189 96.270,341.194 95.276 C 341.198 94.367,341.054 94.043,340.732 94.242 C 340.413 94.439,340.349 94.309,340.532 93.833 C 340.679 93.449,340.813 92.924,340.828 92.667 C 340.844 92.410,341.011 92.560,341.200 93.000 C 341.632 94.005,341.661 90.428,341.248 87.127 C 341.092 85.877,341.107 84.942,341.282 85.051 C 341.457 85.159,341.632 85.732,341.670 86.324 C 341.709 86.916,341.875 85.330,342.039 82.800 C 342.204 80.270,342.466 77.589,342.623 76.843 C 342.846 75.781,342.794 75.556,342.386 75.809 C 342.005 76.044,341.937 75.942,342.132 75.433 C 342.279 75.049,342.403 74.614,342.406 74.467 C 342.409 74.320,342.587 74.470,342.800 74.800 C 343.278 75.540,343.304 72.321,342.842 69.517 C 342.672 68.482,342.682 67.727,342.866 67.841 C 343.050 67.954,343.233 68.532,343.273 69.124 C 343.313 69.716,343.477 67.860,343.638 65.000 C 343.799 62.140,344.060 59.189,344.219 58.443 C 344.445 57.380,344.395 57.156,343.986 57.409 C 343.605 57.644,343.537 57.542,343.732 57.033 C 343.879 56.649,344.003 56.214,344.006 56.067 C 344.009 55.920,344.204 56.070,344.439 56.400 C 344.749 56.836,344.813 56.073,344.675 53.600 C 344.566 51.642,344.620 50.624,344.803 51.200 C 344.997 51.812,345.136 50.135,345.160 46.876 C 345.186 43.460,345.058 41.640,344.805 41.797 C 344.579 41.937,344.510 41.779,344.644 41.429 C 344.786 41.059,344.402 40.340,343.670 39.609 C 342.538 38.476,341.256 37.920,341.797 38.795 C 341.937 39.022,341.777 39.089,341.423 38.954 C 341.083 38.823,340.904 38.555,341.026 38.358 C 341.156 38.148,283.041 38.000,200.000 38.000 C 116.959 38.000,58.844 38.148,58.974 38.358 M269.900 38.700 C 231.455 38.756,168.545 38.756,130.100 38.700 C 91.655 38.644,123.110 38.598,200.000 38.598 C 276.890 38.598,308.345 38.644,269.900 38.700 M55.487 45.900 C 55.395 46.505,55.320 46.010,55.320 44.800 C 55.320 43.590,55.395 43.095,55.487 43.700 C 55.578 44.305,55.578 45.295,55.487 45.900 M344.687 45.900 C 344.595 46.505,344.520 46.010,344.520 44.800 C 344.520 43.590,344.595 43.095,344.687 43.700 C 344.778 44.305,344.778 45.295,344.687 45.900 M55.654 51.300 C 55.524 52.112,55.387 52.328,55.289 51.877 C 55.140 51.189,55.412 50.000,55.718 50.000 C 55.797 50.000,55.768 50.585,55.654 51.300 M57.083 63.295 C 56.987 63.793,56.905 63.480,56.901 62.600 C 56.896 61.720,56.975 61.313,57.075 61.695 C 57.175 62.078,57.179 62.798,57.083 63.295 M343.076 63.100 C 342.975 63.485,342.893 63.170,342.893 62.400 C 342.893 61.630,342.975 61.315,343.076 61.700 C 343.176 62.085,343.176 62.715,343.076 63.100 M310.973 66.658 C 313.857 67.054,314.115 67.697,313.618 73.249 C 313.394 75.752,312.841 82.120,312.389 87.400 C 311.937 92.680,311.222 100.960,310.801 105.800 C 309.118 125.124,308.394 133.528,308.182 136.200 C 308.060 137.740,307.788 140.710,307.577 142.800 C 307.172 146.813,304.351 179.334,303.379 191.200 C 303.064 195.050,302.629 200.000,302.414 202.200 C 302.198 204.400,301.566 211.600,301.008 218.200 C 300.451 224.800,299.816 232.090,299.598 234.400 C 299.123 239.439,297.877 253.886,296.805 266.800 C 296.375 271.970,295.931 276.920,295.816 277.800 C 295.702 278.680,295.427 281.830,295.205 284.800 C 293.619 305.993,293.661 305.855,288.395 307.342 C 287.188 307.683,270.990 312.310,252.400 317.624 C 233.810 322.937,217.610 327.552,216.400 327.878 C 215.190 328.204,211.788 329.175,208.840 330.036 C 202.747 331.814,201.029 331.975,200.414 330.826 C 200.147 330.327,200.000 323.806,200.000 312.408 L 200.000 294.764 199.077 293.841 C 198.423 293.187,193.672 291.440,182.777 287.849 C 129.293 270.218,133.924 271.955,133.243 269.279 C 133.035 268.465,132.751 264.740,132.610 261.000 C 132.470 257.260,132.191 251.950,131.990 249.200 C 131.233 238.836,130.748 227.546,131.009 226.358 C 131.503 224.108,132.298 224.000,148.327 224.000 C 163.732 224.000,164.841 224.124,165.543 225.926 C 165.877 226.782,166.800 239.376,166.800 243.069 C 166.800 244.965,167.929 245.499,182.400 250.444 C 198.521 255.953,198.715 256.004,199.465 254.979 C 200.281 253.863,200.250 211.295,199.433 210.176 C 198.890 209.434,198.094 209.391,181.333 209.186 C 171.690 209.068,163.759 208.933,163.709 208.886 C 162.378 207.631,162.065 204.888,161.186 186.800 C 160.497 172.604,158.308 174.000,181.256 174.000 C 196.775 174.000,198.612 173.932,199.269 173.338 C 200.053 172.628,200.425 144.889,199.666 143.693 C 198.908 142.499,195.999 142.400,161.725 142.400 L 126.845 142.400 125.775 141.480 C 124.753 140.601,124.690 140.320,124.364 135.180 C 124.176 132.221,123.746 126.650,123.408 122.800 C 122.457 111.983,122.450 109.450,123.363 108.441 L 124.124 107.600 160.365 107.600 C 195.987 107.600,198.906 107.504,199.666 106.307 C 199.843 106.028,199.993 97.340,200.000 87.000 C 200.013 67.212,199.999 67.366,201.834 66.817 C 203.169 66.418,308.106 66.265,310.973 66.658 M59.566 94.400 C 59.585 94.933,59.545 94.933,59.200 94.400 C 58.987 94.070,58.822 93.440,58.834 93.000 L 58.856 92.200 59.200 93.000 C 59.389 93.440,59.554 94.070,59.566 94.400 M337.876 124.700 C 337.775 125.085,337.693 124.770,337.693 124.000 C 337.693 123.230,337.775 122.915,337.876 123.300 C 337.976 123.685,337.976 124.315,337.876 124.700 M63.883 142.095 C 63.787 142.593,63.705 142.280,63.701 141.400 C 63.696 140.520,63.775 140.113,63.875 140.495 C 63.975 140.878,63.979 141.598,63.883 142.095 M336.283 142.095 C 336.187 142.593,336.105 142.280,336.101 141.400 C 336.096 140.520,336.175 140.113,336.275 140.495 C 336.375 140.878,336.379 141.598,336.283 142.095 M65.482 159.700 C 65.387 160.195,65.309 159.790,65.309 158.800 C 65.309 157.810,65.387 157.405,65.482 157.900 C 65.578 158.395,65.578 159.205,65.482 159.700 M334.682 159.700 C 334.587 160.195,334.509 159.790,334.509 158.800 C 334.509 157.810,334.587 157.405,334.682 157.900 C 334.778 158.395,334.778 159.205,334.682 159.700 M334.719 164.854 C 334.593 165.655,334.537 165.598,334.352 164.487 C 334.221 163.693,334.279 163.319,334.501 163.541 C 334.703 163.743,334.801 164.333,334.719 164.854 M67.083 176.495 C 66.987 176.993,66.905 176.680,66.901 175.800 C 66.896 174.920,66.975 174.513,67.075 174.895 C 67.175 175.278,67.179 175.998,67.083 176.495 M333.083 176.495 C 332.987 176.993,332.905 176.680,332.901 175.800 C 332.896 174.920,332.975 174.513,333.075 174.895 C 333.175 175.278,333.179 175.998,333.083 176.495 M330.797 207.487 C 330.363 208.163,330.352 208.162,330.570 207.467 C 330.696 207.064,330.821 206.434,330.846 206.067 C 330.888 205.466,330.911 205.468,331.073 206.087 C 331.173 206.466,331.048 207.096,330.797 207.487 M70.956 225.000 C 71.152 225.876,71.115 226.038,70.818 225.600 C 70.595 225.270,70.409 224.655,70.406 224.233 C 70.398 223.210,70.627 223.529,70.956 225.000 M329.197 225.487 C 328.763 226.163,328.752 226.162,328.970 225.467 C 329.096 225.064,329.221 224.434,329.246 224.067 C 329.288 223.466,329.311 223.468,329.473 224.087 C 329.573 224.466,329.448 225.096,329.197 225.487 M72.276 238.300 C 72.175 238.685,72.093 238.370,72.093 237.600 C 72.093 236.830,72.175 236.515,72.276 236.900 C 72.376 237.285,72.376 237.915,72.276 238.300 M74.076 254.600 C 73.986 255.370,73.842 256.000,73.756 256.000 C 73.670 256.000,73.600 255.370,73.600 254.600 C 73.600 253.830,73.744 253.200,73.920 253.200 C 74.096 253.200,74.166 253.830,74.076 254.600 M326.400 254.600 C 326.400 255.370,326.330 256.000,326.244 256.000 C 326.158 256.000,326.014 255.370,325.924 254.600 C 325.834 253.830,325.904 253.200,326.080 253.200 C 326.256 253.200,326.400 253.830,326.400 254.600 M75.483 272.895 C 75.387 273.393,75.305 273.080,75.301 272.200 C 75.296 271.320,75.375 270.913,75.475 271.295 C 75.575 271.678,75.579 272.398,75.483 272.895 M324.683 272.895 C 324.587 273.393,324.505 273.080,324.501 272.200 C 324.496 271.320,324.575 270.913,324.675 271.295 C 324.775 271.678,324.779 272.398,324.683 272.895 M77.076 289.900 C 76.975 290.285,76.893 289.970,76.893 289.200 C 76.893 288.430,76.975 288.115,77.076 288.500 C 77.176 288.885,77.176 289.515,77.076 289.900 M323.076 289.900 C 322.975 290.285,322.893 289.970,322.893 289.200 C 322.893 288.430,322.975 288.115,323.076 288.500 C 323.176 288.885,323.176 289.515,323.076 289.900 M78.638 303.662 C 78.815 303.948,78.748 304.015,78.462 303.838 C 77.890 303.485,77.874 303.817,78.414 304.826 C 78.642 305.252,78.738 305.600,78.628 305.600 C 78.234 305.600,77.568 303.975,77.805 303.592 C 78.119 303.083,78.290 303.098,78.638 303.662 M322.400 303.947 C 322.400 304.112,322.120 304.596,321.778 305.024 C 321.182 305.768,321.174 305.762,321.596 304.892 C 321.839 304.392,321.911 303.779,321.757 303.530 C 321.585 303.252,321.655 303.187,321.938 303.362 C 322.192 303.519,322.400 303.782,322.400 303.947 M147.305 346.784 C 147.706 347.216,147.685 347.251,147.200 346.970 C 146.870 346.779,146.359 346.586,146.063 346.541 C 145.768 346.497,145.419 346.352,145.288 346.221 C 145.156 346.089,145.445 346.042,145.930 346.116 C 146.414 346.190,147.033 346.491,147.305 346.784 " stroke="none" fill="#0474bc" fill-rule="evenodd"></path><path id="path3" d="M56.901 69.400 C 56.905 70.280,56.987 70.593,57.083 70.095 C 57.179 69.598,57.175 68.878,57.075 68.495 C 56.975 68.113,56.896 68.520,56.901 69.400 M342.901 69.400 C 342.905 70.280,342.987 70.593,343.083 70.095 C 343.179 69.598,343.175 68.878,343.075 68.495 C 342.975 68.113,342.896 68.520,342.901 69.400 M58.514 87.000 C 58.517 88.100,58.595 88.503,58.687 87.895 C 58.779 87.286,58.777 86.386,58.682 85.895 C 58.587 85.403,58.511 85.900,58.514 87.000 M341.314 87.000 C 341.317 88.100,341.395 88.503,341.487 87.895 C 341.579 87.286,341.577 86.386,341.482 85.895 C 341.387 85.403,341.311 85.900,341.314 87.000 M60.114 103.800 C 60.117 104.900,60.195 105.303,60.287 104.695 C 60.379 104.086,60.377 103.186,60.282 102.695 C 60.187 102.203,60.111 102.700,60.114 103.800 M339.714 103.800 C 339.717 104.900,339.795 105.303,339.887 104.695 C 339.979 104.086,339.977 103.186,339.882 102.695 C 339.787 102.203,339.711 102.700,339.714 103.800 M200.414 107.580 C 198.709 108.668,202.765 108.800,237.826 108.800 C 272.515 108.800,273.623 108.823,274.365 109.565 C 275.223 110.423,275.233 109.542,274.182 125.800 C 273.855 130.860,273.323 139.770,273.000 145.600 C 272.676 151.430,272.321 156.830,272.210 157.600 C 272.099 158.370,271.736 164.130,271.402 170.400 C 271.068 176.670,270.712 182.880,270.611 184.200 C 270.230 189.150,270.002 192.734,269.783 197.200 C 269.659 199.730,269.305 205.490,268.995 210.000 C 268.686 214.510,268.325 220.360,268.193 223.000 C 268.061 225.640,267.614 233.110,267.200 239.600 C 266.786 246.090,266.237 255.180,265.979 259.800 C 265.578 266.988,265.000 270.800,264.311 270.800 C 264.240 270.800,259.686 272.306,254.191 274.146 C 248.696 275.987,234.750 280.600,223.200 284.397 C 201.779 291.441,200.000 292.089,200.000 292.861 C 200.000 293.529,202.635 292.991,207.940 291.240 C 210.503 290.394,224.422 285.805,238.872 281.042 C 269.230 271.035,266.987 272.164,267.341 266.713 C 267.680 261.492,268.376 250.046,268.819 242.400 C 269.042 238.550,269.572 230.000,269.998 223.400 C 270.423 216.800,270.878 209.060,271.008 206.200 C 271.139 203.340,271.497 197.760,271.802 193.800 C 272.108 189.840,272.470 183.900,272.606 180.600 C 272.742 177.300,273.104 171.360,273.411 167.400 C 273.717 163.440,274.075 157.680,274.207 154.600 C 274.339 151.520,274.709 145.580,275.030 141.400 C 275.351 137.220,275.798 130.200,276.023 125.800 C 276.247 121.400,276.536 115.820,276.664 113.400 C 277.021 106.648,281.898 107.418,238.058 107.303 C 215.545 107.243,200.770 107.352,200.414 107.580 M61.720 120.000 C 61.720 121.210,61.795 121.705,61.887 121.100 C 61.978 120.495,61.978 119.505,61.887 118.900 C 61.795 118.295,61.720 118.790,61.720 120.000 M338.120 120.000 C 338.120 121.210,338.195 121.705,338.287 121.100 C 338.378 120.495,338.378 119.505,338.287 118.900 C 338.195 118.295,338.120 118.790,338.120 120.000 M63.301 137.800 C 63.305 138.680,63.387 138.993,63.483 138.495 C 63.579 137.998,63.575 137.278,63.475 136.895 C 63.375 136.513,63.296 136.920,63.301 137.800 M336.493 137.600 C 336.493 138.370,336.575 138.685,336.676 138.300 C 336.776 137.915,336.776 137.285,336.676 136.900 C 336.575 136.515,336.493 136.830,336.493 137.600 M200.810 141.646 C 198.436 142.593,201.637 142.788,219.651 142.794 C 235.885 142.799,238.368 142.879,238.809 143.411 C 239.376 144.094,239.220 148.357,238.197 160.200 C 237.874 163.940,237.501 168.406,237.369 170.124 C 237.049 174.257,238.364 174.000,217.574 174.000 C 206.594 174.000,200.000 174.144,200.000 174.385 C 200.000 175.423,203.691 175.629,220.193 175.516 C 240.842 175.375,238.705 176.278,239.397 167.400 C 239.534 165.640,239.723 163.480,239.817 162.600 C 239.912 161.720,240.172 158.120,240.396 154.600 C 240.620 151.080,240.909 147.084,241.040 145.720 C 241.258 143.436,241.196 143.160,240.256 142.220 L 239.236 141.200 220.518 141.225 C 209.190 141.241,201.409 141.407,200.810 141.646 M63.693 147.200 C 63.693 147.970,63.775 148.285,63.876 147.900 C 63.976 147.515,63.976 146.885,63.876 146.500 C 63.775 146.115,63.693 146.430,63.693 147.200 M336.093 147.200 C 336.093 147.970,336.175 148.285,336.276 147.900 C 336.376 147.515,336.376 146.885,336.276 146.500 C 336.175 146.115,336.093 146.430,336.093 147.200 M65.293 164.800 C 65.293 165.570,65.375 165.885,65.476 165.500 C 65.576 165.115,65.576 164.485,65.476 164.100 C 65.375 163.715,65.293 164.030,65.293 164.800 M66.901 182.600 C 66.905 183.480,66.987 183.793,67.083 183.295 C 67.179 182.798,67.175 182.078,67.075 181.695 C 66.975 181.313,66.896 181.720,66.901 182.600 M332.901 182.600 C 332.905 183.480,332.987 183.793,333.083 183.295 C 333.179 182.798,333.175 182.078,333.075 181.695 C 332.975 181.313,332.896 181.720,332.901 182.600 M68.514 200.200 C 68.517 201.300,68.595 201.703,68.687 201.095 C 68.779 200.486,68.777 199.586,68.682 199.095 C 68.587 198.603,68.511 199.100,68.514 200.200 M331.314 200.200 C 331.317 201.300,331.395 201.703,331.487 201.095 C 331.579 200.486,331.577 199.586,331.482 199.095 C 331.387 198.603,331.311 199.100,331.314 200.200 M200.453 208.553 C 198.875 209.429,201.881 209.600,218.807 209.600 C 237.331 209.600,235.469 208.822,234.851 216.304 C 234.601 219.327,234.218 225.310,233.999 229.600 C 233.190 245.463,233.438 244.832,227.200 246.931 C 224.890 247.708,218.500 249.904,213.000 251.810 C 207.500 253.716,202.325 255.461,201.500 255.687 C 199.735 256.170,199.576 256.678,201.074 257.054 C 202.164 257.328,204.006 256.750,223.653 249.977 C 235.690 245.827,234.648 247.169,235.420 234.819 C 235.730 229.859,236.164 223.640,236.386 221.000 C 237.035 213.241,236.938 209.448,236.069 208.662 C 235.084 207.771,202.045 207.671,200.453 208.553 M70.114 217.000 C 70.117 218.100,70.195 218.503,70.287 217.895 C 70.379 217.286,70.377 216.386,70.282 215.895 C 70.187 215.403,70.111 215.900,70.114 217.000 M329.714 217.000 C 329.717 218.100,329.795 218.503,329.887 217.895 C 329.979 217.286,329.977 216.386,329.882 215.895 C 329.787 215.403,329.711 215.900,329.714 217.000 M71.724 233.400 C 71.726 234.720,71.801 235.212,71.890 234.493 C 71.979 233.774,71.977 232.694,71.886 232.093 C 71.795 231.492,71.722 232.080,71.724 233.400 M328.120 233.200 C 328.120 234.410,328.195 234.905,328.287 234.300 C 328.378 233.695,328.378 232.705,328.287 232.100 C 328.195 231.495,328.120 231.990,328.120 233.200 M73.301 251.000 C 73.305 251.880,73.387 252.193,73.483 251.695 C 73.579 251.198,73.575 250.478,73.475 250.095 C 73.375 249.713,73.296 250.120,73.301 251.000 M326.493 251.200 C 326.493 251.970,326.575 252.285,326.676 251.900 C 326.776 251.515,326.776 250.885,326.676 250.500 C 326.575 250.115,326.493 250.430,326.493 251.200 M73.693 260.400 C 73.693 261.170,73.775 261.485,73.876 261.100 C 73.976 260.715,73.976 260.085,73.876 259.700 C 73.775 259.315,73.693 259.630,73.693 260.400 M326.093 260.400 C 326.093 261.170,326.175 261.485,326.276 261.100 C 326.376 260.715,326.376 260.085,326.276 259.700 C 326.175 259.315,326.093 259.630,326.093 260.400 M76.893 296.000 C 76.893 296.770,76.975 297.085,77.076 296.700 C 77.176 296.315,77.176 295.685,77.076 295.300 C 76.975 294.915,76.893 295.230,76.893 296.000 M322.893 296.000 C 322.893 296.770,322.975 297.085,323.076 296.700 C 323.176 296.315,323.176 295.685,323.076 295.300 C 322.975 294.915,322.893 295.230,322.893 296.000 M78.520 313.600 C 78.520 314.810,78.595 315.305,78.687 314.700 C 78.778 314.095,78.778 313.105,78.687 312.500 C 78.595 311.895,78.520 312.390,78.520 313.600 M321.320 313.600 C 321.320 314.810,321.395 315.305,321.487 314.700 C 321.578 314.095,321.578 313.105,321.487 312.500 C 321.395 311.895,321.320 312.390,321.320 313.600 " stroke="none" fill="#61c1ef" fill-rule="evenodd"></path><path id="path4" d="M124.526 108.003 C 123.038 108.602,122.683 109.819,122.963 113.360 C 124.038 126.960,124.432 131.985,124.733 135.928 C 125.027 139.774,125.210 140.588,125.951 141.328 L 126.822 142.200 163.150 142.308 C 200.323 142.419,203.254 142.313,201.130 140.942 C 200.838 140.754,184.282 140.549,164.337 140.486 C 133.266 140.388,128.006 140.289,127.594 139.793 C 127.001 139.078,126.541 135.112,125.994 126.000 C 125.763 122.150,125.392 117.138,125.169 114.862 C 124.873 111.828,124.886 110.578,125.220 110.176 C 125.599 109.720,131.993 109.608,163.138 109.514 C 199.948 109.402,202.784 109.299,200.584 108.158 C 199.334 107.509,126.122 107.360,124.526 108.003 M161.942 175.258 C 160.568 176.632,161.951 206.531,163.459 208.034 C 164.446 209.018,198.655 209.231,201.333 208.271 L 202.865 207.721 200.374 207.460 C 199.004 207.317,190.632 207.200,181.770 207.200 C 168.383 207.200,165.561 207.104,165.089 206.632 C 164.669 206.212,164.452 204.361,164.257 199.532 C 164.112 195.939,163.785 189.439,163.530 185.086 C 163.169 178.905,163.174 177.066,163.553 176.686 C 163.914 176.325,168.939 176.141,183.119 175.972 C 193.614 175.846,202.290 175.703,202.400 175.654 C 202.510 175.605,201.880 175.305,201.000 174.988 C 197.993 173.905,163.054 174.146,161.942 175.258 M236.909 211.600 C 236.909 212.590,236.987 212.995,237.082 212.500 C 237.178 212.005,237.178 211.195,237.082 210.700 C 236.987 210.205,236.909 210.610,236.909 211.600 M132.512 224.801 C 130.890 225.466,130.882 226.123,132.210 248.400 C 132.545 254.010,132.958 261.074,133.129 264.097 C 133.594 272.335,126.559 269.020,182.917 287.560 L 199.210 292.920 200.633 292.160 C 201.936 291.464,201.978 291.390,201.128 291.277 C 200.618 291.209,197.860 290.363,195.000 289.397 C 192.140 288.430,177.920 283.745,163.400 278.985 C 148.607 274.136,136.672 270.014,136.255 269.609 C 135.415 268.796,134.847 262.300,134.017 244.000 C 133.772 238.610,133.462 232.541,133.327 230.512 L 133.083 226.825 134.206 226.398 C 136.296 225.603,162.756 226.050,163.370 226.890 C 163.717 227.365,163.949 230.175,164.113 235.901 C 164.455 247.827,162.845 246.182,179.862 251.990 C 186.868 254.381,193.680 256.721,195.000 257.189 C 197.596 258.110,199.647 258.282,201.154 257.707 C 201.972 257.394,201.401 257.111,197.154 255.718 C 182.264 250.835,168.104 245.805,167.420 245.157 C 166.750 244.522,166.594 243.587,166.310 238.509 C 165.713 227.815,165.539 226.070,164.999 225.331 C 164.401 224.513,134.406 224.024,132.512 224.801 " stroke="none" fill="#84bcdc" fill-rule="evenodd"></path></g></svg>