<svg id="svg" version="1.1" xmlns="http://www.w3.org/2000/svg" xmlns:xlink="http://www.w3.org/1999/xlink" width="400" height="400" viewBox="0, 0, 400,400"><g id="svgg"><path id="path0" d="M125.900 47.500 C 166.655 47.556,233.345 47.556,274.100 47.500 C 314.855 47.444,281.510 47.398,200.000 47.398 C 118.490 47.398,85.145 47.444,125.900 47.500 M47.398 200.000 C 47.398 282.170,47.444 315.785,47.500 274.700 C 47.556 233.615,47.556 166.385,47.500 125.300 C 47.444 84.215,47.398 117.830,47.398 200.000 M352.598 200.000 C 352.598 282.170,352.644 315.785,352.700 274.700 C 352.756 233.615,352.756 166.385,352.700 125.300 C 352.644 84.215,352.598 117.830,352.598 200.000 M184.198 183.752 C 183.411 184.328,183.397 184.954,183.199 231.268 L 182.997 278.200 182.089 280.621 C 178.013 291.479,162.127 291.268,153.137 280.235 C 148.719 274.813,150.928 274.252,133.047 285.343 C 127.369 288.865,127.351 289.432,132.698 296.619 C 144.334 312.260,163.066 319.524,181.740 315.637 C 198.645 312.118,208.204 301.454,210.576 283.465 C 211.550 276.076,211.516 184.761,210.539 183.949 C 209.523 183.105,185.330 182.924,184.198 183.752 M264.800 183.596 C 241.827 186.613,228.773 202.870,231.554 225.000 C 233.602 241.298,242.334 249.925,268.000 261.007 C 284.369 268.075,288.146 271.518,288.183 279.400 C 288.215 286.159,284.467 290.454,277.031 292.178 C 266.341 294.658,256.209 289.843,249.055 278.885 C 246.908 275.596,246.031 274.944,244.700 275.647 C 241.432 277.374,226.277 287.833,225.925 288.604 C 224.750 291.183,234.703 303.461,241.800 308.187 C 260.951 320.940,291.809 319.166,306.718 304.455 C 318.203 293.121,320.075 272.437,310.903 258.200 C 305.853 250.360,296.983 244.266,279.800 236.829 C 275.145 234.815,274.011 234.301,268.313 231.619 C 262.959 229.099,259.375 225.761,258.383 222.367 C 253.875 206.954,274.797 200.670,285.200 214.312 C 287.920 217.879,288.312 217.921,292.705 215.100 C 294.504 213.945,298.245 211.560,301.019 209.800 C 309.087 204.681,308.899 204.958,306.661 201.481 C 298.252 188.414,281.761 181.368,264.800 183.596 M125.900 352.700 C 166.655 352.756,233.345 352.756,274.100 352.700 C 314.855 352.644,281.510 352.598,200.000 352.598 C 118.490 352.598,85.145 352.644,125.900 352.700 " stroke="none" fill="#050504" fill-rule="evenodd"></path><path id="path1" d="M48.582 48.582 L 47.600 49.564 47.600 200.000 L 47.600 350.436 48.582 351.418 L 49.564 352.400 200.000 352.400 L 350.436 352.400 351.418 351.418 L 352.400 350.436 352.400 200.000 L 352.400 49.564 351.418 48.582 L 350.436 47.600 200.000 47.600 L 49.564 47.600 48.582 48.582 M210.539 183.949 C 211.516 184.761,211.550 276.076,210.576 283.465 C 208.204 301.454,198.645 312.118,181.740 315.637 C 163.066 319.524,144.334 312.260,132.698 296.619 C 127.351 289.432,127.369 288.865,133.047 285.343 C 150.928 274.252,148.719 274.813,153.137 280.235 C 162.127 291.268,178.013 291.479,182.089 280.621 L 182.997 278.200 183.199 231.268 C 183.397 184.954,183.411 184.328,184.198 183.752 C 185.330 182.924,209.523 183.105,210.539 183.949 M282.368 184.616 C 292.333 186.715,301.056 192.771,306.661 201.481 C 308.899 204.958,309.087 204.681,301.019 209.800 C 298.245 211.560,294.504 213.945,292.705 215.100 C 288.312 217.921,287.920 217.879,285.200 214.312 C 276.015 202.267,257.815 205.112,257.957 218.570 C 258.006 223.133,259.389 225.763,263.225 228.587 C 265.910 230.564,269.856 232.526,279.800 236.829 C 296.983 244.266,305.853 250.360,310.903 258.200 C 320.075 272.437,318.203 293.121,306.718 304.455 C 291.809 319.166,260.951 320.940,241.800 308.187 C 234.703 303.461,224.750 291.183,225.925 288.604 C 226.277 287.833,241.432 277.374,244.700 275.647 C 246.031 274.944,246.908 275.596,249.055 278.885 C 256.209 289.843,266.341 294.658,277.031 292.178 C 284.467 290.454,288.215 286.159,288.183 279.400 C 288.146 271.518,284.369 268.075,268.000 261.007 C 242.334 249.925,233.602 241.298,231.554 225.000 C 227.999 196.709,251.419 178.096,282.368 184.616 " stroke="none" fill="#fbd304" fill-rule="evenodd"></path></g></svg>