<svg id="svg" version="1.1" xmlns="http://www.w3.org/2000/svg" xmlns:xlink="http://www.w3.org/1999/xlink" width="400" height="400" viewBox="0, 0, 400,400"><g id="svgg"><path id="path0" d="M295.222 182.055 C 261.717 186.661,243.183 213.799,251.219 246.484 C 255.915 265.586,267.890 276.283,300.195 290.230 C 326.300 301.500,330.986 305.508,331.036 316.610 C 331.088 328.380,321.890 334.977,305.469 334.948 C 289.816 334.920,279.091 328.742,269.939 314.480 L 268.662 312.490 267.437 313.232 C 266.763 313.641,260.059 317.532,252.539 321.881 C 245.020 326.229,238.712 329.929,238.522 330.102 C 237.823 330.740,242.811 338.548,247.447 344.074 C 261.234 360.506,284.806 369.720,310.156 368.587 C 350.627 366.778,373.462 342.259,368.185 306.278 C 364.920 284.012,351.731 271.273,316.211 256.077 C 292.723 246.028,288.126 242.475,286.701 233.270 C 284.991 222.216,292.281 214.671,304.688 214.656 C 314.734 214.643,320.519 217.912,326.519 226.992 L 328.739 230.352 342.983 221.208 C 350.817 216.178,357.384 211.908,357.577 211.717 C 358.824 210.481,347.386 196.741,341.283 192.142 C 330.558 184.060,311.305 179.844,295.222 182.055 M180.339 183.854 C 180.195 183.997,180.078 214.063,180.078 250.668 C 180.078 322.495,180.149 319.866,178.081 325.111 C 175.639 331.307,170.531 334.482,162.171 335.001 C 151.502 335.663,144.115 330.645,137.250 318.072 C 136.635 316.947,135.985 316.024,135.804 316.021 C 135.534 316.017,106.012 333.747,105.508 334.216 C 105.423 334.296,105.929 335.463,106.634 336.809 C 118.220 358.948,140.266 370.399,167.421 368.383 C 198.136 366.103,215.225 349.028,217.571 318.273 C 217.816 315.066,217.967 288.375,217.968 248.340 L 217.969 183.594 199.284 183.594 C 189.007 183.594,180.482 183.711,180.339 183.854 " stroke="none" fill="#040404" fill-rule="evenodd"></path><path id="path1" d="M0.000 200.000 L 0.000 400.000 200.000 400.000 L 400.000 400.000 400.000 200.000 L 400.000 0.000 200.000 0.000 L 0.000 0.000 0.000 200.000 M318.164 182.580 C 330.641 184.861,339.778 189.678,348.131 198.382 C 352.103 202.520,358.188 211.111,357.577 211.717 C 357.384 211.908,350.817 216.178,342.983 221.208 L 328.739 230.352 326.519 226.992 C 320.519 217.912,314.734 214.643,304.688 214.656 C 292.281 214.671,284.991 222.216,286.701 233.270 C 288.126 242.475,292.723 246.028,316.211 256.077 C 351.731 271.273,364.920 284.012,368.185 306.278 C 373.462 342.259,350.627 366.778,310.156 368.587 C 284.806 369.720,261.234 360.506,247.447 344.074 C 242.811 338.548,237.823 330.740,238.522 330.102 C 238.712 329.929,245.020 326.229,252.539 321.881 C 260.059 317.532,266.763 313.641,267.437 313.232 L 268.662 312.490 269.939 314.480 C 279.091 328.742,289.816 334.920,305.469 334.948 C 321.890 334.977,331.088 328.380,331.036 316.610 C 330.986 305.508,326.300 301.500,300.195 290.230 C 267.890 276.283,255.915 265.586,251.219 246.484 C 243.183 213.799,261.717 186.661,295.222 182.055 C 299.332 181.490,314.042 181.827,318.164 182.580 M217.968 248.340 C 217.967 329.060,217.946 329.369,211.626 341.992 C 195.951 373.300,144.524 378.545,117.551 351.587 C 112.525 346.564,104.571 335.090,105.508 334.216 C 106.012 333.747,135.534 316.017,135.804 316.021 C 135.985 316.024,136.635 316.947,137.250 318.072 C 144.115 330.645,151.502 335.663,162.171 335.001 C 170.531 334.482,175.639 331.307,178.081 325.111 C 180.149 319.866,180.078 322.495,180.078 250.668 C 180.078 214.063,180.195 183.997,180.339 183.854 C 180.482 183.711,189.007 183.594,199.284 183.594 L 217.969 183.594 217.968 248.340 " stroke="none" fill="#f3e31b" fill-rule="evenodd"></path></g></svg>