<svg id="svg" version="1.1" xmlns="http://www.w3.org/2000/svg" xmlns:xlink="http://www.w3.org/1999/xlink" width="400" height="400" viewBox="0, 0, 400,400"><g id="svgg"><path id="path0" d="M281.600 184.647 C 255.317 187.940,239.775 205.219,241.374 229.370 C 242.836 251.471,253.231 262.634,284.800 276.002 C 305.215 284.647,310.073 289.037,309.515 298.338 C 308.972 307.379,300.996 312.786,288.200 312.786 C 275.945 312.786,266.106 307.319,259.249 296.700 C 257.176 293.488,257.818 293.578,253.856 295.945 C 252.065 297.014,246.460 300.283,241.400 303.209 C 236.340 306.135,232.114 308.601,232.009 308.689 C 231.234 309.337,238.323 319.441,242.441 323.558 C 255.405 336.521,275.641 342.836,297.017 340.591 C 324.896 337.664,341.200 321.550,341.200 296.925 C 341.200 273.402,329.974 260.687,296.800 246.638 C 276.948 238.231,272.935 234.889,272.498 226.400 C 271.619 209.314,295.318 206.520,305.578 222.500 C 307.793 225.950,305.611 226.753,321.109 216.781 C 323.689 215.121,327.193 212.871,328.896 211.781 C 330.717 210.616,331.916 209.592,331.807 209.295 C 329.669 203.478,319.333 193.255,311.800 189.506 C 304.329 185.788,290.394 183.546,281.600 184.647 M183.507 242.495 L 183.396 298.600 182.514 301.702 C 180.504 308.770,177.195 311.668,170.135 312.543 C 160.166 313.778,153.915 309.882,147.590 298.488 C 146.430 296.400,147.582 295.951,135.849 303.060 C 130.542 306.276,125.006 309.626,123.546 310.506 L 120.892 312.106 121.694 313.953 C 136.513 348.073,195.095 350.684,210.189 317.897 C 215.169 307.078,215.267 305.509,215.118 239.200 L 215.000 186.600 199.309 186.495 L 183.619 186.391 183.507 242.495 " stroke="none" fill="#04040c" fill-rule="evenodd"></path><path id="path1" d="M32.400 200.000 L 32.400 367.600 200.000 367.600 L 367.600 367.600 367.600 200.000 L 367.600 32.400 200.000 32.400 L 32.400 32.400 32.400 200.000 M299.776 185.581 C 309.951 187.639,317.287 191.580,323.848 198.512 C 326.550 201.367,331.217 207.691,331.807 209.295 C 331.916 209.592,330.717 210.616,328.896 211.781 C 327.193 212.871,323.689 215.121,321.109 216.781 C 310.045 223.900,307.966 225.200,307.648 225.200 C 307.463 225.200,306.531 223.985,305.578 222.500 C 295.318 206.520,271.619 209.314,272.498 226.400 C 272.935 234.889,276.948 238.231,296.800 246.638 C 329.974 260.687,341.200 273.402,341.200 296.925 C 341.200 321.550,324.896 337.664,297.017 340.591 C 275.641 342.836,255.405 336.521,242.441 323.558 C 238.323 319.441,231.234 309.337,232.009 308.689 C 232.114 308.601,236.340 306.135,241.400 303.209 C 246.460 300.283,252.065 297.014,253.856 295.945 C 257.818 293.578,257.176 293.488,259.249 296.700 C 266.106 307.319,275.945 312.786,288.200 312.786 C 300.996 312.786,308.972 307.379,309.515 298.338 C 310.073 289.037,305.215 284.647,284.800 276.002 C 253.231 262.634,242.836 251.471,241.374 229.370 C 239.775 205.219,255.317 187.940,281.600 184.647 C 284.910 184.233,295.902 184.797,299.776 185.581 M215.118 239.200 C 215.255 299.971,215.152 302.853,212.538 311.600 C 207.188 329.504,194.144 339.053,172.677 340.782 C 150.367 342.578,129.315 331.500,121.694 313.953 L 120.892 312.106 123.546 310.506 C 125.006 309.626,130.542 306.276,135.849 303.060 C 147.582 295.951,146.430 296.400,147.590 298.488 C 153.915 309.882,160.166 313.778,170.135 312.543 C 177.195 311.668,180.504 308.770,182.514 301.702 L 183.396 298.600 183.507 242.495 L 183.619 186.391 199.309 186.495 L 215.000 186.600 215.118 239.200 " stroke="none" fill="#f4e41c" fill-rule="evenodd"></path></g></svg>