<svg id="svg" version="1.1" xmlns="http://www.w3.org/2000/svg" xmlns:xlink="http://www.w3.org/1999/xlink" width="400" height="400" viewBox="0, 0, 400,400"><g id="svgg"><path id="path0" d="M198.722 18.608 C 198.569 18.763,196.734 19.019,194.645 19.177 C 192.098 19.370,190.278 19.739,189.123 20.298 C 188.175 20.757,186.950 21.326,186.400 21.563 C 185.850 21.800,185.130 22.170,184.800 22.384 C 184.470 22.598,182.531 23.725,180.492 24.887 C 178.452 26.049,176.112 27.404,175.292 27.897 C 174.471 28.391,173.260 29.081,172.600 29.432 C 170.317 30.645,168.991 31.410,166.800 32.778 C 165.590 33.534,163.430 34.760,162.000 35.504 C 160.570 36.247,158.140 37.649,156.600 38.619 C 155.060 39.590,153.080 40.745,152.200 41.187 C 150.614 41.983,150.311 42.159,147.600 43.857 C 146.061 44.821,142.479 46.855,140.600 47.831 C 139.940 48.174,138.745 48.848,137.945 49.327 C 137.145 49.807,135.165 50.971,133.545 51.913 C 131.925 52.855,130.330 53.794,130.000 54.000 C 129.670 54.206,127.731 55.325,125.692 56.487 C 123.652 57.649,121.362 58.960,120.602 59.400 C 119.842 59.840,116.740 61.604,113.710 63.320 C 110.679 65.036,107.930 66.603,107.600 66.804 C 107.270 67.004,105.851 67.850,104.447 68.684 C 103.042 69.518,101.242 70.597,100.447 71.083 C 99.651 71.569,98.280 72.341,97.400 72.800 C 96.520 73.259,95.080 74.075,94.200 74.614 C 93.320 75.153,92.060 75.878,91.400 76.225 C 90.740 76.571,89.480 77.287,88.600 77.814 C 87.720 78.341,86.430 79.094,85.733 79.487 C 84.228 80.333,78.912 83.438,76.855 84.672 C 76.055 85.152,74.770 85.881,74.000 86.292 C 72.469 87.110,68.026 89.677,65.682 91.099 C 64.867 91.593,63.480 92.370,62.600 92.824 C 61.720 93.279,59.740 94.447,58.200 95.420 C 56.660 96.393,55.028 97.354,54.574 97.556 C 50.990 99.152,44.176 105.790,42.780 109.046 C 42.388 109.962,41.871 110.832,41.633 110.980 C 41.395 111.127,41.200 111.554,41.200 111.930 C 41.200 112.305,40.795 113.329,40.300 114.206 L 39.400 115.800 39.296 199.356 L 39.193 282.912 40.196 285.104 C 40.748 286.310,41.200 287.517,41.200 287.787 C 41.200 288.057,41.560 288.693,42.000 289.200 C 42.440 289.707,42.800 290.310,42.800 290.540 C 42.800 292.724,54.328 303.600,56.644 303.600 C 56.766 303.600,57.976 304.257,59.333 305.060 C 60.690 305.863,62.970 307.153,64.400 307.926 C 65.830 308.699,67.429 309.662,67.954 310.065 C 68.479 310.469,69.094 310.800,69.322 310.800 C 69.550 310.800,70.021 311.050,70.369 311.355 C 70.716 311.660,71.990 312.434,73.200 313.075 C 74.410 313.717,75.850 314.531,76.400 314.886 C 76.950 315.240,78.390 316.083,79.600 316.757 C 81.937 318.060,83.608 319.032,86.200 320.594 C 87.080 321.125,88.250 321.748,88.800 321.979 C 89.350 322.210,90.070 322.581,90.400 322.802 C 90.730 323.024,91.270 323.316,91.600 323.451 C 91.930 323.586,92.920 324.024,93.800 324.425 C 95.314 325.115,96.789 325.681,100.000 326.805 C 100.770 327.075,102.316 327.639,103.434 328.059 C 104.553 328.479,106.443 328.923,107.634 329.046 C 108.826 329.168,110.479 329.523,111.308 329.834 C 113.415 330.624,124.590 330.623,126.692 329.833 C 127.521 329.521,129.325 329.178,130.701 329.071 C 133.800 328.829,138.809 326.916,143.946 324.012 C 147.602 321.945,152.114 317.548,154.351 313.871 C 154.928 312.923,155.626 311.799,155.903 311.374 C 156.180 310.948,156.606 310.150,156.852 309.600 C 157.097 309.050,157.616 307.970,158.005 307.200 C 158.395 306.430,158.836 305.170,158.986 304.400 C 159.137 303.630,159.553 302.370,159.910 301.600 C 160.297 300.768,160.671 298.497,160.832 296.000 C 160.981 293.690,161.305 291.171,161.552 290.403 C 161.876 289.391,162.000 268.060,162.000 213.095 L 162.000 137.185 160.934 134.796 C 159.215 130.944,158.704 130.800,146.774 130.802 C 136.519 130.805,134.566 131.046,133.593 132.430 C 132.975 133.311,131.669 134.894,131.506 134.961 C 131.454 134.983,131.319 169.920,131.206 212.600 L 131.000 290.200 129.942 292.204 C 128.573 294.796,126.695 296.767,124.200 298.228 C 121.701 299.692,111.778 300.014,109.160 298.716 C 108.412 298.345,106.630 297.496,105.200 296.829 C 101.961 295.317,96.857 292.560,96.025 291.872 C 95.681 291.587,94.950 291.139,94.400 290.875 C 93.850 290.611,92.680 289.946,91.800 289.397 C 90.920 288.848,89.660 288.123,89.000 287.786 C 88.340 287.448,87.142 286.773,86.337 286.286 C 85.533 285.799,82.861 284.230,80.400 282.800 C 77.939 281.370,75.267 279.802,74.463 279.315 C 73.658 278.828,72.550 278.197,72.000 277.913 C 71.450 277.629,70.505 277.062,69.900 276.653 L 68.800 275.908 68.800 199.816 C 68.800 115.592,68.572 122.974,71.200 122.200 C 71.750 122.038,72.470 121.683,72.800 121.411 C 73.130 121.138,75.259 119.855,77.532 118.558 C 79.805 117.261,82.325 115.806,83.132 115.325 C 85.361 113.996,87.271 112.901,88.600 112.188 C 89.260 111.834,90.458 111.152,91.263 110.673 C 92.067 110.193,94.739 108.630,97.200 107.200 C 99.661 105.770,102.333 104.211,103.137 103.735 C 103.942 103.260,105.680 102.298,107.000 101.597 C 108.320 100.897,109.670 100.083,110.001 99.790 C 110.331 99.496,111.051 99.054,111.601 98.807 C 112.150 98.561,113.320 97.923,114.200 97.389 C 115.080 96.856,116.559 96.010,117.487 95.510 C 119.177 94.598,126.073 90.670,127.200 89.977 C 127.530 89.774,128.430 89.240,129.200 88.789 C 129.970 88.339,131.320 87.539,132.200 87.013 C 133.080 86.486,134.340 85.766,135.000 85.413 C 135.660 85.061,136.920 84.329,137.800 83.789 C 138.680 83.248,139.940 82.535,140.600 82.203 C 141.260 81.872,142.520 81.155,143.400 80.610 C 144.280 80.065,145.630 79.253,146.400 78.805 C 147.170 78.358,148.070 77.819,148.400 77.609 C 148.730 77.399,150.678 76.275,152.729 75.113 C 154.780 73.951,157.120 72.602,157.929 72.115 C 158.738 71.628,159.852 70.998,160.405 70.715 C 160.957 70.432,162.511 69.525,163.857 68.700 C 165.203 67.875,166.447 67.200,166.621 67.200 C 166.795 67.200,167.221 66.952,167.569 66.650 C 167.916 66.347,169.441 65.448,170.957 64.652 C 172.473 63.855,173.913 63.044,174.157 62.849 C 174.401 62.654,175.674 61.926,176.986 61.231 C 178.299 60.536,179.469 59.840,179.586 59.684 C 179.704 59.528,180.430 59.081,181.200 58.692 C 181.970 58.302,183.320 57.549,184.200 57.019 C 185.080 56.489,186.340 55.771,187.000 55.425 C 187.660 55.078,188.920 54.352,189.800 53.811 C 190.680 53.271,191.940 52.539,192.600 52.187 C 193.260 51.834,194.520 51.114,195.400 50.587 C 200.116 47.765,200.822 47.700,203.600 49.828 C 203.930 50.081,205.280 50.882,206.600 51.608 C 207.920 52.334,209.657 53.304,210.459 53.764 C 213.019 55.230,220.821 59.768,222.337 60.673 C 223.142 61.152,224.340 61.829,225.000 62.175 C 225.660 62.522,226.920 63.242,227.800 63.775 C 228.680 64.309,229.940 65.035,230.600 65.390 C 232.218 66.261,234.987 67.868,238.196 69.800 C 239.658 70.680,241.336 71.634,241.927 71.921 C 242.517 72.207,243.270 72.603,243.600 72.801 C 244.968 73.620,252.226 77.874,253.837 78.800 C 254.793 79.350,257.156 80.714,259.088 81.831 C 261.019 82.948,262.870 83.992,263.200 84.150 C 263.530 84.309,264.458 84.835,265.263 85.319 C 266.067 85.804,268.739 87.370,271.200 88.800 C 273.661 90.230,276.333 91.793,277.137 92.273 C 277.942 92.752,279.140 93.429,279.800 93.775 C 280.460 94.122,281.720 94.847,282.600 95.386 C 283.480 95.925,284.920 96.741,285.800 97.200 C 286.680 97.659,288.051 98.431,288.847 98.917 C 290.251 99.774,294.788 102.478,296.000 103.180 C 300.196 105.610,302.916 107.149,304.400 107.932 C 305.390 108.454,306.830 109.272,307.600 109.751 C 309.524 110.945,309.679 111.036,317.729 115.684 C 321.649 117.948,325.519 120.196,326.329 120.679 C 327.138 121.163,328.250 121.760,328.800 122.006 C 329.350 122.252,330.205 122.833,330.700 123.296 L 331.600 124.139 331.600 199.854 L 331.600 275.569 330.700 276.431 C 330.205 276.906,329.260 277.555,328.600 277.875 C 327.940 278.194,326.742 278.848,325.937 279.327 C 325.133 279.807,322.523 281.333,320.137 282.717 C 317.752 284.102,315.530 285.407,315.200 285.617 C 314.870 285.828,314.150 286.186,313.600 286.412 C 313.050 286.639,311.340 287.623,309.800 288.600 C 307.100 290.311,305.792 291.064,302.804 292.625 C 302.036 293.026,300.816 293.756,300.093 294.247 C 299.369 294.738,298.017 295.532,297.089 296.011 C 296.160 296.490,294.745 297.269,293.945 297.741 C 293.145 298.214,291.100 299.410,289.400 300.400 C 287.700 301.390,285.655 302.593,284.855 303.073 C 284.055 303.552,282.860 304.234,282.200 304.587 C 281.540 304.939,280.280 305.665,279.400 306.198 C 278.520 306.731,277.260 307.451,276.600 307.798 C 275.940 308.145,274.742 308.827,273.937 309.314 C 273.133 309.801,270.461 311.370,268.000 312.800 C 265.539 314.230,262.867 315.793,262.063 316.273 C 261.258 316.752,260.001 317.424,259.269 317.765 C 258.537 318.106,257.106 318.946,256.090 319.633 C 255.073 320.319,253.872 321.053,253.420 321.264 C 252.130 321.868,248.231 324.124,240.400 328.798 C 240.070 328.995,238.630 329.805,237.200 330.599 C 235.770 331.393,233.880 332.483,233.000 333.022 C 232.120 333.560,230.860 334.277,230.200 334.614 C 229.540 334.952,228.280 335.671,227.400 336.211 C 226.520 336.752,225.260 337.478,224.600 337.825 C 223.940 338.171,222.740 338.848,221.933 339.327 C 221.126 339.807,217.834 341.730,214.617 343.600 C 211.400 345.470,207.921 347.495,206.884 348.101 C 205.848 348.706,204.640 349.389,204.200 349.618 C 203.760 349.847,202.950 350.294,202.400 350.611 C 201.024 351.405,198.700 351.344,197.554 350.484 C 197.029 350.090,196.150 349.542,195.600 349.265 C 195.050 348.988,193.945 348.365,193.145 347.881 C 192.345 347.396,190.300 346.190,188.600 345.200 C 186.900 344.210,184.914 343.040,184.187 342.600 C 183.459 342.160,181.662 341.080,180.193 340.200 C 178.724 339.320,176.864 338.204,176.061 337.719 C 175.257 337.235,174.150 336.615,173.600 336.342 C 173.050 336.069,172.330 335.631,172.000 335.368 C 171.670 335.106,170.410 334.366,169.200 333.725 C 167.990 333.083,166.498 332.228,165.885 331.824 C 163.976 330.565,161.053 330.821,158.000 332.516 C 155.052 334.153,151.538 335.893,148.600 337.170 C 147.500 337.648,146.090 338.300,145.468 338.620 C 144.845 338.939,144.041 339.200,143.683 339.200 C 141.351 339.200,136.439 342.469,136.180 344.193 C 135.627 347.880,136.702 349.064,145.104 354.017 C 150.701 357.316,153.746 359.118,156.200 360.587 C 157.080 361.114,158.340 361.827,159.000 362.171 C 159.660 362.516,161.460 363.605,163.000 364.591 C 164.540 365.577,166.520 366.751,167.400 367.200 C 168.280 367.649,170.260 368.817,171.800 369.796 C 173.340 370.774,175.140 371.852,175.800 372.190 C 176.460 372.529,177.663 373.209,178.473 373.703 C 182.667 376.257,187.113 378.722,188.000 378.986 C 188.550 379.149,189.429 379.555,189.954 379.886 C 192.263 381.346,207.414 381.327,210.200 379.862 C 210.860 379.515,212.750 378.585,214.400 377.796 C 216.050 377.007,218.120 375.927,219.000 375.395 C 219.880 374.863,221.140 374.139,221.800 373.787 C 222.460 373.434,223.720 372.713,224.600 372.186 C 225.480 371.659,226.770 370.906,227.467 370.513 C 229.153 369.565,234.524 366.422,236.345 365.319 C 237.145 364.835,238.070 364.309,238.400 364.151 C 239.070 363.831,242.492 361.869,244.736 360.519 C 245.541 360.035,246.644 359.405,247.186 359.119 C 247.728 358.834,250.065 357.475,252.379 356.100 C 254.693 354.725,256.799 353.600,257.060 353.600 C 257.320 353.600,257.593 353.456,257.667 353.280 C 257.740 353.104,259.029 352.249,260.532 351.380 C 262.035 350.511,263.925 349.398,264.732 348.906 C 265.539 348.414,266.920 347.641,267.800 347.189 C 268.680 346.736,270.055 345.969,270.856 345.483 C 274.693 343.156,276.721 342.000,276.966 342.000 C 277.113 342.000,277.451 341.811,277.717 341.581 C 278.162 341.195,284.713 337.332,288.000 335.517 C 288.770 335.092,290.120 334.308,291.000 333.775 C 291.880 333.242,293.140 332.522,293.800 332.175 C 294.460 331.829,295.658 331.152,296.463 330.673 C 297.267 330.193,299.939 328.630,302.400 327.200 C 304.861 325.770,307.533 324.208,308.337 323.728 C 309.142 323.248,310.430 322.514,311.200 322.095 C 313.025 321.104,315.496 319.676,317.000 318.742 C 317.660 318.332,318.740 317.712,319.400 317.363 C 321.123 316.454,323.756 314.942,328.387 312.200 C 330.617 310.880,333.197 309.387,334.120 308.882 C 335.044 308.377,336.160 307.745,336.600 307.477 C 339.496 305.714,343.171 303.600,343.340 303.600 C 345.609 303.600,357.200 292.678,357.200 290.540 C 357.200 290.310,357.560 289.707,358.000 289.200 C 358.440 288.693,358.800 288.057,358.800 287.787 C 358.800 287.517,359.251 286.311,359.803 285.106 L 360.806 282.916 360.703 199.558 L 360.600 116.200 359.700 114.322 C 359.205 113.289,358.800 112.186,358.800 111.871 C 358.800 111.556,358.549 111.090,358.243 110.836 C 357.937 110.581,357.455 109.794,357.173 109.087 C 356.562 107.556,356.499 107.476,352.740 103.456 C 349.859 100.375,346.387 97.795,342.000 95.473 C 340.790 94.833,339.530 94.072,339.199 93.782 C 338.869 93.493,338.149 93.062,337.599 92.825 C 337.050 92.588,335.770 91.900,334.754 91.297 C 333.739 90.694,329.005 87.950,324.233 85.200 C 319.462 82.450,314.892 79.806,314.079 79.325 C 313.266 78.844,312.022 78.124,311.316 77.725 C 310.609 77.326,308.406 76.055,306.419 74.900 C 304.432 73.745,302.647 72.800,302.452 72.800 C 302.257 72.800,301.865 72.520,301.581 72.177 C 301.296 71.834,300.509 71.293,299.832 70.974 C 299.154 70.655,297.880 69.958,297.000 69.425 C 296.120 68.891,294.860 68.166,294.200 67.813 C 293.540 67.461,292.280 66.729,291.400 66.189 C 290.520 65.648,289.260 64.922,288.600 64.575 C 287.940 64.229,286.742 63.552,285.937 63.073 C 285.133 62.593,282.461 61.030,280.000 59.600 C 277.539 58.170,274.867 56.610,274.063 56.134 C 273.258 55.657,271.880 54.892,271.000 54.433 C 270.120 53.973,268.729 53.193,267.910 52.699 C 267.090 52.204,262.860 49.764,258.510 47.276 C 254.159 44.787,250.330 42.584,250.000 42.380 C 249.670 42.176,248.770 41.642,248.000 41.195 C 247.230 40.747,245.880 39.935,245.000 39.390 C 244.120 38.845,242.860 38.128,242.200 37.797 C 241.540 37.465,240.332 36.791,239.516 36.297 C 237.459 35.054,229.426 30.353,227.876 29.487 C 227.174 29.094,225.880 28.341,225.000 27.814 C 224.120 27.287,222.860 26.571,222.200 26.225 C 221.540 25.878,220.280 25.159,219.400 24.628 C 218.520 24.096,216.450 23.006,214.800 22.204 C 213.150 21.402,211.260 20.452,210.600 20.092 C 209.915 19.718,207.856 19.313,205.800 19.147 C 203.820 18.988,201.480 18.738,200.600 18.592 C 199.720 18.445,198.875 18.452,198.722 18.608 M196.832 20.038 C 196.191 20.294,195.725 20.285,195.452 20.012 C 195.169 19.729,195.473 19.608,196.420 19.625 C 197.717 19.649,197.742 19.674,196.832 20.038 M204.856 19.957 C 204.359 20.272,202.800 20.117,202.800 19.753 C 202.800 19.669,203.385 19.603,204.100 19.606 C 204.984 19.610,205.226 19.723,204.856 19.957 M40.002 199.794 C 40.005 243.316,39.916 279.017,39.804 279.129 C 39.692 279.242,39.600 243.543,39.600 199.800 C 39.600 156.057,39.689 120.356,39.798 120.465 C 39.907 120.574,39.999 156.272,40.002 199.794 M360.400 199.867 C 360.400 243.573,360.309 279.242,360.198 279.131 C 360.049 278.982,359.936 189.090,359.999 121.500 C 360.000 120.895,360.090 120.400,360.200 120.400 C 360.310 120.400,360.400 156.160,360.400 199.867 M226.600 126.889 C 226.160 127.145,223.261 127.471,220.157 127.614 C 215.870 127.812,214.286 128.034,213.568 128.538 C 213.032 128.913,211.836 129.204,210.811 129.209 C 209.815 129.214,208.259 129.554,207.354 129.965 C 206.448 130.376,205.098 130.847,204.354 131.010 C 203.026 131.302,201.433 131.948,197.360 133.848 C 196.238 134.372,195.214 134.800,195.084 134.800 C 193.315 134.800,180.050 146.351,179.375 148.480 C 179.249 148.876,178.992 149.200,178.804 149.200 C 178.616 149.200,178.259 149.816,178.011 150.568 C 177.762 151.320,177.310 152.143,177.005 152.396 C 176.701 152.648,176.330 153.428,176.181 154.128 C 176.033 154.827,175.656 155.690,175.344 156.045 C 175.031 156.399,174.615 157.659,174.418 158.845 C 174.221 160.030,173.752 161.720,173.376 162.600 C 172.302 165.113,172.394 178.993,173.503 181.800 C 173.938 182.900,174.416 184.639,174.566 185.665 C 174.720 186.720,175.090 187.626,175.419 187.752 C 175.739 187.875,176.003 188.296,176.006 188.687 C 176.009 189.079,176.274 189.850,176.595 190.400 C 176.916 190.950,177.447 191.963,177.774 192.651 C 179.825 196.958,193.056 207.200,196.570 207.200 C 196.813 207.200,197.660 207.547,198.452 207.972 C 199.244 208.396,200.591 208.866,201.446 209.017 C 202.301 209.167,203.406 209.545,203.903 209.856 C 204.400 210.168,206.039 210.578,207.546 210.767 C 209.053 210.956,210.689 211.326,211.182 211.590 C 211.674 211.854,213.691 212.221,215.663 212.406 C 217.635 212.591,219.495 212.947,219.796 213.196 C 220.101 213.449,223.011 213.810,226.371 214.011 C 229.687 214.210,232.783 214.577,233.250 214.827 C 233.718 215.077,236.823 215.451,240.150 215.657 C 243.478 215.864,246.830 216.273,247.600 216.566 C 248.370 216.860,250.596 217.231,252.546 217.390 C 254.497 217.549,256.672 217.921,257.379 218.217 C 258.087 218.513,259.641 218.884,260.833 219.042 C 262.025 219.200,263.720 219.656,264.600 220.056 C 265.480 220.455,266.601 220.786,267.090 220.791 C 267.580 220.796,268.570 221.159,269.290 221.599 C 270.011 222.038,270.873 222.398,271.207 222.399 C 271.540 222.399,272.793 223.297,273.992 224.392 L 276.170 226.385 276.128 231.374 C 276.091 235.807,275.992 236.484,275.243 237.436 C 274.779 238.025,274.400 238.716,274.400 238.971 C 274.400 239.577,271.281 242.520,270.000 243.123 C 269.450 243.382,268.730 243.755,268.400 243.952 C 266.910 244.840,263.642 245.964,262.000 246.152 C 261.010 246.266,259.570 246.681,258.800 247.074 C 256.432 248.283,223.645 248.114,220.098 246.874 C 218.723 246.393,217.103 245.994,216.498 245.986 C 215.894 245.979,214.680 245.625,213.800 245.200 C 212.920 244.775,211.930 244.421,211.600 244.413 C 208.987 244.349,203.175 238.828,201.481 234.800 C 199.939 231.136,199.200 228.889,199.200 227.869 C 199.200 223.901,196.288 219.868,193.082 219.396 C 192.157 219.260,187.231 219.205,182.136 219.274 L 172.872 219.400 171.357 220.628 C 168.171 223.207,166.924 228.651,168.600 232.662 C 168.930 233.451,169.200 235.167,169.200 236.475 C 169.200 237.925,169.504 239.582,169.981 240.726 C 170.410 241.757,170.957 243.365,171.196 244.300 C 171.435 245.235,171.804 246.000,172.015 246.000 C 172.227 246.000,172.401 246.225,172.401 246.500 C 172.410 250.126,185.544 265.600,188.613 265.600 C 188.791 265.600,189.221 265.855,189.569 266.166 C 190.438 266.945,198.007 270.800,198.667 270.800 C 198.962 270.800,199.875 271.160,200.696 271.600 C 201.516 272.040,202.646 272.400,203.205 272.400 C 203.764 272.400,204.597 272.663,205.055 272.983 C 205.513 273.304,207.121 273.764,208.628 274.005 C 210.136 274.245,211.591 274.627,211.863 274.852 C 212.134 275.077,214.301 275.431,216.678 275.639 C 219.055 275.847,221.450 276.220,222.000 276.469 C 224.824 277.744,256.384 277.759,258.600 276.486 C 259.040 276.233,261.110 275.855,263.200 275.645 C 265.290 275.435,267.540 274.980,268.200 274.634 C 268.860 274.288,270.037 274.004,270.815 274.002 C 271.594 274.001,272.937 273.640,273.800 273.200 C 274.663 272.760,275.739 272.400,276.191 272.400 C 276.642 272.400,277.639 272.065,278.406 271.656 C 279.173 271.247,280.250 270.772,280.800 270.601 C 281.350 270.430,282.229 269.955,282.754 269.545 C 283.279 269.135,283.946 268.800,284.236 268.800 C 284.527 268.800,285.386 268.395,286.145 267.900 C 286.904 267.405,288.527 266.383,289.750 265.630 C 295.850 261.872,303.554 252.519,305.423 246.600 C 305.701 245.720,306.201 244.362,306.535 243.583 C 306.869 242.803,307.271 241.003,307.429 239.583 C 307.587 238.162,307.960 236.302,308.258 235.450 C 308.989 233.360,308.987 225.221,308.256 223.471 C 307.956 222.755,307.583 220.916,307.427 219.384 C 307.270 217.853,306.824 215.970,306.435 215.200 C 306.046 214.430,305.598 213.274,305.439 212.632 C 305.280 211.989,304.802 211.020,304.375 210.478 C 303.949 209.936,303.600 209.274,303.600 209.008 C 303.600 208.742,303.240 208.198,302.800 207.800 C 302.360 207.402,302.000 206.861,302.000 206.599 C 302.000 205.517,295.092 199.473,291.531 197.440 C 287.776 195.295,282.203 192.800,281.169 192.800 C 280.724 192.800,279.784 192.497,279.080 192.127 C 278.376 191.757,276.720 191.230,275.400 190.956 C 274.080 190.682,272.280 190.183,271.400 189.846 C 270.520 189.510,268.900 189.226,267.800 189.215 C 266.700 189.204,265.260 188.906,264.600 188.552 C 263.901 188.177,261.815 187.792,259.600 187.628 C 257.510 187.473,255.378 187.118,254.862 186.839 C 254.347 186.560,251.799 186.182,249.200 186.000 C 246.601 185.818,244.068 185.451,243.570 185.184 C 243.073 184.918,240.491 184.539,237.833 184.342 C 235.175 184.145,232.280 183.728,231.400 183.415 C 230.520 183.101,228.360 182.726,226.600 182.580 C 224.840 182.434,222.928 182.071,222.352 181.774 C 221.775 181.476,220.097 181.109,218.622 180.958 C 217.147 180.807,215.286 180.350,214.486 179.942 C 213.686 179.534,212.634 179.200,212.148 179.200 C 211.166 179.200,207.851 177.598,206.574 176.506 C 203.501 173.877,203.965 166.901,207.483 162.868 C 209.870 160.132,214.834 157.779,219.457 157.193 C 221.087 156.986,222.821 156.593,223.310 156.319 C 224.562 155.617,247.001 155.644,248.309 156.348 C 248.809 156.618,250.723 157.009,252.561 157.218 C 254.400 157.427,256.421 157.867,257.052 158.196 C 257.683 158.526,258.400 158.796,258.644 158.798 C 260.067 158.805,264.310 161.534,266.421 163.800 C 268.573 166.110,269.178 166.902,269.435 167.748 C 269.578 168.216,269.911 168.870,270.174 169.200 C 270.672 169.822,272.543 175.299,272.976 177.400 C 273.112 178.060,273.972 179.410,274.888 180.400 L 276.552 182.200 288.034 182.200 C 301.006 182.200,300.171 182.396,302.461 178.822 C 303.767 176.782,303.952 174.540,303.000 172.262 C 302.670 171.472,302.392 169.695,302.382 168.313 C 302.373 166.931,302.089 165.080,301.752 164.200 C 301.415 163.320,300.976 161.823,300.777 160.874 C 300.577 159.925,300.147 158.665,299.820 158.074 C 299.493 157.483,298.949 156.370,298.612 155.600 C 295.992 149.611,290.362 142.613,285.438 139.223 C 284.977 138.906,284.510 138.542,284.400 138.414 C 283.950 137.891,280.275 135.666,278.400 134.782 C 277.850 134.522,276.950 134.080,276.400 133.800 C 274.517 132.840,270.175 131.215,268.787 130.950 C 268.024 130.805,266.860 130.412,266.200 130.078 C 265.540 129.743,263.830 129.338,262.400 129.178 C 260.970 129.018,259.080 128.605,258.200 128.261 C 257.088 127.826,255.185 127.630,251.964 127.618 C 249.052 127.607,246.597 127.378,245.364 127.004 C 242.873 126.249,227.861 126.157,226.600 126.889 M223.891 128.292 C 223.061 128.379,221.801 128.377,221.091 128.289 C 220.381 128.200,221.060 128.129,222.600 128.131 C 224.140 128.133,224.721 128.205,223.891 128.292 M251.111 128.291 C 250.291 128.377,248.851 128.378,247.911 128.293 C 246.970 128.209,247.640 128.139,249.400 128.137 C 251.160 128.136,251.930 128.205,251.111 128.291 M239.500 155.098 C 237.355 155.170,233.845 155.170,231.700 155.098 C 229.555 155.026,231.310 154.967,235.600 154.967 C 239.890 154.967,241.645 155.026,239.500 155.098 M173.497 174.084 C 173.418 175.468,173.353 174.440,173.353 171.800 C 173.352 169.160,173.416 168.028,173.495 169.284 C 173.574 170.541,173.575 172.701,173.497 174.084 M301.972 170.100 C 301.949 171.159,301.885 171.251,301.627 170.600 C 301.453 170.160,301.395 169.575,301.498 169.300 C 301.820 168.442,302.001 168.748,301.972 170.100 M292.300 181.898 C 289.935 181.969,286.065 181.969,283.700 181.898 C 281.335 181.828,283.270 181.770,288.000 181.770 C 292.730 181.770,294.665 181.828,292.300 181.898 M247.905 186.675 C 247.522 186.775,246.802 186.779,246.305 186.683 C 245.807 186.587,246.120 186.505,247.000 186.501 C 247.880 186.496,248.287 186.575,247.905 186.675 M258.305 188.275 C 257.922 188.375,257.202 188.379,256.705 188.283 C 256.207 188.187,256.520 188.105,257.400 188.101 C 258.280 188.096,258.687 188.175,258.305 188.275 M229.705 213.482 C 229.214 213.577,228.314 213.579,227.705 213.487 C 227.097 213.395,227.500 213.317,228.600 213.314 C 229.700 213.311,230.197 213.387,229.705 213.482 M242.705 215.075 C 242.322 215.175,241.602 215.179,241.105 215.083 C 240.607 214.987,240.920 214.905,241.800 214.901 C 242.680 214.896,243.087 214.975,242.705 215.075 M223.505 248.275 C 223.122 248.375,222.402 248.379,221.905 248.283 C 221.407 248.187,221.720 248.105,222.600 248.101 C 223.480 248.096,223.887 248.175,223.505 248.275 M257.905 248.275 C 257.522 248.375,256.802 248.379,256.305 248.283 C 255.807 248.187,256.120 248.105,257.000 248.101 C 257.880 248.096,258.287 248.175,257.905 248.275 M235.900 276.694 C 234.855 276.776,233.145 276.776,232.100 276.694 C 231.055 276.612,231.910 276.544,234.000 276.544 C 236.090 276.544,236.945 276.612,235.900 276.694 M250.500 276.682 C 250.005 276.778,249.195 276.778,248.700 276.682 C 248.205 276.587,248.610 276.509,249.600 276.509 C 250.590 276.509,250.995 276.587,250.500 276.682 M160.283 294.095 C 160.187 294.593,160.105 294.280,160.101 293.400 C 160.096 292.520,160.175 292.113,160.275 292.495 C 160.375 292.878,160.379 293.598,160.283 294.095 M197.600 380.247 C 197.600 380.331,197.139 380.400,196.576 380.400 C 196.013 380.400,195.654 380.237,195.777 380.038 C 195.982 379.706,197.600 379.892,197.600 380.247 M204.400 380.243 C 204.400 380.329,203.725 380.382,202.900 380.360 C 201.595 380.325,201.530 380.282,202.400 380.027 C 203.324 379.756,204.400 379.872,204.400 380.243 " stroke="none" fill="#24a464" fill-rule="evenodd"></path><path id="path1" d="M195.452 20.012 C 195.725 20.285,196.191 20.294,196.832 20.038 C 197.742 19.674,197.717 19.649,196.420 19.625 C 195.473 19.608,195.169 19.729,195.452 20.012 M202.800 19.753 C 202.800 20.117,204.359 20.272,204.856 19.957 C 205.226 19.723,204.984 19.610,204.100 19.606 C 203.385 19.603,202.800 19.669,202.800 19.753 M39.600 199.800 C 39.600 243.543,39.692 279.242,39.804 279.129 C 40.067 278.867,40.061 120.728,39.798 120.465 C 39.689 120.356,39.600 156.057,39.600 199.800 M359.999 121.500 C 359.936 189.090,360.049 278.982,360.198 279.131 C 360.309 279.242,360.400 243.573,360.400 199.867 C 360.400 156.160,360.310 120.400,360.200 120.400 C 360.090 120.400,360.000 120.895,359.999 121.500 M221.091 128.289 C 221.801 128.377,223.061 128.379,223.891 128.292 C 224.721 128.205,224.140 128.133,222.600 128.131 C 221.060 128.129,220.381 128.200,221.091 128.289 M247.911 128.293 C 248.851 128.378,250.291 128.377,251.111 128.291 C 251.930 128.205,251.160 128.136,249.400 128.137 C 247.640 128.139,246.970 128.209,247.911 128.293 M231.700 155.098 C 233.845 155.170,237.355 155.170,239.500 155.098 C 241.645 155.026,239.890 154.967,235.600 154.967 C 231.310 154.967,229.555 155.026,231.700 155.098 M173.353 171.800 C 173.353 174.440,173.418 175.468,173.497 174.084 C 173.575 172.701,173.574 170.541,173.495 169.284 C 173.416 168.028,173.352 169.160,173.353 171.800 M301.498 169.300 C 301.395 169.575,301.453 170.160,301.627 170.600 C 301.885 171.251,301.949 171.159,301.972 170.100 C 302.001 168.748,301.820 168.442,301.498 169.300 M283.700 181.898 C 286.065 181.969,289.935 181.969,292.300 181.898 C 294.665 181.828,292.730 181.770,288.000 181.770 C 283.270 181.770,281.335 181.828,283.700 181.898 M246.305 186.683 C 246.802 186.779,247.522 186.775,247.905 186.675 C 248.287 186.575,247.880 186.496,247.000 186.501 C 246.120 186.505,245.807 186.587,246.305 186.683 M256.705 188.283 C 257.202 188.379,257.922 188.375,258.305 188.275 C 258.687 188.175,258.280 188.096,257.400 188.101 C 256.520 188.105,256.207 188.187,256.705 188.283 M227.705 213.487 C 228.314 213.579,229.214 213.577,229.705 213.482 C 230.197 213.387,229.700 213.311,228.600 213.314 C 227.500 213.317,227.097 213.395,227.705 213.487 M241.105 215.083 C 241.602 215.179,242.322 215.175,242.705 215.075 C 243.087 214.975,242.680 214.896,241.800 214.901 C 240.920 214.905,240.607 214.987,241.105 215.083 M221.905 248.283 C 222.402 248.379,223.122 248.375,223.505 248.275 C 223.887 248.175,223.480 248.096,222.600 248.101 C 221.720 248.105,221.407 248.187,221.905 248.283 M256.305 248.283 C 256.802 248.379,257.522 248.375,257.905 248.275 C 258.287 248.175,257.880 248.096,257.000 248.101 C 256.120 248.105,255.807 248.187,256.305 248.283 M232.100 276.694 C 233.145 276.776,234.855 276.776,235.900 276.694 C 236.945 276.612,236.090 276.544,234.000 276.544 C 231.910 276.544,231.055 276.612,232.100 276.694 M248.700 276.682 C 249.195 276.778,250.005 276.778,250.500 276.682 C 250.995 276.587,250.590 276.509,249.600 276.509 C 248.610 276.509,248.205 276.587,248.700 276.682 M160.101 293.400 C 160.105 294.280,160.187 294.593,160.283 294.095 C 160.379 293.598,160.375 292.878,160.275 292.495 C 160.175 292.113,160.096 292.520,160.101 293.400 M195.777 380.038 C 195.654 380.237,196.013 380.400,196.576 380.400 C 197.802 380.400,197.901 380.172,196.800 379.884 C 196.361 379.769,195.900 379.838,195.777 380.038 M202.400 380.027 C 201.530 380.282,201.595 380.325,202.900 380.360 C 204.423 380.401,204.806 380.228,203.900 379.910 C 203.625 379.813,202.950 379.866,202.400 380.027 " stroke="none" fill="#28a464" fill-rule="evenodd"></path></g></svg>