<svg id="svg" version="1.1" xmlns="http://www.w3.org/2000/svg" xmlns:xlink="http://www.w3.org/1999/xlink" width="400" height="400" viewBox="0, 0, 400,400"><g id="svgg"><path id="path0" d="M21.100 19.887 C 19.811 21.243,19.465 27.642,20.545 30.140 C 21.081 31.378,21.634 33.674,22.430 37.963 C 22.650 39.153,22.959 40.323,23.115 40.563 C 23.272 40.803,23.612 41.990,23.871 43.200 C 24.130 44.410,24.639 46.570,25.001 48.000 C 25.364 49.430,25.850 51.500,26.081 52.600 C 26.312 53.700,26.749 55.279,27.051 56.108 C 27.353 56.938,27.600 58.080,27.600 58.648 C 27.600 59.215,27.845 60.246,28.145 60.940 C 28.682 62.180,29.236 64.483,30.032 68.781 C 30.255 69.981,30.583 71.151,30.763 71.381 C 30.943 71.611,31.200 72.651,31.336 73.691 C 31.471 74.731,31.747 75.901,31.949 76.291 C 32.289 76.948,32.571 78.144,33.626 83.400 C 33.847 84.500,34.195 85.760,34.400 86.200 C 34.605 86.640,34.948 87.900,35.163 89.000 C 35.651 91.495,36.302 94.065,37.037 96.400 C 37.349 97.390,37.604 98.650,37.604 99.200 C 37.605 99.750,37.874 100.716,38.202 101.346 C 38.531 101.976,38.800 103.007,38.800 103.638 C 38.800 104.268,39.055 105.462,39.366 106.292 C 39.677 107.121,40.045 108.601,40.184 109.580 C 40.322 110.559,40.582 111.549,40.762 111.780 C 40.942 112.011,41.205 113.082,41.345 114.160 C 41.486 115.237,41.757 116.317,41.947 116.560 C 42.138 116.802,42.418 117.980,42.571 119.177 C 42.723 120.374,42.972 121.544,43.124 121.777 C 43.276 122.010,43.612 123.190,43.871 124.400 C 44.130 125.610,44.639 127.770,45.001 129.200 C 45.364 130.630,45.846 132.700,46.073 133.800 C 46.299 134.900,46.650 136.119,46.851 136.509 C 47.053 136.899,47.329 138.069,47.465 139.109 C 47.601 140.149,47.932 141.450,48.200 142.000 C 48.468 142.550,48.799 143.851,48.935 144.891 C 49.071 145.931,49.347 147.101,49.549 147.491 C 49.900 148.171,50.398 150.311,51.203 154.600 C 51.409 155.700,51.741 156.960,51.940 157.400 C 52.140 157.840,52.488 159.100,52.715 160.200 C 52.942 161.300,53.400 163.280,53.734 164.600 C 54.294 166.816,54.690 168.433,55.987 173.800 C 56.253 174.900,56.726 176.610,57.037 177.600 C 57.349 178.590,57.604 179.850,57.604 180.400 C 57.605 180.950,57.874 181.916,58.202 182.546 C 58.531 183.176,58.801 184.256,58.802 184.946 C 58.804 185.636,59.044 186.659,59.337 187.220 C 59.630 187.781,59.983 189.195,60.121 190.362 C 60.259 191.530,60.534 192.691,60.731 192.942 C 60.928 193.194,61.205 194.282,61.345 195.360 C 61.486 196.437,61.759 197.517,61.951 197.760 C 62.144 198.002,62.426 199.232,62.579 200.494 C 62.731 201.755,63.000 202.876,63.175 202.985 C 63.351 203.093,63.620 204.127,63.773 205.281 C 63.926 206.435,64.198 207.565,64.377 207.790 C 64.557 208.016,64.894 209.190,65.126 210.400 C 65.602 212.878,66.257 215.525,66.909 217.600 C 67.150 218.370,67.474 219.810,67.628 220.800 C 67.782 221.790,68.094 223.140,68.322 223.800 C 68.891 225.452,69.579 228.214,70.014 230.600 C 70.214 231.700,70.541 232.960,70.740 233.400 C 71.078 234.145,71.407 235.549,72.429 240.600 C 72.652 241.700,72.949 242.870,73.090 243.200 C 73.231 243.530,73.570 244.790,73.844 246.000 C 74.118 247.210,74.603 249.280,74.923 250.600 C 75.242 251.920,75.721 253.900,75.987 255.000 C 76.253 256.100,76.726 257.810,77.037 258.800 C 77.349 259.790,77.603 261.023,77.602 261.540 C 77.601 262.056,77.855 263.046,78.166 263.740 C 78.478 264.433,78.848 265.851,78.989 266.891 C 79.131 267.931,79.416 268.886,79.623 269.014 C 79.830 269.142,80.000 269.863,80.000 270.616 C 80.000 271.368,80.255 272.662,80.566 273.492 C 80.877 274.321,81.241 275.773,81.374 276.717 C 81.506 277.662,81.773 278.742,81.965 279.117 C 82.158 279.493,82.498 280.700,82.721 281.800 C 82.945 282.900,83.421 284.970,83.781 286.400 C 84.141 287.830,84.688 290.080,84.997 291.400 C 85.579 293.884,86.103 295.965,87.009 299.400 C 88.050 303.346,88.457 305.025,88.755 306.600 C 88.922 307.480,89.255 308.830,89.495 309.600 C 90.158 311.729,90.809 314.381,91.214 316.600 C 91.414 317.700,91.741 318.960,91.940 319.400 C 92.140 319.840,92.509 321.190,92.761 322.400 C 93.252 324.757,93.998 327.937,94.967 331.800 C 95.299 333.120,95.772 335.010,96.020 336.000 C 96.267 336.990,96.724 338.716,97.035 339.835 C 97.346 340.954,97.600 342.268,97.600 342.755 C 97.600 343.242,97.845 344.126,98.144 344.720 C 98.443 345.314,98.799 346.651,98.935 347.691 C 99.071 348.731,99.347 349.901,99.549 350.291 C 99.889 350.948,100.171 352.144,101.226 357.400 C 101.447 358.500,101.791 359.760,101.991 360.200 C 102.191 360.640,102.476 361.810,102.623 362.800 C 102.771 363.790,103.007 364.780,103.146 365.000 C 103.286 365.220,103.612 366.390,103.871 367.600 C 104.130 368.810,104.617 370.880,104.953 372.200 C 105.289 373.520,105.800 375.543,106.089 376.695 C 107.010 380.373,108.109 381.201,112.064 381.194 C 116.186 381.186,114.252 382.805,138.573 359.000 C 140.371 357.240,143.553 354.180,145.644 352.200 C 152.733 345.487,165.247 333.426,171.584 327.200 C 175.055 323.790,178.953 320.028,180.247 318.840 C 183.915 315.472,197.043 302.848,203.997 296.000 C 207.461 292.590,212.968 287.280,216.236 284.200 C 224.013 276.871,229.988 271.117,237.213 264.000 C 242.544 258.749,246.279 255.173,258.568 243.552 C 260.750 241.488,265.452 236.920,269.017 233.400 C 272.582 229.880,278.441 224.210,282.037 220.800 C 289.600 213.630,295.784 207.680,302.353 201.254 C 307.524 196.195,321.135 183.119,323.000 181.418 C 324.019 180.489,328.880 175.780,346.759 158.400 C 348.230 156.970,352.378 153.010,355.976 149.600 C 359.574 146.190,364.607 141.364,367.159 138.875 C 369.712 136.386,373.330 132.879,375.200 131.081 L 378.600 127.812 378.739 124.558 C 378.867 121.569,378.801 121.231,377.939 120.413 C 376.825 119.356,373.056 117.606,371.850 117.586 C 371.383 117.578,370.550 117.314,370.000 117.000 C 369.450 116.686,368.493 116.422,367.874 116.414 C 367.254 116.406,366.367 116.196,365.901 115.947 C 365.435 115.698,364.142 115.261,363.027 114.977 C 361.912 114.692,360.190 114.253,359.200 114.002 C 358.210 113.751,357.093 113.381,356.717 113.180 C 356.342 112.979,355.303 112.698,354.409 112.555 C 353.514 112.412,352.692 112.149,352.582 111.971 C 352.472 111.792,351.531 111.523,350.491 111.373 C 349.451 111.222,348.420 110.963,348.200 110.796 C 347.980 110.629,346.990 110.301,346.000 110.067 C 342.218 109.174,340.564 108.684,339.538 108.151 C 338.954 107.848,338.015 107.600,337.452 107.600 C 336.888 107.600,335.836 107.351,335.114 107.046 C 334.391 106.741,332.990 106.287,332.000 106.036 C 331.010 105.785,329.300 105.305,328.200 104.968 C 325.682 104.198,322.722 103.373,320.400 102.794 C 319.410 102.547,318.293 102.181,317.917 101.980 C 317.542 101.779,316.473 101.493,315.541 101.344 C 314.610 101.195,313.387 100.833,312.824 100.539 C 312.261 100.245,311.316 100.004,310.724 100.002 C 310.132 100.001,309.549 99.840,309.428 99.645 C 309.307 99.450,308.532 99.175,307.704 99.033 C 306.877 98.891,305.570 98.533,304.800 98.238 C 303.466 97.726,301.477 97.160,298.400 96.417 C 297.630 96.231,296.460 95.885,295.800 95.648 C 295.140 95.411,293.250 94.843,291.600 94.387 C 289.950 93.931,288.311 93.402,287.959 93.212 C 287.606 93.022,286.455 92.737,285.400 92.579 C 284.345 92.421,283.014 92.047,282.441 91.748 C 281.869 91.449,280.916 91.204,280.324 91.202 C 279.732 91.201,279.142 91.030,279.014 90.823 C 278.886 90.616,277.931 90.323,276.891 90.173 C 275.851 90.022,274.801 89.741,274.557 89.548 C 274.314 89.355,273.324 89.035,272.357 88.837 C 271.391 88.639,269.970 88.262,269.200 88.001 C 268.430 87.739,267.260 87.342,266.600 87.119 C 265.940 86.897,264.680 86.587,263.800 86.431 C 262.920 86.275,261.840 85.958,261.400 85.726 C 260.960 85.495,259.903 85.179,259.051 85.025 C 258.199 84.871,257.209 84.590,256.851 84.400 C 256.493 84.210,255.390 83.849,254.400 83.598 C 253.410 83.347,251.700 82.891,250.600 82.586 C 249.500 82.281,247.790 81.823,246.800 81.569 C 245.810 81.314,244.676 80.940,244.280 80.737 C 243.884 80.534,242.804 80.205,241.880 80.006 C 239.042 79.393,236.635 78.724,235.880 78.337 C 235.484 78.134,234.404 77.813,233.480 77.623 C 232.556 77.432,231.260 77.095,230.600 76.873 C 229.940 76.651,228.410 76.189,227.200 75.848 C 225.990 75.507,223.830 74.878,222.400 74.450 C 220.970 74.023,218.834 73.387,217.654 73.037 C 216.474 72.687,215.179 72.400,214.778 72.400 C 214.376 72.400,213.942 72.230,213.814 72.023 C 213.686 71.816,212.749 71.521,211.732 71.369 C 210.715 71.216,209.414 70.847,208.841 70.548 C 208.269 70.249,207.316 70.004,206.724 70.002 C 206.132 70.001,205.546 69.836,205.422 69.635 C 205.297 69.434,204.432 69.143,203.498 68.988 C 202.564 68.832,201.314 68.457,200.720 68.153 C 200.126 67.849,199.136 67.594,198.520 67.586 C 197.904 67.578,196.950 67.314,196.400 67.000 C 195.850 66.686,194.977 66.422,194.460 66.414 C 193.944 66.406,192.954 66.148,192.260 65.840 C 191.078 65.316,190.099 65.028,185.900 63.973 C 184.965 63.738,183.893 63.381,183.517 63.180 C 183.142 62.979,182.062 62.697,181.117 62.553 C 180.173 62.409,179.201 62.135,178.957 61.944 C 178.714 61.753,177.724 61.428,176.757 61.220 C 173.870 60.601,171.446 59.929,170.680 59.537 C 170.284 59.334,169.204 59.013,168.280 58.823 C 167.356 58.632,166.015 58.279,165.300 58.038 C 164.585 57.797,163.415 57.401,162.700 57.157 C 161.985 56.914,160.680 56.587,159.800 56.431 C 158.920 56.275,157.840 55.955,157.400 55.720 C 156.960 55.485,155.836 55.166,154.902 55.012 C 153.968 54.857,153.113 54.583,153.002 54.403 C 152.890 54.222,151.900 53.951,150.800 53.800 C 149.700 53.649,148.706 53.372,148.591 53.186 C 148.476 52.999,147.573 52.725,146.586 52.577 C 145.598 52.429,144.698 52.159,144.586 51.977 C 144.473 51.795,143.531 51.523,142.491 51.373 C 141.451 51.222,140.401 50.941,140.157 50.748 C 139.914 50.555,138.924 50.228,137.957 50.020 C 135.070 49.401,132.646 48.729,131.880 48.337 C 131.484 48.134,130.404 47.813,129.480 47.623 C 128.556 47.432,127.260 47.095,126.600 46.873 C 125.940 46.651,124.320 46.160,123.000 45.783 C 121.680 45.406,119.564 44.760,118.298 44.349 C 117.033 43.937,115.648 43.600,115.222 43.600 C 114.796 43.600,114.339 43.425,114.207 43.212 C 114.075 42.998,113.070 42.704,111.975 42.559 C 110.879 42.413,109.892 42.149,109.782 41.970 C 109.672 41.792,108.749 41.521,107.732 41.369 C 106.715 41.216,105.414 40.847,104.841 40.548 C 104.269 40.249,103.316 40.004,102.724 40.002 C 102.132 40.001,101.542 39.830,101.414 39.623 C 101.286 39.416,100.331 39.121,99.291 38.968 C 98.251 38.815,97.045 38.445,96.611 38.145 C 96.177 37.845,95.457 37.601,95.011 37.602 C 94.285 37.604,92.670 37.156,89.000 35.935 C 87.805 35.537,85.423 34.877,82.000 33.995 C 81.010 33.740,79.840 33.370,79.400 33.173 C 78.960 32.976,77.880 32.639,77.000 32.426 C 73.405 31.552,71.765 31.088,71.117 30.760 C 70.742 30.570,69.662 30.297,68.717 30.153 C 67.773 30.009,66.801 29.735,66.557 29.544 C 66.314 29.353,65.324 29.035,64.357 28.837 C 62.679 28.493,61.975 28.285,58.800 27.195 C 58.030 26.931,56.680 26.587,55.800 26.431 C 54.920 26.275,53.840 25.958,53.400 25.726 C 52.960 25.495,51.903 25.179,51.051 25.025 C 50.199 24.871,49.209 24.590,48.851 24.400 C 48.493 24.210,47.435 23.862,46.500 23.627 C 45.565 23.392,44.035 23.008,43.100 22.773 C 42.165 22.538,41.093 22.181,40.717 21.980 C 40.342 21.779,39.262 21.497,38.317 21.353 C 37.373 21.209,36.420 20.951,36.200 20.781 C 35.980 20.611,35.080 20.342,34.200 20.184 C 33.320 20.025,32.347 19.694,32.039 19.448 C 31.723 19.196,29.450 18.941,26.839 18.865 L 22.200 18.730 21.100 19.887 M35.505 31.163 C 36.987 31.583,44.230 33.673,51.600 35.809 C 58.970 37.945,65.540 39.829,66.200 39.996 C 66.860 40.163,69.650 40.970,72.400 41.789 C 75.150 42.608,79.200 43.784,81.400 44.404 C 92.453 47.515,102.675 50.528,103.300 50.858 C 104.529 51.508,104.090 52.184,99.700 56.405 C 97.335 58.679,92.970 62.904,90.000 65.794 C 70.275 84.987,50.375 104.000,50.012 104.000 C 49.343 104.000,49.011 102.911,46.238 91.600 C 43.548 80.631,35.404 47.605,32.980 37.837 C 30.946 29.637,30.865 29.849,35.505 31.163 M126.800 57.465 C 129.550 58.256,133.600 59.430,135.800 60.073 C 140.205 61.361,142.046 61.893,147.400 63.427 C 149.380 63.995,155.050 65.636,160.000 67.076 C 164.950 68.515,169.540 69.831,170.200 70.000 C 173.097 70.741,189.694 75.611,190.029 75.818 C 191.205 76.545,194.695 73.037,148.453 117.617 C 141.665 124.162,138.023 127.400,137.453 127.400 C 136.556 127.400,135.456 123.310,126.430 86.400 C 125.058 80.790,122.854 71.826,121.533 66.480 C 120.211 61.134,119.237 56.480,119.369 56.137 C 119.647 55.412,119.687 55.419,126.800 57.465 M112.915 65.500 C 113.938 69.625,117.037 82.180,119.801 93.400 C 122.566 104.620,125.632 117.019,126.614 120.954 C 128.726 129.416,128.778 130.000,127.411 130.000 C 126.867 130.000,119.802 128.089,111.711 125.753 C 103.620 123.418,96.460 121.369,95.800 121.200 C 95.140 121.032,87.310 118.782,78.400 116.200 C 69.490 113.618,61.600 111.363,60.866 111.187 C 58.668 110.663,57.200 109.936,57.200 109.372 C 57.200 108.746,57.262 108.681,65.002 101.210 C 68.301 98.026,73.700 92.805,77.000 89.609 C 83.797 83.025,103.268 64.257,107.200 60.500 C 110.935 56.931,110.752 56.771,112.915 65.500 M208.080 80.961 C 209.246 81.270,215.600 83.092,222.200 85.010 C 228.800 86.928,234.740 88.635,235.400 88.802 C 236.060 88.970,240.740 90.315,245.800 91.790 C 250.860 93.266,256.800 94.980,259.000 95.598 C 261.200 96.216,265.250 97.392,268.000 98.211 C 270.750 99.030,273.540 99.837,274.200 100.004 C 277.922 100.947,277.849 101.089,269.600 109.018 C 265.750 112.719,259.900 118.369,256.600 121.575 C 247.808 130.115,229.381 147.869,226.564 150.513 C 225.224 151.771,223.841 152.800,223.491 152.800 C 222.758 152.800,222.884 153.172,221.045 145.600 C 218.660 135.785,212.953 112.563,209.013 96.651 C 205.764 83.527,205.151 80.400,205.823 80.400 C 205.899 80.400,206.915 80.653,208.080 80.961 M198.945 89.600 C 202.404 103.738,207.152 123.037,210.835 137.920 C 213.028 146.785,214.707 154.227,214.564 154.458 C 214.172 155.092,212.601 154.744,202.600 151.808 C 197.540 150.323,192.860 148.969,192.200 148.801 C 191.540 148.632,183.710 146.382,174.800 143.801 C 165.890 141.219,158.240 139.019,157.800 138.910 C 157.070 138.730,154.695 138.041,146.500 135.630 C 142.279 134.388,140.839 136.246,161.397 116.406 C 164.699 113.220,169.827 108.270,172.793 105.406 C 180.154 98.301,188.251 90.506,192.718 86.226 C 197.250 81.884,197.029 81.765,198.945 89.600 M299.128 107.171 C 302.138 108.036,308.020 109.731,312.200 110.939 C 319.050 112.918,327.666 115.403,354.958 123.274 C 365.373 126.278,365.498 126.373,362.600 129.107 C 359.669 131.873,339.842 150.953,333.800 156.822 C 318.289 171.889,311.111 178.600,310.508 178.600 C 309.604 178.600,309.289 177.604,306.392 165.600 C 304.390 157.305,296.249 124.166,292.788 110.224 C 291.431 104.754,291.161 104.883,299.128 107.171 M286.197 117.432 C 287.387 122.254,290.087 133.220,292.199 141.800 C 294.311 150.380,297.200 162.080,298.620 167.800 C 300.040 173.520,301.201 178.605,301.201 179.100 C 301.200 180.378,300.697 180.306,291.920 177.764 C 287.674 176.534,282.400 175.024,280.200 174.408 C 278.000 173.791,272.060 172.080,267.000 170.604 C 261.940 169.129,257.440 167.826,257.000 167.709 C 256.560 167.592,254.670 167.053,252.800 166.510 C 250.930 165.968,247.600 165.019,245.400 164.401 C 243.200 163.783,239.150 162.608,236.400 161.790 C 233.650 160.971,231.085 160.213,230.700 160.104 C 229.335 159.719,230.045 158.504,233.700 154.969 C 235.735 153.002,242.346 146.623,248.391 140.796 C 258.649 130.907,262.290 127.390,277.129 113.030 C 284.100 106.284,283.360 105.925,286.197 117.432 M56.800 118.431 C 58.230 118.882,60.300 119.492,61.400 119.787 C 62.500 120.082,70.690 122.432,79.600 125.009 C 88.510 127.586,96.340 129.832,97.000 130.001 C 101.764 131.219,125.068 138.109,125.338 138.378 C 126.065 139.105,124.659 140.551,102.200 162.177 C 89.440 174.464,77.423 186.063,75.496 187.954 C 70.843 192.518,71.270 192.991,67.952 179.578 C 64.176 164.312,55.074 127.432,53.889 122.600 C 52.583 117.275,52.683 117.132,56.800 118.431 M153.900 146.249 C 160.445 148.146,166.340 149.833,167.000 149.999 C 167.660 150.165,170.450 150.969,173.200 151.786 C 175.950 152.603,179.460 153.621,181.000 154.048 C 184.133 154.916,191.844 157.131,197.600 158.816 C 199.690 159.428,203.785 160.608,206.700 161.438 C 210.679 162.572,212.000 163.109,212.000 163.592 C 212.000 164.340,207.522 168.768,178.200 197.011 C 171.820 203.157,165.016 209.718,163.080 211.592 C 161.144 213.467,159.434 215.042,159.280 215.093 C 158.401 215.387,157.735 213.352,154.794 201.388 C 150.708 184.764,144.450 159.365,142.382 151.012 C 140.639 143.975,140.499 142.800,141.400 142.800 C 141.731 142.800,147.356 144.352,153.900 146.249 M132.739 146.300 C 132.979 146.905,134.453 152.620,136.014 159.000 C 139.807 174.499,145.103 196.015,148.022 207.789 C 149.330 213.063,150.400 217.698,150.400 218.089 C 150.400 219.243,149.073 218.995,137.900 215.753 C 132.125 214.077,126.860 212.563,126.200 212.389 C 125.540 212.214,122.750 211.409,120.000 210.600 C 117.250 209.791,114.460 208.986,113.800 208.811 C 113.140 208.637,107.200 206.921,100.600 204.999 C 94.000 203.077,88.240 201.416,87.800 201.308 C 87.360 201.201,85.200 200.580,83.000 199.930 C 80.800 199.279,78.685 198.657,78.300 198.547 C 76.897 198.145,77.792 197.113,88.700 186.562 C 94.805 180.656,102.140 173.560,105.000 170.793 C 107.860 168.026,112.810 163.244,116.000 160.166 C 119.190 157.089,123.983 152.462,126.652 149.885 C 131.940 144.778,132.099 144.685,132.739 146.300 M234.957 169.828 C 238.501 170.833,241.940 171.827,242.600 172.036 C 244.125 172.518,249.941 174.180,254.600 175.464 C 256.580 176.009,259.910 176.959,262.000 177.574 C 267.074 179.068,272.256 180.563,286.757 184.718 C 301.410 188.917,300.942 188.554,296.800 192.503 C 295.150 194.077,284.168 204.642,272.396 215.982 C 242.726 244.562,245.675 241.849,245.014 241.174 C 244.705 240.858,243.348 236.100,242.000 230.600 C 238.418 215.990,233.651 196.625,229.984 181.787 C 228.216 174.630,226.876 168.600,227.008 168.387 C 227.394 167.762,228.176 167.904,234.957 169.828 M219.319 172.500 C 219.985 174.927,220.267 176.062,223.817 190.600 C 229.014 211.881,235.215 237.040,235.802 239.226 C 236.475 241.731,236.569 243.448,236.052 243.768 C 235.712 243.978,234.089 243.540,218.600 239.062 C 214.420 237.853,205.600 235.307,199.000 233.403 C 192.400 231.500,183.580 228.951,179.400 227.739 C 175.220 226.527,170.092 225.053,168.005 224.464 C 165.447 223.741,164.169 223.185,164.087 222.758 C 164.012 222.365,168.420 217.811,175.683 210.781 C 182.127 204.542,189.560 197.337,192.200 194.770 C 219.545 168.184,218.395 169.129,219.319 172.500 M81.763 208.049 C 84.863 208.956,87.940 209.835,88.600 210.003 C 89.794 210.306,99.436 213.095,117.000 218.218 C 122.060 219.693,126.830 221.059,127.600 221.252 C 133.398 222.705,146.174 226.722,146.312 227.135 C 146.486 227.658,145.373 228.806,135.000 238.799 C 131.700 241.978,126.300 247.195,123.000 250.391 C 90.937 281.450,93.324 279.258,92.610 278.281 C 92.344 277.918,90.825 272.351,89.233 265.910 C 74.868 207.771,74.737 207.226,75.010 206.783 C 75.365 206.209,75.664 206.265,81.763 208.049 M178.093 235.852 C 185.412 237.964,191.940 239.829,192.600 239.996 C 193.260 240.163,196.050 240.965,198.800 241.778 C 201.550 242.590,209.650 244.945,216.800 247.010 C 223.950 249.076,230.610 251.006,231.600 251.299 C 234.287 252.095,234.168 252.918,230.918 256.014 C 226.038 260.663,206.826 279.152,196.200 289.426 C 183.655 301.555,181.226 303.800,180.645 303.800 C 180.041 303.800,179.379 301.475,175.802 286.800 C 170.042 263.174,163.609 237.003,163.204 235.554 C 162.441 232.821,162.650 231.476,163.793 231.762 C 164.339 231.900,170.774 233.740,178.093 235.852 M155.646 238.804 C 156.441 241.992,158.839 251.710,160.975 260.400 C 163.111 269.090,166.375 282.334,168.229 289.832 C 170.083 297.330,171.600 303.745,171.600 304.089 C 171.600 305.287,170.422 305.134,162.935 302.959 C 158.791 301.756,154.500 300.525,153.400 300.224 C 152.300 299.923,146.000 298.108,139.400 296.190 C 132.800 294.272,126.860 292.565,126.200 292.398 C 125.540 292.230,120.860 290.887,115.800 289.413 C 110.740 287.938,105.340 286.377,103.800 285.942 C 99.496 284.728,99.391 284.448,102.222 281.742 C 103.530 280.493,107.030 277.104,110.000 274.213 C 116.017 268.355,148.384 237.152,151.200 234.495 C 153.836 232.007,153.987 232.153,155.646 238.804 M112.025 296.804 C 119.821 299.052,126.740 301.029,127.400 301.199 C 128.060 301.368,135.890 303.616,144.800 306.194 C 153.710 308.772,162.260 311.227,163.800 311.648 C 171.223 313.679,171.174 313.534,166.100 318.434 C 163.954 320.505,154.999 329.122,146.200 337.581 C 137.400 346.041,127.860 355.245,125.000 358.035 C 117.715 365.141,115.611 367.000,114.856 367.000 C 114.170 367.000,113.678 365.160,105.825 333.200 C 104.122 326.270,101.221 314.491,99.378 307.024 C 96.045 293.515,95.829 291.942,97.389 292.540 C 97.642 292.638,104.228 294.556,112.025 296.804 " stroke="none" fill="#0b0b0b" fill-rule="evenodd"></path><path id="path1" d="M31.600 31.337 C 31.600 31.852,32.221 34.777,32.980 37.837 C 35.404 47.605,43.548 80.631,46.238 91.600 C 49.011 102.911,49.343 104.000,50.012 104.000 C 50.375 104.000,70.275 84.987,90.000 65.794 C 92.970 62.904,97.335 58.679,99.700 56.405 C 104.090 52.184,104.529 51.508,103.300 50.858 C 102.675 50.528,92.453 47.515,81.400 44.404 C 79.200 43.784,75.150 42.608,72.400 41.789 C 69.650 40.970,66.860 40.163,66.200 39.996 C 65.540 39.829,58.970 37.945,51.600 35.809 C 29.721 29.469,31.600 29.889,31.600 31.337 M119.369 56.137 C 119.237 56.480,120.211 61.134,121.533 66.480 C 122.854 71.826,125.058 80.790,126.430 86.400 C 135.456 123.310,136.556 127.400,137.453 127.400 C 138.023 127.400,141.665 124.162,148.453 117.617 C 194.695 73.037,191.205 76.545,190.029 75.818 C 189.694 75.611,173.097 70.741,170.200 70.000 C 169.540 69.831,164.950 68.515,160.000 67.076 C 155.050 65.636,149.380 63.995,147.400 63.427 C 142.046 61.893,140.205 61.361,135.800 60.073 C 119.555 55.323,119.671 55.351,119.369 56.137 M107.200 60.500 C 103.268 64.257,83.797 83.025,77.000 89.609 C 73.700 92.805,68.301 98.026,65.002 101.210 C 57.262 108.681,57.200 108.746,57.200 109.372 C 57.200 109.936,58.668 110.663,60.866 111.187 C 61.600 111.363,69.490 113.618,78.400 116.200 C 87.310 118.782,95.140 121.032,95.800 121.200 C 96.460 121.369,103.620 123.418,111.711 125.753 C 119.802 128.089,126.867 130.000,127.411 130.000 C 128.778 130.000,128.726 129.416,126.614 120.954 C 125.632 117.019,122.566 104.620,119.801 93.400 C 109.578 51.913,111.349 56.535,107.200 60.500 M205.474 80.951 C 205.358 81.254,206.951 88.319,209.013 96.651 C 212.953 112.563,218.660 135.785,221.045 145.600 C 222.884 153.172,222.758 152.800,223.491 152.800 C 223.841 152.800,225.224 151.771,226.564 150.513 C 229.381 147.869,247.808 130.115,256.600 121.575 C 259.900 118.369,265.750 112.719,269.600 109.018 C 277.849 101.089,277.922 100.947,274.200 100.004 C 273.540 99.837,270.750 99.030,268.000 98.211 C 265.250 97.392,261.200 96.216,259.000 95.598 C 256.800 94.980,250.860 93.266,245.800 91.790 C 240.740 90.315,236.060 88.970,235.400 88.802 C 234.740 88.635,228.800 86.928,222.200 85.010 C 204.811 79.957,205.767 80.189,205.474 80.951 M192.718 86.226 C 188.251 90.506,180.154 98.301,172.793 105.406 C 169.827 108.270,164.699 113.220,161.397 116.406 C 140.839 136.246,142.279 134.388,146.500 135.630 C 154.695 138.041,157.070 138.730,157.800 138.910 C 158.240 139.019,165.890 141.219,174.800 143.801 C 183.710 146.382,191.540 148.632,192.200 148.801 C 192.860 148.969,197.540 150.323,202.600 151.808 C 212.601 154.744,214.172 155.092,214.564 154.458 C 214.707 154.227,213.028 146.785,210.835 137.920 C 207.152 123.037,202.404 103.738,198.945 89.600 C 197.029 81.765,197.250 81.884,192.718 86.226 M292.000 106.324 C 292.000 106.722,292.355 108.477,292.788 110.224 C 296.249 124.166,304.390 157.305,306.392 165.600 C 309.289 177.604,309.604 178.600,310.508 178.600 C 311.111 178.600,318.289 171.889,333.800 156.822 C 339.842 150.953,359.669 131.873,362.600 129.107 C 365.498 126.373,365.373 126.278,354.958 123.274 C 327.666 115.403,319.050 112.918,312.200 110.939 C 291.163 104.860,292.000 105.052,292.000 106.324 M277.129 113.030 C 262.290 127.390,258.649 130.907,248.391 140.796 C 242.346 146.623,235.735 153.002,233.700 154.969 C 230.045 158.504,229.335 159.719,230.700 160.104 C 231.085 160.213,233.650 160.971,236.400 161.790 C 239.150 162.608,243.200 163.783,245.400 164.401 C 247.600 165.019,250.930 165.968,252.800 166.510 C 254.670 167.053,256.560 167.592,257.000 167.709 C 257.440 167.826,261.940 169.129,267.000 170.604 C 272.060 172.080,278.000 173.791,280.200 174.408 C 282.400 175.024,287.674 176.534,291.920 177.764 C 300.697 180.306,301.200 180.378,301.201 179.100 C 301.201 178.605,300.040 173.520,298.620 167.800 C 297.200 162.080,294.311 150.380,292.199 141.800 C 290.087 133.220,287.387 122.254,286.197 117.432 C 283.360 105.925,284.100 106.284,277.129 113.030 M53.303 118.100 C 53.035 118.439,53.224 119.887,53.889 122.600 C 55.074 127.432,64.176 164.312,67.952 179.578 C 71.270 192.991,70.843 192.518,75.496 187.954 C 77.423 186.063,89.440 174.464,102.200 162.177 C 124.659 140.551,126.065 139.105,125.338 138.378 C 125.068 138.109,101.764 131.219,97.000 130.001 C 96.340 129.832,88.510 127.586,79.600 125.009 C 70.690 122.432,62.500 120.082,61.400 119.787 C 60.300 119.492,58.230 118.882,56.800 118.431 C 53.717 117.458,53.804 117.466,53.303 118.100 M140.800 143.712 C 140.800 144.214,141.512 147.499,142.382 151.012 C 144.450 159.365,150.708 184.764,154.794 201.388 C 157.735 213.352,158.401 215.387,159.280 215.093 C 159.434 215.042,161.144 213.467,163.080 211.592 C 165.016 209.718,171.820 203.157,178.200 197.011 C 207.522 168.768,212.000 164.340,212.000 163.592 C 212.000 163.109,210.679 162.572,206.700 161.438 C 203.785 160.608,199.690 159.428,197.600 158.816 C 191.844 157.131,184.133 154.916,181.000 154.048 C 179.460 153.621,175.950 152.603,173.200 151.786 C 170.450 150.969,167.660 150.165,167.000 149.999 C 166.340 149.833,160.445 148.146,153.900 146.249 C 140.631 142.403,140.800 142.436,140.800 143.712 M126.652 149.885 C 123.983 152.462,119.190 157.089,116.000 160.166 C 112.810 163.244,107.860 168.026,105.000 170.793 C 102.140 173.560,94.805 180.656,88.700 186.562 C 77.792 197.113,76.897 198.145,78.300 198.547 C 78.685 198.657,80.800 199.279,83.000 199.930 C 85.200 200.580,87.360 201.201,87.800 201.308 C 88.240 201.416,94.000 203.077,100.600 204.999 C 107.200 206.921,113.140 208.637,113.800 208.811 C 114.460 208.986,117.250 209.791,120.000 210.600 C 122.750 211.409,125.540 212.214,126.200 212.389 C 126.860 212.563,132.125 214.077,137.900 215.753 C 149.073 218.995,150.400 219.243,150.400 218.089 C 150.400 217.698,149.330 213.063,148.022 207.789 C 145.103 196.015,139.807 174.499,136.014 159.000 C 133.030 146.804,132.552 145.200,131.903 145.200 C 131.683 145.200,129.320 147.308,126.652 149.885 M227.008 168.387 C 226.876 168.600,228.216 174.630,229.984 181.787 C 233.651 196.625,238.418 215.990,242.000 230.600 C 243.348 236.100,244.705 240.858,245.014 241.174 C 245.675 241.849,242.726 244.562,272.396 215.982 C 284.168 204.642,295.150 194.077,296.800 192.503 C 300.942 188.554,301.410 188.917,286.757 184.718 C 272.256 180.563,267.074 179.068,262.000 177.574 C 259.910 176.959,256.580 176.009,254.600 175.464 C 249.941 174.180,244.125 172.518,242.600 172.036 C 233.579 169.181,227.410 167.737,227.008 168.387 M207.200 180.260 C 201.590 185.674,194.840 192.204,192.200 194.770 C 189.560 197.337,182.127 204.542,175.683 210.781 C 168.420 217.811,164.012 222.365,164.087 222.758 C 164.169 223.185,165.447 223.741,168.005 224.464 C 170.092 225.053,175.220 226.527,179.400 227.739 C 183.580 228.951,192.400 231.500,199.000 233.403 C 205.600 235.307,214.420 237.853,218.600 239.062 C 234.089 243.540,235.712 243.978,236.052 243.768 C 236.569 243.448,236.475 241.731,235.802 239.226 C 235.215 237.040,229.014 211.881,223.817 190.600 C 218.687 169.592,218.916 170.398,218.072 170.408 C 217.702 170.413,212.810 174.846,207.200 180.260 M75.010 206.783 C 74.765 207.181,75.291 209.423,82.194 237.400 C 93.673 283.918,92.374 279.508,94.178 278.089 C 95.138 277.334,101.180 271.527,123.000 250.391 C 126.300 247.195,131.700 241.978,135.000 238.799 C 145.373 228.806,146.486 227.658,146.312 227.135 C 146.174 226.722,133.398 222.705,127.600 221.252 C 126.830 221.059,122.060 219.693,117.000 218.218 C 99.436 213.095,89.794 210.306,88.600 210.003 C 87.940 209.835,84.863 208.956,81.763 208.049 C 75.664 206.265,75.365 206.209,75.010 206.783 M162.800 232.810 C 162.800 233.524,162.982 234.758,163.204 235.554 C 163.609 237.003,170.042 263.174,175.802 286.800 C 179.379 301.475,180.041 303.800,180.645 303.800 C 181.226 303.800,183.655 301.555,196.200 289.426 C 206.826 279.152,226.038 260.663,230.918 256.014 C 234.168 252.918,234.287 252.095,231.600 251.299 C 230.610 251.006,223.950 249.076,216.800 247.010 C 209.650 244.945,201.550 242.590,198.800 241.778 C 196.050 240.965,193.260 240.163,192.600 239.996 C 191.940 239.829,185.412 237.964,178.093 235.852 C 170.774 233.740,164.339 231.900,163.793 231.762 C 162.889 231.536,162.800 231.629,162.800 232.810 M151.200 234.495 C 148.384 237.152,116.017 268.355,110.000 274.213 C 107.030 277.104,103.530 280.493,102.222 281.742 C 99.391 284.448,99.496 284.728,103.800 285.942 C 105.340 286.377,110.740 287.938,115.800 289.413 C 120.860 290.887,125.540 292.230,126.200 292.398 C 126.860 292.565,132.800 294.272,139.400 296.190 C 146.000 298.108,152.300 299.923,153.400 300.224 C 154.500 300.525,158.791 301.756,162.935 302.959 C 170.422 305.134,171.600 305.287,171.600 304.089 C 171.600 303.745,170.083 297.330,168.229 289.832 C 166.375 282.334,163.111 269.090,160.975 260.400 C 153.178 228.677,154.277 231.591,151.200 234.495 M96.478 292.906 C 96.136 293.318,96.830 296.697,99.378 307.024 C 101.221 314.491,104.122 326.270,105.825 333.200 C 113.678 365.160,114.170 367.000,114.856 367.000 C 115.611 367.000,117.715 365.141,125.000 358.035 C 127.860 355.245,137.400 346.041,146.200 337.581 C 154.999 329.122,163.954 320.505,166.100 318.434 C 171.174 313.534,171.223 313.679,163.800 311.648 C 162.260 311.227,153.710 308.772,144.800 306.194 C 135.890 303.616,128.060 301.368,127.400 301.199 C 125.731 300.771,97.955 292.758,97.389 292.540 C 97.135 292.443,96.726 292.608,96.478 292.906 " stroke="none" fill="#fbfbfb" fill-rule="evenodd"></path></g></svg>